<svg width="35" height="25" viewBox="0 0 35 25" fill="none" xmlns="http://www.w3.org/2000/svg">
<rect x="0.5" y="1.41992" width="34" height="23" rx="3.5" fill="white" stroke="#D9D9D9"/>
<path fill-rule="evenodd" clip-rule="evenodd" d="M17.75 18.0769C16.5584 19.1051 15.0128 19.7259 13.3238 19.7259C9.55511 19.7259 6.5 16.6353 6.5 12.8229C6.5 9.01049 9.55511 5.91992 13.3238 5.91992C15.0128 5.91992 16.5584 6.54067 17.75 7.56896C18.9416 6.54067 20.4872 5.91992 22.1762 5.91992C25.9449 5.91992 29 9.01049 29 12.8229C29 16.6353 25.9449 19.7259 22.1762 19.7259C20.4872 19.7259 18.9416 19.1051 17.75 18.0769Z" fill="#ED0006"/>
<path fill-rule="evenodd" clip-rule="evenodd" d="M17.75 18.0769C19.2172 16.8107 20.1475 14.9267 20.1475 12.8229C20.1475 10.7191 19.2172 8.83509 17.75 7.56896C18.9416 6.54067 20.4872 5.91992 22.1762 5.91992C25.9449 5.91992 29 9.01049 29 12.8229C29 16.6353 25.9449 19.7259 22.1762 19.7259C20.4872 19.7259 18.9416 19.1051 17.75 18.0769Z" fill="#F9A000"/>
<path fill-rule="evenodd" clip-rule="evenodd" d="M17.75 7.56885C19.2172 8.83498 20.1476 10.719 20.1476 12.8228C20.1476 14.9266 19.2172 16.8106 17.75 18.0767C16.2829 16.8106 15.3525 14.9266 15.3525 12.8228C15.3525 10.719 16.2829 8.83498 17.75 7.56885Z" fill="#FF5E00"/>
</svg>
