<svg width="121" height="35" viewBox="0 0 121 35" fill="none" xmlns="http://www.w3.org/2000/svg">
<path d="M119.833 30.6687C119.833 32.5161 118.306 34.0126 116.416 34.0126H4.58828C2.69966 34.0126 1.16666 32.5161 1.16666 30.6687V4.00233C1.16666 2.15577 2.69966 0.654083 4.58828 0.654083H116.415C118.306 0.654083 119.832 2.15577 119.832 4.00233L119.833 30.6687Z" fill="black"/>
<path d="M116.056 0.694427C118.113 0.694427 119.788 2.32701 119.788 4.33335V30.3334C119.788 32.3397 118.113 33.9723 116.056 33.9723H4.94444C2.88667 33.9723 1.21222 32.3397 1.21222 30.3334V4.33335C1.21222 2.32701 2.88667 0.694427 4.94444 0.694427H116.056ZM116.056 1.14441e-05H4.94444C2.50111 1.14441e-05 0.5 1.9511 0.5 4.33335V30.3334C0.5 32.7156 2.50111 34.6667 4.94444 34.6667H116.056C118.499 34.6667 120.5 32.7156 120.5 30.3334V4.33335C120.5 1.9511 118.499 1.14441e-05 116.056 1.14441e-05Z" fill="#A6A6A6"/>
<path d="M27.2804 17.1461C27.2547 14.3529 29.6262 12.9939 29.7347 12.9307C28.3916 11.0214 26.3098 10.7605 25.5782 10.7397C23.8298 10.5603 22.1338 11.7598 21.2431 11.7598C20.3347 11.7598 18.9631 10.7571 17.4849 10.7865C15.5827 10.8151 13.8031 11.8889 12.8271 13.5564C10.8129 16.9563 12.3151 21.9527 14.2449 24.7009C15.2102 26.0468 16.3382 27.5496 17.8147 27.4967C19.2591 27.4387 19.7987 26.5989 21.5418 26.5989C23.2689 26.5989 23.7755 27.4967 25.2813 27.4629C26.8315 27.4387 27.8075 26.1109 28.7391 24.7529C29.8547 23.2102 30.3027 21.6909 30.3204 21.6129C30.284 21.6008 27.3098 20.4941 27.2804 17.1461Z" fill="white"/>
<path d="M24.436 8.93186C25.2129 7.9846 25.7444 6.69586 25.5969 5.38806C24.4724 5.43659 23.0662 6.1464 22.2564 7.07286C21.54 7.88926 20.9 9.2274 21.0653 10.4858C22.3284 10.5777 23.6253 9.8644 24.436 8.93186Z" fill="white"/>
<path d="M44.1 8.67446C44.1 9.69453 43.7862 10.4624 43.1596 10.9781C42.5791 11.4539 41.7542 11.6922 40.6858 11.6922C40.156 11.6922 39.7027 11.6697 39.3231 11.6246V6.05106C39.8182 5.97306 40.3516 5.9332 40.9276 5.9332C41.9453 5.9332 42.7125 6.149 43.2298 6.5806C43.8093 7.06853 44.1 7.7662 44.1 8.67446ZM43.1178 8.6996C43.1178 8.03833 42.9382 7.53133 42.5791 7.17773C42.22 6.825 41.6956 6.6482 41.0049 6.6482C40.7116 6.6482 40.4618 6.66726 40.2547 6.70713V10.9443C40.3693 10.9616 40.5791 10.9694 40.884 10.9694C41.5969 10.9694 42.1471 10.7761 42.5347 10.3896C42.9222 10.0031 43.1178 9.43973 43.1178 8.6996Z" fill="white"/>
<path d="M49.308 9.5654C49.308 10.1937 49.124 10.7085 48.756 11.1124C48.3702 11.5275 47.8591 11.7347 47.2209 11.7347C46.6058 11.7347 46.116 11.5362 45.7507 11.1375C45.3862 10.7397 45.204 10.2379 45.204 9.633C45.204 9.00033 45.3916 8.4812 45.7685 8.0782C46.1453 7.6752 46.652 7.47327 47.2902 7.47327C47.9053 7.47327 48.3996 7.67173 48.7738 8.06953C49.1293 8.45607 49.308 8.95527 49.308 9.5654ZM48.3418 9.59487C48.3418 9.21787 48.2582 8.8946 48.092 8.62507C47.8965 8.2992 47.6182 8.13627 47.2565 8.13627C46.8822 8.13627 46.5978 8.2992 46.4022 8.62507C46.2351 8.8946 46.1525 9.22307 46.1525 9.61133C46.1525 9.98833 46.236 10.3116 46.4022 10.5811C46.604 10.907 46.8849 11.0699 47.2476 11.0699C47.6031 11.0699 47.8822 10.9044 48.0831 10.5725C48.2556 10.2977 48.3418 9.97187 48.3418 9.59487Z" fill="white"/>
<path d="M56.2911 7.55646L54.98 11.6419H54.1267L53.5836 9.86786C53.4458 9.42499 53.3338 8.98472 53.2467 8.54792H53.2298C53.1489 8.99686 53.0369 9.43626 52.8929 9.86786L52.316 11.6419H51.4529L50.22 7.55646H51.1773L51.6511 9.49866C51.7658 9.95799 51.86 10.3957 51.9356 10.8099H51.9524C52.0218 10.4685 52.1364 10.0334 52.2982 9.50733L52.8929 7.55732H53.652L54.2218 9.46572C54.3596 9.93113 54.4716 10.3792 54.5578 10.8108H54.5836C54.6467 10.3905 54.7418 9.94239 54.868 9.46572L55.3764 7.55732H56.2911V7.55646Z" fill="white"/>
<path d="M61.1204 11.6419H60.1889V9.30194C60.1889 8.58087 59.908 8.22034 59.3445 8.22034C59.068 8.22034 58.8449 8.31914 58.6716 8.51761C58.5 8.71607 58.4129 8.95007 58.4129 9.21787V11.6411H57.4813V8.72387C57.4813 8.36507 57.4698 7.97594 57.4476 7.55474H58.2662L58.3098 8.19347H58.3356C58.444 7.99501 58.6058 7.83121 58.8182 7.70034C59.0707 7.54781 59.3533 7.47067 59.6627 7.47067C60.0538 7.47067 60.3791 7.59374 60.6378 7.84074C60.9596 8.14321 61.1204 8.59474 61.1204 9.19447V11.6419Z" fill="white"/>
<path d="M63.6894 11.6419H62.7587V5.68185H63.6894V11.6419Z" fill="white"/>
<path d="M69.1738 9.5654C69.1738 10.1937 68.9898 10.7085 68.6218 11.1124C68.236 11.5275 67.724 11.7347 67.0867 11.7347C66.4707 11.7347 65.9809 11.5362 65.6165 11.1375C65.252 10.7397 65.0698 10.2379 65.0698 9.633C65.0698 9.00033 65.2574 8.4812 65.6342 8.0782C66.0111 7.6752 66.5178 7.47327 67.1551 7.47327C67.7711 7.47327 68.2645 7.67173 68.6396 8.06953C68.9951 8.45607 69.1738 8.95527 69.1738 9.5654ZM68.2067 9.59487C68.2067 9.21787 68.1231 8.8946 67.9569 8.62507C67.7622 8.2992 67.4831 8.13627 67.1222 8.13627C66.7471 8.13627 66.4627 8.2992 66.268 8.62507C66.1009 8.8946 66.0182 9.22307 66.0182 9.61133C66.0182 9.98833 66.1018 10.3116 66.268 10.5811C66.4698 10.907 66.7507 11.0699 67.1134 11.0699C67.4689 11.0699 67.7471 10.9044 67.948 10.5725C68.1213 10.2977 68.2067 9.97187 68.2067 9.59487Z" fill="white"/>
<path d="M73.6822 11.6419H72.8458L72.7765 11.1713H72.7507C72.4645 11.5466 72.0565 11.7347 71.5267 11.7347C71.1311 11.7347 70.8111 11.6107 70.5703 11.3646C70.3516 11.141 70.2422 10.8628 70.2422 10.5326C70.2422 10.0334 70.4556 9.65293 70.8849 9.38947C71.3134 9.126 71.916 8.99687 72.692 9.00293V8.92667C72.692 8.38847 72.4022 8.1198 71.8218 8.1198C71.4085 8.1198 71.044 8.2212 70.7294 8.42227L70.54 7.826C70.9294 7.59113 71.4102 7.47327 71.9774 7.47327C73.0725 7.47327 73.6218 8.0366 73.6218 9.16327V10.6678C73.6218 11.076 73.6422 11.401 73.6822 11.6419ZM72.7151 10.2379V9.60787C71.6876 9.59053 71.1738 9.86527 71.1738 10.4312C71.1738 10.6444 71.2325 10.8039 71.3525 10.9105C71.4725 11.0171 71.6254 11.0699 71.8076 11.0699C72.012 11.0699 72.2031 11.0067 72.3774 10.881C72.5525 10.7545 72.66 10.5941 72.7 10.3974C72.7098 10.3532 72.7151 10.2995 72.7151 10.2379Z" fill="white"/>
<path d="M78.9756 11.6419H78.1489L78.1054 10.9859H78.0796C77.8156 11.4851 77.3658 11.7347 76.7338 11.7347C76.2289 11.7347 75.8085 11.5414 75.4751 11.1549C75.1418 10.7683 74.9756 10.2665 74.9756 9.65032C74.9756 8.98905 75.156 8.45345 75.5187 8.04439C75.8698 7.66305 76.3 7.47239 76.812 7.47239C77.3747 7.47239 77.7685 7.65699 77.9925 8.02705H78.0102V5.68185H78.9427V10.5413C78.9427 10.9391 78.9534 11.3057 78.9756 11.6419ZM78.0102 9.91899V9.23779C78.0102 9.11992 78.0014 9.02459 77.9845 8.95179C77.932 8.73339 77.8191 8.54965 77.6476 8.40145C77.4742 8.25325 77.2654 8.17872 77.0245 8.17872C76.6769 8.17872 76.4049 8.31305 76.2049 8.58259C76.0067 8.85212 75.9062 9.19619 75.9062 9.61652C75.9062 10.0204 76.0014 10.348 76.1925 10.6002C76.3942 10.8689 76.6662 11.0032 77.0067 11.0032C77.3125 11.0032 77.5569 10.8914 77.7427 10.6669C77.9222 10.4598 78.0102 10.2102 78.0102 9.91899Z" fill="white"/>
<path d="M86.9427 9.5654C86.9427 10.1937 86.7587 10.7085 86.3907 11.1124C86.0049 11.5275 85.4947 11.7347 84.8556 11.7347C84.2414 11.7347 83.7516 11.5362 83.3854 11.1375C83.0209 10.7397 82.8387 10.2379 82.8387 9.633C82.8387 9.00033 83.0262 8.4812 83.4031 8.0782C83.78 7.6752 84.2867 7.47327 84.9258 7.47327C85.54 7.47327 86.0351 7.67173 86.4085 8.06953C86.764 8.45607 86.9427 8.95527 86.9427 9.5654ZM85.9773 9.59487C85.9773 9.21787 85.8938 8.8946 85.7276 8.62507C85.5311 8.2992 85.2538 8.13627 84.8911 8.13627C84.5178 8.13627 84.2333 8.2992 84.0369 8.62507C83.8698 8.8946 83.7871 9.22307 83.7871 9.61133C83.7871 9.98833 83.8707 10.3116 84.0369 10.5811C84.2387 10.907 84.5196 11.0699 84.8822 11.0699C85.2378 11.0699 85.5178 10.9044 85.7187 10.5725C85.8902 10.2977 85.9773 9.97187 85.9773 9.59487Z" fill="white"/>
<path d="M91.9516 11.6419H91.0209V9.30194C91.0209 8.58087 90.74 8.22034 90.1756 8.22034C89.8991 8.22034 89.676 8.31914 89.5036 8.51761C89.3311 8.71607 89.2449 8.95007 89.2449 9.21787V11.6411H88.3125V8.72387C88.3125 8.36507 88.3018 7.97594 88.2796 7.55474H89.0973L89.1409 8.19347H89.1667C89.276 7.99501 89.4378 7.83121 89.6493 7.70034C89.9027 7.54781 90.1845 7.47067 90.4947 7.47067C90.8849 7.47067 91.2102 7.59374 91.4689 7.84074C91.7916 8.14321 91.9516 8.59474 91.9516 9.19447V11.6419Z" fill="white"/>
<path d="M98.2209 8.2368H97.1951V10.2215C97.1951 10.7259 97.3774 10.9781 97.7382 10.9781C97.9054 10.9781 98.044 10.9642 98.1534 10.9356L98.1774 11.6246C97.9934 11.6922 97.7516 11.726 97.4538 11.726C97.0858 11.726 96.7996 11.6168 96.5925 11.3984C96.3845 11.18 96.2814 10.8125 96.2814 10.2969V8.2368H95.6689V7.55647H96.2814V6.80767L97.1942 6.539V7.5556H98.22V8.2368H98.2209Z" fill="white"/>
<path d="M103.152 11.6419H102.22V9.31926C102.22 8.58692 101.939 8.22032 101.376 8.22032C100.944 8.22032 100.649 8.43266 100.488 8.85732C100.46 8.94659 100.444 9.05579 100.444 9.18406V11.6411H99.5133V5.68185H100.444V8.14406H100.462C100.755 7.69599 101.176 7.47239 101.72 7.47239C102.106 7.47239 102.425 7.59545 102.679 7.84245C102.994 8.15012 103.152 8.60772 103.152 9.21266V11.6419Z" fill="white"/>
<path d="M108.24 9.40592C108.24 9.56885 108.227 9.70579 108.205 9.81759H105.411C105.424 10.2215 105.557 10.5291 105.816 10.7423C106.052 10.933 106.357 11.0283 106.73 11.0283C107.144 11.0283 107.52 10.9642 107.86 10.8351L108.006 11.466C107.608 11.6341 107.141 11.7182 106.6 11.7182C105.951 11.7182 105.44 11.5319 105.07 11.1592C104.698 10.7865 104.514 10.2865 104.514 9.65899C104.514 9.04279 104.686 8.52972 105.032 8.12065C105.392 7.68385 105.88 7.46545 106.496 7.46545C107.099 7.46545 107.557 7.68385 107.866 8.12065C108.116 8.46732 108.24 8.89632 108.24 9.40592ZM107.351 9.17105C107.358 8.90152 107.296 8.66925 107.17 8.47339C107.008 8.22119 106.762 8.09465 106.429 8.09465C106.125 8.09465 105.877 8.21772 105.688 8.46472C105.533 8.66145 105.441 8.89632 105.411 9.17105H107.351Z" fill="white"/>
<path d="M48.1844 27.3034H46.1658L45.06 23.9156H41.2164L40.1631 27.3034H38.1978L42.0058 15.7698H44.3578L48.1844 27.3034ZM44.7267 22.4943L43.7267 19.4826C43.6209 19.175 43.4227 18.4504 43.1302 17.3099H43.0947C42.9782 17.8004 42.7907 18.525 42.5329 19.4826L41.5507 22.4943H44.7267Z" fill="white"/>
<path d="M57.9773 23.0429C57.9773 24.4573 57.5853 25.5753 56.8013 26.3961C56.0991 27.1267 55.2271 27.4915 54.1862 27.4915C53.0627 27.4915 52.2556 27.0981 51.764 26.3111H51.7285V30.6921H49.8333V21.7247C49.8333 20.8355 49.8093 19.9229 49.7631 18.9869H51.4298L51.5356 20.3051H51.5711C52.2031 19.3119 53.1622 18.8162 54.4493 18.8162C55.4556 18.8162 56.2956 19.2036 56.9676 19.9793C57.6413 20.7558 57.9773 21.7767 57.9773 23.0429ZM56.0467 23.1105C56.0467 22.3011 55.86 21.6337 55.4849 21.1085C55.0751 20.5608 54.5249 20.2869 53.8351 20.2869C53.3676 20.2869 52.9427 20.4395 52.5631 20.7402C52.1827 21.0435 51.9338 21.4396 51.8173 21.9301C51.7587 22.1589 51.7293 22.3461 51.7293 22.4935V23.8801C51.7293 24.4851 51.9196 24.9955 52.3 25.4124C52.6805 25.8293 53.1747 26.0373 53.7827 26.0373C54.4965 26.0373 55.052 25.7686 55.4493 25.233C55.8476 24.6965 56.0467 23.9893 56.0467 23.1105Z" fill="white"/>
<path d="M67.788 23.0429C67.788 24.4573 67.396 25.5753 66.6111 26.3961C65.9098 27.1267 65.0378 27.4915 63.9969 27.4915C62.8733 27.4915 62.0662 27.0981 61.5756 26.3111H61.54V30.6921H59.6449V21.7247C59.6449 20.8355 59.6209 19.9229 59.5747 18.9869H61.2413L61.3471 20.3051H61.3827C62.0138 19.3119 62.9729 18.8162 64.2609 18.8162C65.2662 18.8162 66.1062 19.2036 66.78 19.9793C67.4511 20.7558 67.788 21.7767 67.788 23.0429ZM65.8573 23.1105C65.8573 22.3011 65.6698 21.6337 65.2947 21.1085C64.8849 20.5608 64.3365 20.2869 63.6458 20.2869C63.1773 20.2869 62.7533 20.4395 62.3729 20.7402C61.9925 21.0435 61.7445 21.4396 61.628 21.9301C61.5702 22.1589 61.54 22.3461 61.54 22.4935V23.8801C61.54 24.4851 61.7302 24.9955 62.1089 25.4124C62.4893 25.8284 62.9836 26.0373 63.5933 26.0373C64.3071 26.0373 64.8627 25.7686 65.26 25.233C65.6582 24.6965 65.8573 23.9893 65.8573 23.1105Z" fill="white"/>
<path d="M78.7569 24.0691C78.7569 25.0501 78.4076 25.8483 77.7062 26.4645C76.9356 27.1379 75.8627 27.4742 74.484 27.4742C73.2111 27.4742 72.1907 27.235 71.4182 26.7557L71.8574 25.2157C72.6894 25.7062 73.6022 25.9523 74.5969 25.9523C75.3107 25.9523 75.8662 25.7946 76.2654 25.4809C76.6627 25.1671 76.8609 24.7459 76.8609 24.2207C76.8609 23.7527 76.6974 23.3584 76.3694 23.0386C76.0431 22.7188 75.4982 22.4215 74.7374 22.1468C72.6662 21.3937 71.6316 20.2904 71.6316 18.8396C71.6316 17.8915 71.9942 17.1141 72.7205 16.5091C73.444 15.9033 74.4094 15.6009 75.6165 15.6009C76.6929 15.6009 77.5871 15.7837 78.3009 16.1486L77.8271 17.6549C77.1605 17.3013 76.4067 17.1245 75.5631 17.1245C74.8965 17.1245 74.3756 17.2848 74.0022 17.6037C73.6867 17.8889 73.5285 18.2364 73.5285 18.6481C73.5285 19.1039 73.7089 19.4809 74.0716 19.7773C74.3871 20.0512 74.9605 20.3476 75.7925 20.6674C76.8102 21.0669 77.5578 21.5341 78.0387 22.0697C78.5178 22.6035 78.7569 23.2717 78.7569 24.0691Z" fill="white"/>
<path d="M85.0227 20.3736H82.9338V24.4114C82.9338 25.4384 83.3018 25.9514 84.0396 25.9514C84.3782 25.9514 84.6591 25.9228 84.8813 25.8656L84.9338 27.2688C84.5604 27.4048 84.0689 27.4733 83.46 27.4733C82.7116 27.4733 82.1267 27.2506 81.7044 26.806C81.284 26.3605 81.0724 25.6134 81.0724 24.5639V20.3718H79.828V18.9852H81.0724V17.4624L82.9338 16.9147V18.9852H85.0227V20.3736Z" fill="white"/>
<path d="M94.4476 23.0767C94.4476 24.355 94.0725 25.4046 93.324 26.2253C92.5391 27.0703 91.4973 27.4915 90.1987 27.4915C88.9471 27.4915 87.9507 27.0868 87.2076 26.2773C86.4644 25.4678 86.0929 24.446 86.0929 23.2145C86.0929 21.9258 86.4751 20.8702 87.2422 20.0494C88.0076 19.2278 89.0405 18.817 90.3391 18.817C91.5907 18.817 92.5978 19.2218 93.3578 20.0321C94.0849 20.8182 94.4476 21.833 94.4476 23.0767ZM92.4813 23.1365C92.4813 22.3695 92.3133 21.7117 91.9729 21.1631C91.5756 20.4992 91.0076 20.1682 90.2716 20.1682C89.5098 20.1682 88.9311 20.5001 88.5338 21.1631C88.1933 21.7126 88.0253 22.3808 88.0253 23.1712C88.0253 23.9382 88.1933 24.596 88.5338 25.1437C88.9436 25.8076 89.516 26.1386 90.2547 26.1386C90.9782 26.1386 91.5462 25.8006 91.956 25.1264C92.3053 24.5674 92.4813 23.9026 92.4813 23.1365Z" fill="white"/>
<path d="M100.608 20.6119C100.42 20.5781 100.22 20.5608 100.01 20.5608C99.3436 20.5608 98.828 20.8061 98.4654 21.2975C98.1498 21.7308 97.9916 22.2785 97.9916 22.9398V27.3035H96.0973L96.1151 21.606C96.1151 20.6475 96.0911 19.7747 96.044 18.9878H97.6947L97.764 20.579H97.8165C98.0165 20.0321 98.332 19.5919 98.764 19.2617C99.1862 18.9644 99.6422 18.8162 100.134 18.8162C100.309 18.8162 100.467 18.8283 100.608 18.85V20.6119Z" fill="white"/>
<path d="M109.083 22.7517C109.083 23.0828 109.061 23.3619 109.014 23.5898H103.328C103.351 24.4114 103.625 25.0397 104.153 25.4731C104.632 25.8605 105.252 26.0546 106.013 26.0546C106.855 26.0546 107.623 25.9237 108.313 25.6611L108.61 26.9438C107.803 27.287 106.85 27.4577 105.751 27.4577C104.428 27.4577 103.39 27.0781 102.634 26.3198C101.88 25.5615 101.503 24.5431 101.503 23.2657C101.503 22.0116 101.854 20.9673 102.557 20.1344C103.293 19.2452 104.288 18.8006 105.539 18.8006C106.768 18.8006 107.699 19.2452 108.331 20.1344C108.832 20.8407 109.083 21.7143 109.083 22.7517ZM107.276 22.2725C107.288 21.7247 107.165 21.2515 106.908 20.852C106.58 20.3381 106.076 20.0815 105.398 20.0815C104.778 20.0815 104.274 20.332 103.889 20.8347C103.574 21.2342 103.386 21.7135 103.328 22.2716H107.276V22.2725Z" fill="white"/>
</svg>
