<svg width="384" height="353" viewBox="0 0 384 353" fill="none" xmlns="http://www.w3.org/2000/svg">
<path d="M368 269.669H16V269.845H368V269.669Z" fill="#EBEBEB"/>
<path d="M182.859 238.271H46.9169C44.7014 238.271 42.8984 236.469 42.8984 234.253V43.1649C42.8984 40.9494 44.7014 39.1465 46.9169 39.1465H182.859C185.073 39.1465 186.876 40.9494 186.876 43.1649V234.253C186.876 236.469 185.073 238.271 182.859 238.271ZM46.9169 39.3232C44.7978 39.3232 43.0744 41.0466 43.0744 43.1656V234.254C43.0744 236.373 44.7978 238.096 46.9169 238.096H182.859C184.977 238.096 186.7 236.373 186.7 234.254V43.1649C186.7 41.0466 184.977 39.3225 182.859 39.3225L46.9169 39.3232Z" fill="#EBEBEB"/>
<path d="M335.131 238.271H199.19C196.974 238.271 195.172 236.469 195.172 234.253V43.1649C195.172 40.9494 196.975 39.1465 199.19 39.1465H335.131C337.347 39.1465 339.149 40.9494 339.149 43.1649V234.253C339.15 236.469 337.347 238.271 335.131 238.271ZM199.19 39.3232C197.071 39.3232 195.348 41.0466 195.348 43.1656V234.254C195.348 236.373 197.071 238.096 199.19 238.096H335.131C337.25 238.096 338.973 236.373 338.973 234.254V43.1649C338.973 41.0466 337.25 39.3225 335.131 39.3225L199.19 39.3232Z" fill="#EBEBEB"/>
<path d="M332.73 281H314.428V281.176H332.73V281Z" fill="#EBEBEB"/>
<path d="M266.642 282.911H234.943V283.087H266.642V282.911Z" fill="#EBEBEB"/>
<path d="M313.723 274.463H270.926V274.639H313.723V274.463Z" fill="#EBEBEB"/>
<path d="M66.4731 275.646H52.9316V275.822H66.4731V275.646Z" fill="#EBEBEB"/>
<path d="M111.666 275.646H72.7402V275.822H111.666V275.646Z" fill="#EBEBEB"/>
<path d="M187.87 278.618H135.445V278.794H187.87V278.618Z" fill="#EBEBEB"/>
<path d="M282.535 266.063H288.164V161.834H282.535V266.063Z" fill="#F0F0F0"/>
<path d="M255.497 269.658H286.678V266.062H255.497V269.658Z" fill="#F0F0F0"/>
<path d="M282.534 161.833H254.012V266.062H282.534V161.833Z" fill="#F5F5F5"/>
<path d="M279.493 216.107H257.053V234.719H279.493V216.107Z" fill="#F0F0F0"/>
<path d="M279.493 240.466H257.053V259.077H279.493V240.466Z" fill="#F0F0F0"/>
<path d="M265.284 226.689H271.263C271.72 226.689 272.093 226.316 272.093 225.859V224.966C272.093 224.51 271.72 224.137 271.263 224.137H265.284C264.828 224.137 264.455 224.51 264.455 224.966V225.859C264.455 226.315 264.828 226.689 265.284 226.689Z" fill="#F5F5F5"/>
<path d="M265.284 251.048H271.263C271.72 251.048 272.093 250.675 272.093 250.219V249.325C272.093 248.869 271.72 248.496 271.263 248.496H265.284C264.828 248.496 264.455 248.869 264.455 249.325V250.219C264.455 250.675 264.828 251.048 265.284 251.048Z" fill="#F5F5F5"/>
<path d="M279.493 167.581H257.053V186.193H279.493V167.581Z" fill="#F0F0F0"/>
<path d="M279.493 191.748H257.053V210.36H279.493V191.748Z" fill="#F0F0F0"/>
<path d="M265.284 178.163H271.263C271.72 178.163 272.093 177.79 272.093 177.334V176.441C272.093 175.984 271.72 175.611 271.263 175.611H265.284C264.828 175.611 264.455 175.984 264.455 176.441V177.334C264.455 177.79 264.828 178.163 265.284 178.163Z" fill="#F5F5F5"/>
<path d="M265.284 202.33H271.263C271.72 202.33 272.093 201.956 272.093 201.5V200.608C272.093 200.151 271.72 199.778 271.263 199.778H265.284C264.828 199.778 264.455 200.151 264.455 200.608V201.5C264.455 201.956 264.828 202.33 265.284 202.33Z" fill="#F5F5F5"/>
<path d="M313.747 266.063H330.641V161.834H313.747V266.063Z" fill="#F0F0F0"/>
<path d="M286.709 269.658H328.912V266.062H286.709V269.658Z" fill="#F0F0F0"/>
<path d="M313.747 161.833H285.225V266.062H313.747V161.833Z" fill="#F5F5F5"/>
<path d="M310.706 216.107H288.266V234.719H310.706V216.107Z" fill="#F0F0F0"/>
<path d="M310.706 240.466H288.266V259.077H310.706V240.466Z" fill="#F0F0F0"/>
<path d="M296.497 226.689H302.476C302.933 226.689 303.306 226.316 303.306 225.859V224.966C303.306 224.51 302.933 224.137 302.476 224.137H296.497C296.041 224.137 295.668 224.51 295.668 224.966V225.859C295.667 226.315 296.041 226.689 296.497 226.689Z" fill="#F5F5F5"/>
<path d="M296.497 251.048H302.476C302.933 251.048 303.306 250.675 303.306 250.219V249.325C303.306 248.869 302.933 248.496 302.476 248.496H296.497C296.041 248.496 295.668 248.869 295.668 249.325V250.219C295.667 250.675 296.041 251.048 296.497 251.048Z" fill="#F5F5F5"/>
<path d="M310.706 167.581H288.266V186.193H310.706V167.581Z" fill="#F0F0F0"/>
<path d="M310.706 191.748H288.266V210.36H310.706V191.748Z" fill="#F0F0F0"/>
<path d="M296.497 178.163H302.476C302.933 178.163 303.306 177.79 303.306 177.334V176.441C303.306 175.984 302.933 175.611 302.476 175.611H296.497C296.041 175.611 295.668 175.984 295.668 176.441V177.334C295.667 177.79 296.041 178.163 296.497 178.163Z" fill="#F5F5F5"/>
<path d="M296.497 202.33H302.476C302.933 202.33 303.306 201.956 303.306 201.5V200.608C303.306 200.151 302.933 199.778 302.476 199.778H296.497C296.041 199.778 295.668 200.151 295.668 200.608V201.5C295.667 201.956 296.041 202.33 296.497 202.33Z" fill="#F5F5F5"/>
<path d="M222.012 140.078H316.85V56.8224L222.012 56.8224V140.078Z" fill="#E6E6E6"/>
<path d="M211.849 53.584H322.989C323.508 53.584 323.93 54.0057 323.93 54.5252C323.93 55.0455 323.508 55.4665 322.989 55.4665H211.849C211.329 55.4665 210.908 55.0448 210.908 54.5252C210.908 54.005 211.329 53.584 211.849 53.584Z" fill="#E6E6E6"/>
<path d="M217.988 140.078H314.969V56.8224L217.988 56.8224V140.078Z" fill="#F0F0F0"/>
<path d="M222.013 140.078H316.85V142.746H219.24L222.013 140.078Z" fill="#E6E6E6"/>
<path d="M211.284 140.078H308.265L305.493 142.746H208.512L211.284 140.078Z" fill="#F0F0F0"/>
<path d="M309.336 134.445V62.457L223.623 62.457V134.445H309.336Z" fill="#FAFAFA"/>
<path d="M289.878 134.444L256.812 62.4561H241.203L274.269 134.444H289.878Z" fill="white"/>
<path d="M270.915 134.444L237.849 62.4561H231.764L264.83 134.444H270.915Z" fill="white"/>
<path d="M224.338 134.444V62.4561H223.623V134.444H224.338Z" fill="#E6E6E6"/>
<g opacity="0.4">
<path d="M309.269 120.604H318.965V51.8987H309.269V120.604Z" fill="#F0F0F0"/>
<path d="M305.493 120.604H313.047V51.8987H305.493V120.604Z" fill="#E6E6E6"/>
<path d="M299.573 120.604H309.27V51.8987H299.573V120.604Z" fill="#F0F0F0"/>
<path d="M295.798 120.604H303.352V51.8987H295.798V120.604Z" fill="#E6E6E6"/>
<path d="M289.876 120.604H299.572V51.8987H289.876V120.604Z" fill="#F0F0F0"/>
</g>
<g opacity="0.4">
<path d="M227.231 120.604H232.818V51.8987H227.231V120.604Z" fill="#F0F0F0"/>
<path d="M225.053 120.604H229.406V51.8987H225.053V120.604Z" fill="#E6E6E6"/>
<path d="M221.643 120.604H227.23V51.8987H221.643V120.604Z" fill="#F0F0F0"/>
<path d="M219.466 120.604H223.818V51.8987H219.466V120.604Z" fill="#E6E6E6"/>
<path d="M216.055 120.604H221.643V51.8987H216.055V120.604Z" fill="#F0F0F0"/>
</g>
<path d="M131.607 107.255H145.031L143.446 73.2236H131.607V107.255Z" fill="#F5F5F5"/>
<path d="M152.61 109.096L155.505 124.213H152.61L134.861 109.096H152.61Z" fill="#F5F5F5"/>
<path d="M155.506 109.096V124.213L137.758 109.096H155.506Z" fill="#E6E6E6"/>
<path d="M83.0083 109.096L85.9039 124.213H83.0083L65.2598 109.096H83.0083Z" fill="#F5F5F5"/>
<path d="M85.9048 109.096V124.213L68.1562 109.096H85.9048Z" fill="#E6E6E6"/>
<path d="M168.533 107.307H149.23V109.487H168.533V107.307Z" fill="#E6E6E6"/>
<path d="M53.2612 109.487L149.23 109.487V107.307L53.2612 107.307V109.487Z" fill="#F5F5F5"/>
<path d="M111.893 107.255H140.704L144.266 66.0166H115.455L111.893 107.255Z" fill="#E6E6E6"/>
<path d="M110.4 107.255H139.212L142.774 66.0166H113.963L110.4 107.255Z" fill="#F0F0F0"/>
<path d="M136.791 102.689L140.049 70.5811H116.383L113.125 102.689H136.791Z" fill="white"/>
<path d="M98.9961 107.255H108.238L107.148 83.8232H98.9961V107.255Z" fill="#E0E0E0"/>
<path d="M85.418 107.255H105.256L107.709 78.8604H87.8707L85.418 107.255Z" fill="#F0F0F0"/>
<path d="M84.3906 107.255H104.229L106.681 78.8604H86.8441L84.3906 107.255Z" fill="#F5F5F5"/>
<path d="M102.563 104.112L104.807 82.0039H88.5105L86.2676 104.112H102.563Z" fill="#E0E0E0"/>
<path d="M200.702 166.913C200.883 169.109 199.249 171.035 197.053 171.216C194.857 171.397 192.93 169.763 192.75 167.568C192.569 165.372 194.203 163.445 196.399 163.265C198.595 163.084 200.521 164.718 200.702 166.913Z" fill="#E0E0E0"/>
<path d="M208.114 168.999C208.295 171.195 206.661 173.121 204.465 173.302C202.269 173.483 200.343 171.849 200.162 169.653C199.981 167.458 201.615 165.531 203.811 165.351C206.007 165.17 207.934 166.804 208.114 168.999Z" fill="#E0E0E0"/>
<path d="M213.471 166.617C213.652 168.812 212.018 170.739 209.822 170.919C207.627 171.1 205.7 169.466 205.52 167.271C205.339 165.075 206.973 163.149 209.168 162.968C211.364 162.787 213.29 164.42 213.471 166.617Z" fill="#E0E0E0"/>
<path d="M219.126 168.094C219.306 170.29 217.672 172.217 215.477 172.397C213.281 172.578 211.355 170.944 211.174 168.748C210.993 166.552 212.627 164.626 214.823 164.445C217.018 164.265 218.945 165.898 219.126 168.094Z" fill="#E0E0E0"/>
<path d="M224.203 168.737C224.203 168.737 223.739 179.818 205.937 179.818C188.135 179.818 187.67 168.737 187.67 168.737H224.203Z" fill="#F0F0F0"/>
<path d="M58.1561 269.668H64.623L64.623 179.819H58.1561L58.1561 269.668Z" fill="#E6E6E6"/>
<path d="M56.425 269.668H60.2344L60.2344 179.819H56.425L56.425 269.668Z" fill="#F0F0F0"/>
<path d="M147.088 179.818H55.2461V186.558H147.088V179.818Z" fill="#F0F0F0"/>
<path d="M234.074 269.668H240.541V179.819H234.074V269.668Z" fill="#E6E6E6"/>
<path d="M232.861 269.668H236.67V179.819H232.861V269.668Z" fill="#F0F0F0"/>
<path d="M241.697 179.818H149.855V186.558H241.697V179.818Z" fill="#E6E6E6"/>
<path d="M147.639 269.668H154.105V179.819H147.639V269.668Z" fill="#E6E6E6"/>
<path d="M145.907 269.668H149.717V179.819H145.907V269.668Z" fill="#F0F0F0"/>
<path d="M168.871 149.934H120.916L112.375 178.251H160.33L168.871 149.934Z" fill="#E6E6E6"/>
<path d="M160.329 178.251L160.135 179.817H112.178L112.371 178.251H160.329Z" fill="#E6E6E6"/>
<path d="M167.394 149.934H119.439L110.898 178.251H158.854L167.394 149.934Z" fill="#F0F0F0"/>
<path d="M157.911 176.958L165.671 151.228H120.38L112.619 176.958H157.911Z" fill="white"/>
<path d="M146.358 178.251L146.164 179.817H93.3555L93.5491 178.251H146.358Z" fill="#F0F0F0"/>
<path d="M192 301.463C267.385 301.463 328.498 297.894 328.498 293.492C328.498 289.089 267.385 285.521 192 285.521C116.614 285.521 55.502 289.089 55.502 293.492C55.502 297.894 116.614 301.463 192 301.463Z" fill="#F5F5F5"/>
<path d="M241.742 77.3018H160.719C155.061 77.3018 150.13 81.932 149.763 87.5907L137.19 281.587C136.823 287.247 141.153 291.876 146.812 291.876H227.834C233.493 291.876 238.423 287.246 238.79 281.587L247.827 142.156C248.591 141.889 249.178 141.18 249.232 140.344L250.849 115.398C250.903 114.562 250.408 113.853 249.679 113.585L251.364 87.5907C251.731 81.9327 247.401 77.3018 241.742 77.3018Z" fill="#FF725E"/>
<path d="M143.204 127.532H144.79C145.795 127.532 146.67 126.71 146.735 125.706L147.41 115.292C147.474 114.287 146.706 113.466 145.702 113.466H144.116C143.111 113.466 142.236 114.287 142.171 115.292L141.496 125.706C141.431 126.71 142.199 127.532 143.204 127.532Z" fill="#FF725E"/>
<path d="M141.999 146.13H143.585C144.59 146.13 145.465 145.307 145.529 144.303L146.205 133.891C146.269 132.886 145.501 132.064 144.497 132.064H142.911C141.906 132.064 141.031 132.887 140.966 133.891L140.291 144.303C140.226 145.307 140.994 146.13 141.999 146.13Z" fill="#FF725E"/>
<path d="M223.529 291.877H142.507C136.848 291.877 132.518 287.247 132.885 281.588L145.458 87.5917C145.825 81.9329 150.755 77.3027 156.415 77.3027H237.437C243.096 77.3027 247.426 81.9329 247.059 87.5917L234.486 281.588C234.119 287.247 229.189 291.877 223.529 291.877Z" fill="#263238"/>
<path opacity="0.2" d="M188.546 283.617C191.384 280.87 191.597 276.487 189.022 273.828C186.448 271.168 182.06 271.239 179.222 273.987C176.384 276.734 176.171 281.117 178.746 283.776C181.321 286.436 185.708 286.365 188.546 283.617Z" fill="white"/>
<path d="M230.855 266.69H138.746C137.422 266.69 136.373 265.57 136.458 264.249L147.24 97.8797C147.319 96.6738 148.32 95.7354 149.528 95.7354H241.638C242.962 95.7354 244.011 96.8547 243.926 98.1761L233.143 264.545C233.064 265.751 232.064 266.69 230.855 266.69Z" fill="white"/>
<path opacity="0.2" d="M205.168 201.109C215.47 191.136 216.243 175.224 206.895 165.568C197.547 155.913 181.618 156.171 171.317 166.144C161.015 176.117 160.242 192.029 169.59 201.685C178.937 211.34 194.866 211.083 205.168 201.109Z" fill="#407BFF"/>
<path opacity="0.2" d="M185.715 222.404C164.333 222.404 148.065 205.009 149.452 183.627C150.837 162.245 169.36 144.85 190.742 144.85C212.123 144.85 228.391 162.245 227.005 183.627C225.619 205.009 207.096 222.404 185.715 222.404ZM190.696 145.554C169.703 145.554 151.516 162.633 150.156 183.627C148.795 204.62 164.768 221.7 185.761 221.7C206.754 221.7 224.94 204.621 226.301 183.627C227.662 162.633 211.689 145.554 190.696 145.554Z" fill="#407BFF"/>
<path opacity="0.2" d="M181.227 88.3663C182.377 87.2533 182.463 85.4779 181.42 84.4007C180.377 83.3235 178.6 83.3524 177.451 84.4653C176.301 85.5783 176.215 87.3537 177.257 88.4309C178.3 89.5081 180.078 89.4792 181.227 88.3663Z" fill="white"/>
<path opacity="0.2" d="M189.199 83.6162H212.497C214.039 83.6162 215.219 84.8785 215.119 86.4202C215.019 87.9627 213.675 89.2243 212.133 89.2243H188.835C187.293 89.2243 186.113 87.962 186.213 86.4202C186.313 84.8778 187.657 83.6162 189.199 83.6162Z" fill="white"/>
<path d="M187.445 143.304C164.418 145.268 147.342 165.527 149.306 188.555C149.795 194.287 151.419 199.65 153.936 204.443L157 208.5L161.003 214.172C169 223 181.559 227.802 194.557 226.694C217.584 224.73 234.66 204.471 232.696 181.444C230.732 158.416 210.472 141.34 187.445 143.304Z" fill="white"/>
<path d="M187.449 143.305C187.449 143.305 187.687 143.281 188.153 143.249C188.387 143.233 188.676 143.213 189.02 143.19C189.365 143.162 189.765 143.143 190.221 143.144C190.677 143.137 191.187 143.131 191.748 143.124C192.31 143.146 192.925 143.169 193.59 143.194C194.255 143.227 194.969 143.31 195.733 143.372C196.495 143.462 197.304 143.578 198.159 143.71C199.861 144.018 201.745 144.431 203.753 145.07C205.757 145.718 207.893 146.56 210.085 147.677C214.464 149.899 219.088 153.262 223.092 158.004C225.091 160.368 226.937 163.065 228.452 166.091C229.975 169.109 231.216 172.432 231.977 175.998C233.571 183.098 233.321 191.186 230.594 198.93C227.888 206.653 222.669 213.995 215.38 219.173C213.575 220.485 211.627 221.629 209.596 222.636C207.56 223.634 205.438 224.508 203.228 225.162C201.021 225.823 198.746 226.312 196.431 226.621C194.115 226.936 191.757 227.003 189.394 226.944C183.89 226.75 178.526 225.418 173.669 223.23C168.811 221.026 164.501 217.908 160.914 214.263L161.019 214.302C157.283 214.619 153.614 214.931 150.014 215.237L149.815 215.254L149.884 215.066C151.229 211.426 152.543 207.872 153.826 204.4L153.833 204.5C151.01 199.109 149.485 193.325 149.149 187.755C148.778 182.18 149.543 176.823 151.092 172.06C152.656 167.293 154.973 163.125 157.604 159.649C158.934 157.919 160.339 156.358 161.767 154.951C163.213 153.561 164.684 152.33 166.146 151.244C169.084 149.092 171.982 147.551 174.596 146.442C177.214 145.333 179.555 144.668 181.469 144.215C182.433 144.013 183.282 143.818 184.028 143.719C184.772 143.602 185.397 143.495 185.907 143.455C186.412 143.404 186.796 143.364 187.06 143.337C187.317 143.313 187.449 143.305 187.449 143.305C187.449 143.305 187.318 143.326 187.06 143.358C186.798 143.39 186.414 143.435 185.91 143.496C185.402 143.543 184.778 143.656 184.037 143.779C183.293 143.884 182.446 144.086 181.486 144.293C179.577 144.757 177.246 145.432 174.639 146.549C172.037 147.666 169.154 149.211 166.233 151.364C164.78 152.45 163.318 153.68 161.88 155.069C160.461 156.474 159.066 158.032 157.745 159.758C155.132 163.225 152.835 167.379 151.287 172.124C149.752 176.866 148.999 182.197 149.375 187.741C149.715 193.281 151.238 199.03 154.049 204.386L154.074 204.435L154.055 204.486C152.775 207.958 151.464 211.514 150.121 215.155L149.991 214.985C153.591 214.677 157.26 214.363 160.995 214.043L161.057 214.038L161.1 214.082C164.667 217.702 168.95 220.8 173.779 222.989C178.605 225.162 183.934 226.485 189.404 226.678C191.752 226.736 194.095 226.67 196.396 226.357C198.697 226.05 200.957 225.565 203.151 224.908C205.347 224.259 207.456 223.391 209.479 222.4C211.497 221.4 213.433 220.263 215.228 218.961C222.474 213.818 227.666 206.524 230.361 198.849C233.079 191.153 233.337 183.111 231.761 176.046C231.009 172.498 229.778 169.19 228.268 166.185C226.766 163.171 224.933 160.483 222.947 158.125C218.972 153.397 214.375 150.037 210.018 147.81C207.836 146.691 205.711 145.845 203.715 145.191C201.715 144.547 199.838 144.128 198.141 143.813C197.289 143.677 196.482 143.558 195.723 143.463C194.96 143.397 194.249 143.311 193.585 143.273C192.922 143.243 192.308 143.216 191.748 143.191C191.187 143.193 190.678 143.195 190.223 143.197C189.768 143.192 189.368 143.207 189.023 143.231C188.679 143.249 188.39 143.264 188.156 143.277C187.689 143.3 187.449 143.305 187.449 143.305Z" fill="#263238"/>
<path d="M218.5 212.5C233.688 197.312 233.688 172.688 218.5 157.5C203.312 142.312 178.688 142.312 163.5 157.5C148.312 172.688 148.312 197.312 163.5 212.5C178.688 227.688 203.312 227.688 218.5 212.5Z" fill="#FF725E"/>
<path d="M215.752 209.751C229.422 196.081 229.421 173.918 215.751 160.248C202.081 146.578 179.918 146.577 166.248 160.247C152.578 173.917 152.578 196.081 166.248 209.751C179.918 223.421 202.082 223.421 215.752 209.751Z" fill="white"/>
<path d="M225.879 182.025C225.879 182.025 225.848 181.835 225.803 181.462C225.747 181.091 225.713 180.532 225.584 179.811C225.37 178.364 224.944 176.238 224.048 173.607C223.132 170.99 221.704 167.863 219.396 164.659C217.092 161.467 213.901 158.194 209.705 155.529C207.616 154.191 205.271 153.032 202.72 152.126C200.17 151.222 197.411 150.557 194.506 150.286C191.605 150.004 188.565 150.055 185.499 150.559C183.961 150.783 182.429 151.167 180.896 151.609C179.368 152.075 177.854 152.653 176.362 153.331C170.419 156.075 164.946 160.72 161.239 166.83C160.297 168.345 159.498 169.963 158.794 171.632C158.089 173.302 157.52 175.046 157.098 176.838C156.221 180.416 155.955 184.189 156.255 187.957C156.596 191.724 157.497 195.398 158.967 198.777C159.685 200.473 160.542 202.096 161.52 203.623C162.496 205.15 163.558 206.61 164.742 207.944C169.431 213.34 175.612 216.991 181.935 218.69C183.52 219.105 185.11 219.42 186.696 219.62C188.282 219.796 189.857 219.915 191.411 219.875C194.519 219.853 197.524 219.388 200.335 218.618C203.152 217.86 205.758 216.736 208.119 215.413C210.48 214.089 212.594 212.548 214.427 210.876C218.11 207.539 220.701 203.773 222.431 200.237C224.163 196.687 225.041 193.365 225.5 190.631C225.937 187.886 225.998 185.718 225.963 184.257C225.968 183.524 225.907 182.968 225.899 182.593C225.881 182.218 225.879 182.025 225.879 182.025C225.879 182.025 225.964 182.791 226.017 184.256C226.069 185.719 226.025 187.892 225.603 190.648C225.158 193.392 224.292 196.732 222.566 200.302C220.841 203.859 218.249 207.652 214.554 211.017C212.715 212.702 210.593 214.256 208.22 215.593C205.848 216.929 203.228 218.064 200.394 218.832C197.566 219.611 194.542 220.084 191.414 220.11C189.85 220.152 188.264 220.035 186.666 219.859C185.07 219.66 183.468 219.345 181.871 218.929C175.501 217.225 169.272 213.551 164.545 208.117C163.351 206.774 162.281 205.303 161.297 203.765C160.311 202.227 159.447 200.592 158.722 198.883C157.24 195.478 156.332 191.775 155.989 187.981C155.686 184.184 155.955 180.382 156.839 176.776C157.264 174.97 157.839 173.214 158.55 171.531C159.259 169.849 160.066 168.219 161.015 166.693C164.752 160.539 170.27 155.865 176.257 153.108C177.761 152.426 179.286 151.845 180.825 151.378C182.369 150.935 183.912 150.551 185.461 150.327C188.548 149.824 191.608 149.776 194.527 150.066C197.45 150.343 200.225 151.018 202.788 151.933C205.353 152.849 207.708 154.02 209.806 155.37C214.017 158.06 217.215 161.359 219.517 164.573C221.823 167.8 223.242 170.944 224.146 173.574C225.029 176.218 225.44 178.353 225.637 179.804C225.834 181.256 225.879 182.025 225.879 182.025Z" fill="#263238"/>
<path d="M161.66 206.007L219.65 162.626L222.224 165.374L164.061 209.055L161.66 206.007Z" fill="#FF725E"/>
<path d="M218.569 163.43C218.613 163.489 206.101 172.924 190.626 184.501C175.145 196.082 162.564 205.419 162.52 205.36C162.475 205.301 174.985 195.868 190.466 184.287C205.941 172.71 218.525 163.37 218.569 163.43Z" fill="#263238"/>
<path d="M220.768 166.468C220.812 166.527 208.332 175.989 192.895 187.599C177.454 199.213 164.904 208.577 164.859 208.518C164.815 208.459 177.293 198.999 192.734 187.385C208.171 175.775 220.723 166.409 220.768 166.468Z" fill="#263238"/>
</svg>
