<svg width="317" height="40" viewBox="0 0 317 40" fill="none" xmlns="http://www.w3.org/2000/svg">
<g clip-path="url(#clip0_1_4601)">
<path d="M1.43 20.6999C1.43 14.1499 5.37 9.65991 11.04 9.65991C14.1 9.65991 16.41 10.9599 17.75 13.2299V10.1199H23.12V31.2299H17.75V28.1199C16.41 30.3399 14.14 31.6899 10.99 31.6899C5.37 31.6899 1.43 27.2499 1.43 20.6999ZM17.83 20.6999C17.83 17.0099 15.56 14.5699 12.38 14.5699C9.15 14.5699 6.84 17.0499 6.84 20.6999C6.84 24.3099 9.15 26.8299 12.38 26.8299C15.57 26.8299 17.83 24.3899 17.83 20.6999Z" fill="#FDB615"/>
<path d="M26.98 20.7C26.98 14.15 30.92 9.65997 36.59 9.65997C39.65 9.65997 41.96 10.96 43.3 13.23V0.469971H48.67V31.23H43.3V28.12C41.96 30.34 39.69 31.69 36.54 31.69C30.93 31.69 26.98 27.25 26.98 20.7ZM43.39 20.7C43.39 17.01 41.12 14.57 37.94 14.57C34.71 14.57 32.4 17.05 32.4 20.7C32.4 24.31 34.71 26.83 37.94 26.83C41.12 26.83 43.39 24.39 43.39 20.7Z" fill="#FDB615"/>
<path d="M52.54 20.6999C52.54 14.1499 56.48 9.65991 62.15 9.65991C65.21 9.65991 67.52 10.9599 68.86 13.2299V10.1199H74.23V31.2299H68.86V28.1199C67.52 30.3399 65.25 31.6899 62.1 31.6899C56.48 31.6899 52.54 27.2499 52.54 20.6999ZM68.94 20.6999C68.94 17.0099 66.67 14.5699 63.49 14.5699C60.26 14.5699 57.95 17.0499 57.95 20.6999C57.95 24.3099 60.26 26.8299 63.49 26.8299C66.68 26.8299 68.94 24.3899 68.94 20.6999Z" fill="#FDB615"/>
<path d="M79.27 31.2299V10.1299H84.56V13.7399C85.82 11.1399 88.21 9.66992 91.11 9.66992C91.4 9.66992 91.82 9.70992 92.08 9.74992L92 15.3699C91.16 15.2399 90.66 15.1999 89.9 15.1999C86.54 15.1999 84.65 17.9299 84.65 21.4099V31.2299H79.27Z" fill="#FDB615"/>
<path d="M94.33 20.6999C94.33 14.1499 99.07 9.65991 105.41 9.65991C109.77 9.65991 113.3 11.7199 114.85 14.9899L110.19 17.5099C109.23 15.5799 107.5 14.5299 105.45 14.5299C102.18 14.5299 99.74 17.0099 99.74 20.6999C99.74 24.3099 102.22 26.8299 105.53 26.8299C107.75 26.8299 109.47 25.8199 110.48 23.4699L115.18 25.8999C113.5 29.9299 109.85 31.6899 105.57 31.6899C99.03 31.6899 94.33 27.2499 94.33 20.6999Z" fill="#FDB615"/>
<path d="M126.22 20.6999C126.22 14.1499 130.96 9.65991 137.3 9.65991C141.66 9.65991 145.19 11.7199 146.74 14.9899L142.08 17.5099C141.12 15.5799 139.39 14.5299 137.34 14.5299C134.07 14.5299 131.63 17.0099 131.63 20.6999C131.63 24.3099 134.11 26.8299 137.42 26.8299C139.64 26.8299 141.36 25.8199 142.37 23.4699L147.07 25.8999C145.39 29.9299 141.74 31.6899 137.46 31.6899C130.92 31.6899 126.22 27.2499 126.22 20.6999Z" fill="white"/>
<path d="M148.92 20.6999C148.92 14.1499 153.83 9.65991 160.17 9.65991C166.55 9.65991 171.42 14.1499 171.42 20.6999C171.42 27.2499 166.55 31.6899 160.17 31.6899C153.83 31.6899 148.92 27.2499 148.92 20.6999ZM165.96 20.6999C165.96 17.0499 163.53 14.5699 160.17 14.5699C156.81 14.5699 154.34 17.0499 154.34 20.6999C154.34 24.3099 156.82 26.8299 160.17 26.8299C163.52 26.8299 165.96 24.3099 165.96 20.6999Z" fill="white"/>
<path d="M207.37 18.7299V31.2299H202V19.7299C202 16.1199 200.83 14.4799 198.35 14.4799C195.75 14.4799 194.07 16.9099 194.07 19.6799V31.2199H188.7V19.7199C188.7 16.1099 187.48 14.4699 185.05 14.4699C182.41 14.4699 180.77 16.8999 180.77 20.1299V31.2099H175.4V10.1299H180.69V13.2399C181.99 10.8499 184.3 9.66995 186.98 9.66995C189.88 9.66995 191.93 10.9699 192.98 13.4899C194.99 10.6399 197.6 9.66995 200.07 9.66995C204.86 9.65995 207.37 12.7299 207.37 18.7299Z" fill="white"/>
<path d="M212.2 39.4599V10.1299H217.57V13.2399C218.91 10.9699 221.18 9.66992 224.24 9.66992C229.95 9.66992 233.89 14.1599 233.89 20.7099C233.89 27.2599 229.95 31.6999 224.28 31.6999C221.22 31.6999 218.91 30.3599 217.57 28.1299V39.4599H212.2ZM228.44 20.6999C228.44 17.0499 226.17 14.5699 222.9 14.5699C219.71 14.5699 217.49 16.9999 217.49 20.6999C217.49 24.3999 219.71 26.8299 222.9 26.8299C226.17 26.8299 228.44 24.3099 228.44 20.6999Z" fill="white"/>
<path d="M237.42 22.5V10.13H242.79V21.54C242.79 25.27 244.26 26.87 246.94 26.87C249.96 26.87 251.6 24.44 251.6 21.2V10.13H256.97V31.24H251.68V28.18C250.25 30.53 248.03 31.71 245.05 31.71C240.23 31.69 237.42 28.59 237.42 22.5Z" fill="white"/>
<path d="M274.47 30.98C273.55 31.4 271.87 31.61 270.53 31.61C265.2 31.61 263.69 28.67 263.69 24.35V14.87H260.21V10.13H263.69V4.83997H269.06V10.13H274.35V14.87H269.06V23.51C269.06 25.99 269.77 26.95 271.7 26.95C272.66 26.95 273.63 26.74 274.3 26.45L274.47 30.98Z" fill="white"/>
<path d="M298.47 22.4599H282.52C282.98 25.1499 285.12 27.0299 288.69 27.0299C290.83 27.0299 292.72 26.3999 294.15 24.5099L298.26 27.2399C296.46 30.2199 292.64 31.6899 288.57 31.6899C281.48 31.6899 277.07 27.1599 277.07 20.6999C277.07 14.1499 281.73 9.65991 288.11 9.65991C294.32 9.65991 298.6 13.9799 298.6 20.6999C298.6 21.2499 298.56 21.8799 298.47 22.4599ZM282.57 18.6399H293.31C292.81 15.8299 290.88 14.0199 288.11 14.0199C285.21 14.0299 283.07 15.8299 282.57 18.6399Z" fill="white"/>
<path d="M302.54 31.2299V10.1299H307.83V13.7399C309.09 11.1399 311.48 9.66992 314.38 9.66992C314.67 9.66992 315.09 9.70992 315.35 9.74992L315.27 15.3699C314.43 15.2399 313.93 15.1999 313.17 15.1999C309.81 15.1999 307.92 17.9299 307.92 21.4099V31.2299H302.54Z" fill="white"/>
</g>
<defs>
<clipPath id="clip0_1_4601">
<rect width="316.96" height="39.46" fill="white"/>
</clipPath>
</defs>
</svg>
