<svg width="121" height="35" viewBox="0 0 121 35" fill="none" xmlns="http://www.w3.org/2000/svg">
<path d="M116.056 34.6667H4.94444C2.50111 34.6667 0.5 32.7156 0.5 30.3333V4.33333C0.5 1.95108 2.50111 -5.72205e-06 4.94444 -5.72205e-06H116.056C118.499 -5.72205e-06 120.5 1.95108 120.5 4.33333V30.3333C120.5 32.7156 118.499 34.6667 116.056 34.6667Z" fill="black"/>
<path d="M116.056 0.69441C118.113 0.69441 119.788 2.32699 119.788 4.33333V30.3333C119.788 32.3397 118.113 33.9722 116.056 33.9722H4.94444C2.88667 33.9722 1.21222 32.3397 1.21222 30.3333V4.33333C1.21222 2.32699 2.88667 0.69441 4.94444 0.69441H116.056ZM116.056 -5.72205e-06H4.94444C2.50111 -5.72205e-06 0.5 1.95108 0.5 4.33333V30.3333C0.5 32.7156 2.50111 34.6667 4.94444 34.6667H116.056C118.499 34.6667 120.5 32.7156 120.5 30.3333V4.33333C120.5 1.95108 118.499 -5.72205e-06 116.056 -5.72205e-06Z" fill="#A6A6A6"/>
<path d="M9.77556 6.53359C9.51445 6.80009 9.36334 7.215 9.36334 7.75234V26.9187C9.36334 27.456 9.51445 27.8709 9.77556 28.1374L9.84001 28.1959L20.8556 17.4601V17.2066L9.84001 6.47076L9.77556 6.53359Z" fill="url(#paint0_linear_2380_1306)"/>
<path d="M24.5233 21.0405L20.8555 17.4601V17.2066L24.5278 13.6262L24.61 13.6727L28.9589 16.0853C30.2 16.77 30.2 17.8967 28.9589 18.5857L24.61 20.9939L24.5233 21.0405Z" fill="url(#paint1_linear_2380_1306)"/>
<path d="M24.61 20.9939L20.8555 17.3333L9.77554 28.1374C10.1878 28.5599 10.86 28.6108 11.6244 28.1883L24.61 20.9939Z" fill="url(#paint2_linear_2380_1306)"/>
<path d="M24.61 13.6728L11.6244 6.47835C10.86 6.06018 10.1878 6.1111 9.77554 6.53359L20.8555 17.3333L24.61 13.6728Z" fill="url(#paint3_linear_2380_1306)"/>
<path d="M42.6489 8.87793C42.6489 9.60159 42.4266 10.1812 41.9889 10.6134C41.4855 11.1258 40.83 11.3837 40.0266 11.3837C39.2589 11.3837 38.6033 11.1215 38.0655 10.6048C37.5266 10.0804 37.2578 9.43693 37.2578 8.66668C37.2578 7.89643 37.5266 7.25293 38.0655 6.73293C38.6033 6.21184 39.2589 5.94968 40.0266 5.94968C40.4089 5.94968 40.7733 6.02659 41.1211 6.16959C41.4677 6.31368 41.75 6.50868 41.9544 6.74918L41.49 7.20634C41.1333 6.79576 40.6478 6.59318 40.0266 6.59318C39.4666 6.59318 38.9811 6.78384 38.5689 7.16843C38.1611 7.55409 37.9566 8.05351 37.9566 8.66668C37.9566 9.27984 38.1611 9.78359 38.5689 10.1693C38.9811 10.5495 39.4666 10.7445 40.0266 10.7445C40.6211 10.7445 41.1211 10.5495 41.5155 10.1649C41.7755 9.91034 41.9233 9.55934 41.9622 9.11084H40.0266V8.48468H42.6089C42.64 8.62009 42.6489 8.75118 42.6489 8.87793Z" fill="white" stroke="white" stroke-width="0.16" stroke-miterlimit="10"/>
<path d="M46.7455 6.7069H44.32V8.35357H46.5066V8.97973H44.32V10.6264H46.7455V11.2645H43.6333V6.06882H46.7455V6.7069Z" fill="white" stroke="white" stroke-width="0.16" stroke-miterlimit="10"/>
<path d="M49.6366 11.2645H48.9499V6.7069H47.4622V6.06882H51.1255V6.7069H49.6366V11.2645Z" fill="white" stroke="white" stroke-width="0.16" stroke-miterlimit="10"/>
<path d="M53.7767 11.2645V6.06882H54.4622V11.2645H53.7767Z" fill="white" stroke="white" stroke-width="0.16" stroke-miterlimit="10"/>
<path d="M57.501 11.2645H56.8199V6.7069H55.3266V6.06882H58.9944V6.7069H57.501V11.2645Z" fill="white" stroke="white" stroke-width="0.16" stroke-miterlimit="10"/>
<path d="M65.9299 10.5961C65.4044 11.1215 64.7533 11.3837 63.9766 11.3837C63.1955 11.3837 62.5444 11.1215 62.0188 10.5961C61.4944 10.0718 61.2333 9.42826 61.2333 8.66668C61.2333 7.90509 61.4944 7.26159 62.0188 6.73726C62.5444 6.21184 63.1955 5.94968 63.9766 5.94968C64.7488 5.94968 65.3999 6.21184 65.9255 6.74159C66.4544 7.27026 66.7155 7.90943 66.7155 8.66668C66.7155 9.42826 66.4544 10.0718 65.9299 10.5961ZM62.5266 10.1606C62.9222 10.5495 63.4033 10.7445 63.9766 10.7445C64.5455 10.7445 65.0311 10.5495 65.4222 10.1606C65.8166 9.77168 66.0166 9.27226 66.0166 8.66668C66.0166 8.06109 65.8166 7.56168 65.4222 7.17276C65.0311 6.78384 64.5455 6.58884 63.9766 6.58884C63.4033 6.58884 62.9222 6.78384 62.5266 7.17276C62.1322 7.56168 61.9322 8.06109 61.9322 8.66668C61.9322 9.27226 62.1322 9.77168 62.5266 10.1606Z" fill="white" stroke="white" stroke-width="0.16" stroke-miterlimit="10"/>
<path d="M67.6788 11.2645V6.06882H68.5122L71.1033 10.1096H71.1333L71.1033 9.11082V6.06882H71.7888V11.2645H71.0733L68.3599 7.02432H68.3299L68.3599 8.02748V11.2645H67.6788Z" fill="white" stroke="white" stroke-width="0.16" stroke-miterlimit="10"/>
<path d="M61.0644 18.8522C58.9766 18.8522 57.2711 20.4013 57.2711 22.5388C57.2711 24.6588 58.9766 26.2243 61.0644 26.2243C63.1566 26.2243 64.8622 24.6588 64.8622 22.5388C64.8622 20.4013 63.1566 18.8522 61.0644 18.8522ZM61.0644 24.7726C59.9189 24.7726 58.9333 23.8507 58.9333 22.5388C58.9333 21.2095 59.9189 20.3038 61.0644 20.3038C62.21 20.3038 63.2 21.2095 63.2 22.5388C63.2 23.8507 62.21 24.7726 61.0644 24.7726ZM52.7877 18.8522C50.6955 18.8522 48.9944 20.4013 48.9944 22.5388C48.9944 24.6588 50.6955 26.2243 52.7877 26.2243C54.8789 26.2243 56.5811 24.6588 56.5811 22.5388C56.5811 20.4013 54.8789 18.8522 52.7877 18.8522ZM52.7877 24.7726C51.6411 24.7726 50.6522 23.8507 50.6522 22.5388C50.6522 21.2095 51.6411 20.3038 52.7877 20.3038C53.9333 20.3038 54.9189 21.2095 54.9189 22.5388C54.9189 23.8507 53.9333 24.7726 52.7877 24.7726ZM42.9389 19.9821V21.5486H46.7755C46.6633 22.4239 46.3633 23.0674 45.9033 23.5159C45.3433 24.0576 44.4711 24.6588 42.9389 24.6588C40.5778 24.6588 38.7289 22.8009 38.7289 20.4988C38.7289 18.1968 40.5778 16.3388 42.9389 16.3388C44.2155 16.3388 45.1444 16.8253 45.83 17.4558L46.9622 16.3518C46.0033 15.4592 44.7278 14.7734 42.9389 14.7734C39.7011 14.7734 36.98 17.342 36.98 20.4988C36.98 23.6557 39.7011 26.2243 42.9389 26.2243C44.6889 26.2243 46.0033 25.6653 47.0366 24.6166C48.0955 23.5842 48.4255 22.1325 48.4255 20.9603C48.4255 20.5963 48.3944 20.2616 48.3389 19.9821H42.9389ZM83.2122 21.1965C82.9 20.3721 81.9366 18.8522 79.9744 18.8522C78.03 18.8522 76.4111 20.3461 76.4111 22.5388C76.4111 24.6036 78.0133 26.2243 80.1611 26.2243C81.8977 26.2243 82.9 25.1918 83.3122 24.5906L82.0233 23.7532C81.5933 24.3663 81.0077 24.7726 80.1611 24.7726C79.32 24.7726 78.7166 24.3967 78.33 23.6557L83.3866 21.6158L83.2122 21.1965ZM78.0566 22.4239C78.0133 21.0026 79.1889 20.2746 80.0311 20.2746C80.6911 20.2746 81.2511 20.5963 81.4377 21.0568L78.0566 22.4239ZM73.9466 26H75.6089V15.1667H73.9466V26ZM71.2244 19.6733H71.1689C70.7955 19.2422 70.0833 18.8522 69.1811 18.8522C67.2878 18.8522 65.5566 20.4728 65.5566 22.5507C65.5566 24.6166 67.2878 26.2243 69.1811 26.2243C70.0833 26.2243 70.7955 25.831 71.1689 25.3868H71.2244V25.9155C71.2244 27.3249 70.4522 28.0822 69.2066 28.0822C68.1911 28.0822 67.5611 27.3672 67.3011 26.7659L65.8555 27.3542C66.2722 28.3313 67.3755 29.5338 69.2066 29.5338C71.1555 29.5338 72.8 28.4158 72.8 25.6956V19.0764H71.2244V19.6733ZM69.3233 24.7726C68.1778 24.7726 67.2189 23.8377 67.2189 22.5507C67.2189 21.2518 68.1778 20.3038 69.3233 20.3038C70.4522 20.3038 71.3422 21.2518 71.3422 22.5507C71.3422 23.8377 70.4522 24.7726 69.3233 24.7726ZM90.9944 15.1667H87.0188V26H88.6766V21.8953H90.9944C92.8355 21.8953 94.6411 20.5963 94.6411 18.5304C94.6411 16.4656 92.8311 15.1667 90.9944 15.1667ZM91.0377 20.3883H88.6766V16.6736H91.0377C92.2755 16.6736 92.9822 17.6757 92.9822 18.5304C92.9822 19.3689 92.2755 20.3883 91.0377 20.3883ZM101.286 18.8316C100.088 18.8316 98.8422 19.3473 98.33 20.4902L99.8011 21.0914C100.118 20.4902 100.7 20.2952 101.316 20.2952C102.176 20.2952 103.048 20.7989 103.061 21.6883V21.8021C102.761 21.6331 102.119 21.3828 101.329 21.3828C99.7444 21.3828 98.13 22.2333 98.13 23.8203C98.13 25.272 99.4277 26.2069 100.887 26.2069C102.002 26.2069 102.618 25.7162 103.004 25.1453H103.061V25.9827H104.662V21.827C104.662 19.9063 103.191 18.8316 101.286 18.8316ZM101.086 24.7683C100.543 24.7683 99.7877 24.5061 99.7877 23.8507C99.7877 23.0122 100.73 22.6904 101.546 22.6904C102.276 22.6904 102.618 22.8475 103.061 23.0544C102.931 24.0576 102.046 24.7683 101.086 24.7683ZM110.496 19.0688L108.59 23.7651H108.533L106.563 19.0688H104.776L107.736 25.6317L106.047 29.2836H107.779L112.34 19.0688H110.496ZM95.5522 26H97.2144V15.1667H95.5522V26Z" fill="white"/>
<defs>
<linearGradient id="paint0_linear_2380_1306" x1="19.8775" y1="27.1183" x2="5.33743" y2="12.2054" gradientUnits="userSpaceOnUse">
<stop stop-color="#00A0FF"/>
<stop offset="0.0066" stop-color="#00A1FF"/>
<stop offset="0.2601" stop-color="#00BEFF"/>
<stop offset="0.5122" stop-color="#00D2FF"/>
<stop offset="0.7604" stop-color="#00DFFF"/>
<stop offset="1" stop-color="#00E3FF"/>
</linearGradient>
<linearGradient id="paint1_linear_2380_1306" x1="30.575" y1="17.3321" x2="9.06664" y2="17.3321" gradientUnits="userSpaceOnUse">
<stop stop-color="#FFE000"/>
<stop offset="0.4087" stop-color="#FFBD00"/>
<stop offset="0.7754" stop-color="#FFA500"/>
<stop offset="1" stop-color="#FF9C00"/>
</linearGradient>
<linearGradient id="paint2_linear_2380_1306" x1="22.5684" y1="15.3434" x2="2.8509" y2="-4.87973" gradientUnits="userSpaceOnUse">
<stop stop-color="#FF3A44"/>
<stop offset="1" stop-color="#C31162"/>
</linearGradient>
<linearGradient id="paint3_linear_2380_1306" x1="6.98648" y1="34.514" x2="15.7912" y2="25.4835" gradientUnits="userSpaceOnUse">
<stop stop-color="#32A071"/>
<stop offset="0.0685" stop-color="#2DA771"/>
<stop offset="0.4762" stop-color="#15CF74"/>
<stop offset="0.8009" stop-color="#06E775"/>
<stop offset="1" stop-color="#00F076"/>
</linearGradient>
</defs>
</svg>
