<svg width="352" height="353" viewBox="0 0 352 353" fill="none" xmlns="http://www.w3.org/2000/svg">
<path d="M352 269.669H0V269.845H352V269.669Z" fill="#EBEBEB"/>
<path d="M166.859 238.271H30.9169C28.7014 238.271 26.8984 236.469 26.8984 234.253V43.1649C26.8984 40.9494 28.7014 39.1465 30.9169 39.1465H166.859C169.073 39.1465 170.876 40.9494 170.876 43.1649V234.253C170.876 236.469 169.073 238.271 166.859 238.271ZM30.9169 39.3232C28.7978 39.3232 27.0744 41.0466 27.0744 43.1656V234.254C27.0744 236.373 28.7978 238.096 30.9169 238.096H166.859C168.977 238.096 170.7 236.373 170.7 234.254V43.1649C170.7 41.0466 168.977 39.3225 166.859 39.3225L30.9169 39.3232Z" fill="#EBEBEB"/>
<path d="M319.131 238.271H183.19C180.974 238.271 179.172 236.469 179.172 234.253V43.1649C179.172 40.9494 180.975 39.1465 183.19 39.1465H319.131C321.347 39.1465 323.149 40.9494 323.149 43.1649V234.253C323.15 236.469 321.347 238.271 319.131 238.271ZM183.19 39.3232C181.071 39.3232 179.348 41.0466 179.348 43.1656V234.254C179.348 236.373 181.071 238.096 183.19 238.096H319.131C321.25 238.096 322.973 236.373 322.973 234.254V43.1649C322.973 41.0466 321.25 39.3225 319.131 39.3225L183.19 39.3232Z" fill="#EBEBEB"/>
<path d="M316.73 281H298.428V281.176H316.73V281Z" fill="#EBEBEB"/>
<path d="M250.642 282.911H218.943V283.087H250.642V282.911Z" fill="#EBEBEB"/>
<path d="M297.723 274.463H254.926V274.639H297.723V274.463Z" fill="#EBEBEB"/>
<path d="M50.4731 275.646H36.9316V275.822H50.4731V275.646Z" fill="#EBEBEB"/>
<path d="M95.6658 275.646H56.7402V275.822H95.6658V275.646Z" fill="#EBEBEB"/>
<path d="M171.87 278.618H119.445V278.794H171.87V278.618Z" fill="#EBEBEB"/>
<path d="M266.535 266.063H272.164V161.834H266.535V266.063Z" fill="#F0F0F0"/>
<path d="M239.497 269.658H270.678V266.062H239.497V269.658Z" fill="#F0F0F0"/>
<path d="M266.534 161.833H238.012V266.062H266.534V161.833Z" fill="#F5F5F5"/>
<path d="M263.493 216.107H241.053V234.719H263.493V216.107Z" fill="#F0F0F0"/>
<path d="M263.493 240.466H241.053V259.077H263.493V240.466Z" fill="#F0F0F0"/>
<path d="M249.284 226.689H255.263C255.72 226.689 256.093 226.316 256.093 225.859V224.966C256.093 224.51 255.72 224.137 255.263 224.137H249.284C248.828 224.137 248.455 224.51 248.455 224.966V225.859C248.455 226.315 248.828 226.689 249.284 226.689Z" fill="#F5F5F5"/>
<path d="M249.284 251.048H255.263C255.72 251.048 256.093 250.675 256.093 250.219V249.325C256.093 248.869 255.72 248.496 255.263 248.496H249.284C248.828 248.496 248.455 248.869 248.455 249.325V250.219C248.455 250.675 248.828 251.048 249.284 251.048Z" fill="#F5F5F5"/>
<path d="M263.493 167.581H241.053V186.193H263.493V167.581Z" fill="#F0F0F0"/>
<path d="M263.493 191.748H241.053V210.36H263.493V191.748Z" fill="#F0F0F0"/>
<path d="M249.284 178.163H255.263C255.72 178.163 256.093 177.79 256.093 177.334V176.441C256.093 175.984 255.72 175.611 255.263 175.611H249.284C248.828 175.611 248.455 175.984 248.455 176.441V177.334C248.455 177.79 248.828 178.163 249.284 178.163Z" fill="#F5F5F5"/>
<path d="M249.284 202.33H255.263C255.72 202.33 256.093 201.956 256.093 201.5V200.608C256.093 200.151 255.72 199.778 255.263 199.778H249.284C248.828 199.778 248.455 200.151 248.455 200.608V201.5C248.455 201.956 248.828 202.33 249.284 202.33Z" fill="#F5F5F5"/>
<path d="M297.747 266.063H314.641V161.834H297.747V266.063Z" fill="#F0F0F0"/>
<path d="M270.709 269.658H312.912V266.062H270.709V269.658Z" fill="#F0F0F0"/>
<path d="M297.747 161.833H269.225V266.062H297.747V161.833Z" fill="#F5F5F5"/>
<path d="M294.706 216.107H272.266V234.719H294.706V216.107Z" fill="#F0F0F0"/>
<path d="M294.706 240.466H272.266V259.077H294.706V240.466Z" fill="#F0F0F0"/>
<path d="M280.497 226.689H286.476C286.933 226.689 287.306 226.316 287.306 225.859V224.966C287.306 224.51 286.933 224.137 286.476 224.137H280.497C280.041 224.137 279.668 224.51 279.668 224.966V225.859C279.667 226.315 280.041 226.689 280.497 226.689Z" fill="#F5F5F5"/>
<path d="M280.497 251.048H286.476C286.933 251.048 287.306 250.675 287.306 250.219V249.325C287.306 248.869 286.933 248.496 286.476 248.496H280.497C280.041 248.496 279.668 248.869 279.668 249.325V250.219C279.667 250.675 280.041 251.048 280.497 251.048Z" fill="#F5F5F5"/>
<path d="M294.706 167.581H272.266V186.193H294.706V167.581Z" fill="#F0F0F0"/>
<path d="M294.706 191.748H272.266V210.36H294.706V191.748Z" fill="#F0F0F0"/>
<path d="M280.497 178.163H286.476C286.933 178.163 287.306 177.79 287.306 177.334V176.441C287.306 175.984 286.933 175.611 286.476 175.611H280.497C280.041 175.611 279.668 175.984 279.668 176.441V177.334C279.667 177.79 280.041 178.163 280.497 178.163Z" fill="#F5F5F5"/>
<path d="M280.497 202.33H286.476C286.933 202.33 287.306 201.956 287.306 201.5V200.608C287.306 200.151 286.933 199.778 286.476 199.778H280.497C280.041 199.778 279.668 200.151 279.668 200.608V201.5C279.667 201.956 280.041 202.33 280.497 202.33Z" fill="#F5F5F5"/>
<path d="M206.012 140.078H300.85V56.8224L206.012 56.8224V140.078Z" fill="#E6E6E6"/>
<path d="M195.849 53.584H306.989C307.508 53.584 307.93 54.0057 307.93 54.5252C307.93 55.0455 307.508 55.4665 306.989 55.4665H195.849C195.329 55.4665 194.908 55.0448 194.908 54.5252C194.908 54.005 195.329 53.584 195.849 53.584Z" fill="#E6E6E6"/>
<path d="M201.988 140.078H298.969V56.8224L201.988 56.8224V140.078Z" fill="#F0F0F0"/>
<path d="M206.013 140.078H300.85V142.746H203.24L206.013 140.078Z" fill="#E6E6E6"/>
<path d="M195.284 140.078H292.265L289.493 142.746H192.512L195.284 140.078Z" fill="#F0F0F0"/>
<path d="M293.336 134.445V62.457L207.623 62.457V134.445H293.336Z" fill="#FAFAFA"/>
<path d="M273.878 134.444L240.812 62.4561H225.203L258.269 134.444H273.878Z" fill="white"/>
<path d="M254.915 134.444L221.849 62.4561H215.764L248.83 134.444H254.915Z" fill="white"/>
<path d="M208.338 134.444V62.4561H207.623V134.444H208.338Z" fill="#E6E6E6"/>
<g opacity="0.4">
<path d="M293.269 120.604H302.965V51.8987H293.269V120.604Z" fill="#F0F0F0"/>
<path d="M289.493 120.604H297.047V51.8987H289.493V120.604Z" fill="#E6E6E6"/>
<path d="M283.573 120.604H293.27V51.8987H283.573V120.604Z" fill="#F0F0F0"/>
<path d="M279.798 120.604H287.352V51.8987H279.798V120.604Z" fill="#E6E6E6"/>
<path d="M273.876 120.604H283.572V51.8987H273.876V120.604Z" fill="#F0F0F0"/>
</g>
<g opacity="0.4">
<path d="M211.231 120.604H216.818V51.8987H211.231V120.604Z" fill="#F0F0F0"/>
<path d="M209.053 120.604H213.406V51.8987H209.053V120.604Z" fill="#E6E6E6"/>
<path d="M205.643 120.604H211.23V51.8987H205.643V120.604Z" fill="#F0F0F0"/>
<path d="M203.466 120.604H207.818V51.8987H203.466V120.604Z" fill="#E6E6E6"/>
<path d="M200.055 120.604H205.643V51.8987H200.055V120.604Z" fill="#F0F0F0"/>
</g>
<path d="M115.607 107.255H129.031L127.446 73.2236H115.607V107.255Z" fill="#F5F5F5"/>
<path d="M136.61 109.096L139.505 124.213H136.61L118.861 109.096H136.61Z" fill="#F5F5F5"/>
<path d="M139.506 109.096V124.213L121.758 109.096H139.506Z" fill="#E6E6E6"/>
<path d="M67.0083 109.096L69.9039 124.213H67.0083L49.2598 109.096H67.0083Z" fill="#F5F5F5"/>
<path d="M69.9048 109.096V124.213L52.1562 109.096H69.9048Z" fill="#E6E6E6"/>
<path d="M152.533 107.307H133.23V109.487H152.533V107.307Z" fill="#E6E6E6"/>
<path d="M37.2612 109.487L133.23 109.487V107.307L37.2612 107.307V109.487Z" fill="#F5F5F5"/>
<path d="M95.8926 107.255H124.704L128.266 66.0166H99.4548L95.8926 107.255Z" fill="#E6E6E6"/>
<path d="M94.4004 107.255H123.212L126.774 66.0166H97.9626L94.4004 107.255Z" fill="#F0F0F0"/>
<path d="M120.791 102.689L124.049 70.5811H100.383L97.125 102.689H120.791Z" fill="white"/>
<path d="M82.9961 107.255H92.2382L91.1477 83.8232H82.9961V107.255Z" fill="#E0E0E0"/>
<path d="M69.418 107.255H89.256L91.7087 78.8604H71.8707L69.418 107.255Z" fill="#F0F0F0"/>
<path d="M68.3906 107.255H88.2286L90.6814 78.8604H70.8441L68.3906 107.255Z" fill="#F5F5F5"/>
<path d="M86.5631 104.112L88.8067 82.0039H72.5105L70.2676 104.112H86.5631Z" fill="#E0E0E0"/>
<path d="M184.702 166.913C184.883 169.109 183.249 171.035 181.053 171.216C178.857 171.397 176.93 169.763 176.75 167.568C176.569 165.372 178.203 163.445 180.399 163.265C182.595 163.084 184.521 164.718 184.702 166.913Z" fill="#E0E0E0"/>
<path d="M192.114 168.999C192.295 171.195 190.661 173.121 188.465 173.302C186.269 173.483 184.343 171.849 184.162 169.653C183.981 167.458 185.615 165.531 187.811 165.351C190.007 165.17 191.934 166.804 192.114 168.999Z" fill="#E0E0E0"/>
<path d="M197.471 166.617C197.652 168.812 196.018 170.739 193.822 170.919C191.627 171.1 189.7 169.466 189.52 167.271C189.339 165.075 190.973 163.149 193.168 162.968C195.364 162.787 197.29 164.42 197.471 166.617Z" fill="#E0E0E0"/>
<path d="M203.126 168.094C203.306 170.29 201.672 172.217 199.477 172.397C197.281 172.578 195.355 170.944 195.174 168.748C194.993 166.552 196.627 164.626 198.823 164.445C201.018 164.265 202.945 165.898 203.126 168.094Z" fill="#E0E0E0"/>
<path d="M208.203 168.737C208.203 168.737 207.739 179.818 189.937 179.818C172.135 179.818 171.67 168.737 171.67 168.737H208.203Z" fill="#F0F0F0"/>
<path d="M42.1561 269.668H48.623L48.623 179.819H42.1561L42.1561 269.668Z" fill="#E6E6E6"/>
<path d="M40.425 269.668H44.2344L44.2344 179.819H40.425L40.425 269.668Z" fill="#F0F0F0"/>
<path d="M131.088 179.818H39.2461V186.558H131.088V179.818Z" fill="#F0F0F0"/>
<path d="M218.074 269.668H224.541V179.819H218.074V269.668Z" fill="#E6E6E6"/>
<path d="M216.861 269.668H220.67V179.819H216.861V269.668Z" fill="#F0F0F0"/>
<path d="M225.697 179.818H133.855V186.558H225.697V179.818Z" fill="#E6E6E6"/>
<path d="M131.639 269.668H138.105V179.819H131.639V269.668Z" fill="#E6E6E6"/>
<path d="M129.907 269.668H133.717V179.819H129.907V269.668Z" fill="#F0F0F0"/>
<path d="M152.871 149.934H104.916L96.375 178.251H144.33L152.871 149.934Z" fill="#E6E6E6"/>
<path d="M144.329 178.251L144.135 179.817H96.1777L96.3713 178.251H144.329Z" fill="#E6E6E6"/>
<path d="M151.394 149.934H103.439L94.8984 178.251H142.854L151.394 149.934Z" fill="#F0F0F0"/>
<path d="M141.911 176.958L149.671 151.228H104.38L96.6191 176.958H141.911Z" fill="white"/>
<path d="M130.358 178.251L130.164 179.817H77.3555L77.5491 178.251H130.358Z" fill="#F0F0F0"/>
<path d="M176 301.463C251.385 301.463 312.498 297.894 312.498 293.492C312.498 289.089 251.385 285.521 176 285.521C100.614 285.521 39.502 289.089 39.502 293.492C39.502 297.894 100.614 301.463 176 301.463Z" fill="#F5F5F5"/>
<path d="M225.742 77.3018H144.719C139.061 77.3018 134.13 81.932 133.763 87.5907L121.19 281.587C120.823 287.247 125.153 291.876 130.812 291.876H211.834C217.493 291.876 222.423 287.246 222.79 281.587L231.827 142.156C232.591 141.889 233.178 141.18 233.232 140.344L234.849 115.398C234.903 114.562 234.408 113.853 233.679 113.585L235.364 87.5907C235.731 81.9327 231.401 77.3018 225.742 77.3018Z" fill="#407BFF"/>
<path d="M127.204 127.532H128.79C129.795 127.532 130.67 126.71 130.735 125.706L131.41 115.292C131.474 114.287 130.706 113.466 129.702 113.466H128.116C127.111 113.466 126.236 114.287 126.171 115.292L125.496 125.706C125.431 126.71 126.199 127.532 127.204 127.532Z" fill="#407BFF"/>
<path d="M125.999 146.13H127.585C128.59 146.13 129.465 145.307 129.529 144.303L130.205 133.891C130.269 132.886 129.501 132.064 128.497 132.064H126.911C125.906 132.064 125.031 132.887 124.966 133.891L124.291 144.303C124.226 145.307 124.994 146.13 125.999 146.13Z" fill="#407BFF"/>
<path d="M207.529 291.877H126.507C120.848 291.877 116.518 287.247 116.885 281.588L129.458 87.5917C129.825 81.9329 134.755 77.3027 140.415 77.3027H221.437C227.096 77.3027 231.426 81.9329 231.059 87.5917L218.486 281.588C218.119 287.247 213.189 291.877 207.529 291.877Z" fill="#263238"/>
<path opacity="0.2" d="M172.546 283.617C175.384 280.87 175.597 276.487 173.022 273.828C170.448 271.168 166.06 271.239 163.222 273.987C160.384 276.734 160.171 281.117 162.746 283.776C165.321 286.436 169.708 286.365 172.546 283.617Z" fill="white"/>
<path d="M214.855 266.69H122.746C121.422 266.69 120.373 265.57 120.458 264.249L131.24 97.8797C131.319 96.6738 132.32 95.7354 133.528 95.7354H225.638C226.962 95.7354 228.011 96.8547 227.926 98.1761L217.143 264.545C217.064 265.751 216.064 266.69 214.855 266.69Z" fill="white"/>
<path opacity="0.2" d="M189.168 201.109C199.47 191.136 200.243 175.224 190.895 165.568C181.547 155.913 165.618 156.171 155.317 166.144C145.015 176.117 144.242 192.029 153.59 201.685C162.937 211.34 178.866 211.083 189.168 201.109Z" fill="#407BFF"/>
<path opacity="0.2" d="M169.715 222.404C148.333 222.404 132.065 205.009 133.452 183.627C134.837 162.245 153.36 144.85 174.742 144.85C196.123 144.85 212.391 162.245 211.005 183.627C209.619 205.009 191.096 222.404 169.715 222.404ZM174.696 145.554C153.703 145.554 135.516 162.633 134.156 183.627C132.795 204.62 148.768 221.7 169.761 221.7C190.754 221.7 208.94 204.621 210.301 183.627C211.662 162.633 195.689 145.554 174.696 145.554Z" fill="#407BFF"/>
<path d="M166.224 195.81L164.128 191.741C159.553 182.862 149.01 174.926 145.334 172.617L148.812 167.414C153.165 170.148 161.875 176.914 167.342 184.95C177.437 172.991 191.716 160.655 210.834 147.358L214.094 152.272C193.665 166.479 178.984 179.469 169.212 191.986L166.224 195.81Z" fill="#407BFF"/>
<path opacity="0.2" d="M165.227 88.3663C166.377 87.2533 166.463 85.4779 165.42 84.4007C164.377 83.3235 162.6 83.3524 161.451 84.4653C160.301 85.5783 160.215 87.3537 161.257 88.4309C162.3 89.5081 164.078 89.4792 165.227 88.3663Z" fill="white"/>
<path opacity="0.2" d="M173.199 83.6162H196.497C198.039 83.6162 199.219 84.8785 199.119 86.4202C199.019 87.9627 197.675 89.2243 196.133 89.2243H172.835C171.293 89.2243 170.113 87.962 170.213 86.4202C170.313 84.8778 171.657 83.6162 173.199 83.6162Z" fill="white"/>
</svg>
