<svg width="20" height="23" viewBox="0 0 20 23" fill="none" xmlns="http://www.w3.org/2000/svg">
<path d="M16.2804 12.1461C16.2547 9.35286 18.6262 7.99393 18.7347 7.93066C17.3916 6.02139 15.3098 5.76053 14.5782 5.73973C12.8298 5.56033 11.1338 6.7598 10.2431 6.7598C9.33466 6.7598 7.9631 5.75706 6.48488 5.78653C4.58266 5.81513 2.8031 6.88893 1.8271 8.5564C-0.187118 11.9563 1.3151 16.9527 3.24488 19.7009C4.21022 21.0468 5.33822 22.5496 6.81466 22.4967C8.2591 22.4387 8.79866 21.5989 10.5418 21.5989C12.2689 21.5989 12.7755 22.4967 14.2813 22.4629C15.8315 22.4387 16.8075 21.1109 17.7391 19.7529C18.8547 18.2102 19.3027 16.6909 19.3204 16.6129C19.284 16.6008 16.3098 15.4941 16.2804 12.1461Z" fill="white"/>
<path d="M13.436 3.93186C14.2129 2.9846 14.7444 1.69586 14.5969 0.388062C13.4724 0.436595 12.0662 1.1464 11.2564 2.07286C10.54 2.88926 9.89999 4.2274 10.0653 5.4858C11.3284 5.57766 12.6253 4.8644 13.436 3.93186Z" fill="white"/>
</svg>
