<svg width="20" height="21" viewBox="0 0 20 21" fill="none" xmlns="http://www.w3.org/2000/svg">
<path d="M6.15375 20.0177C5.66792 20.0177 5.25483 19.8475 4.9145 19.507C4.57417 19.1666 4.404 18.7535 4.404 18.2677C4.404 17.7817 4.57417 17.3685 4.9145 17.0282C5.25483 16.6879 5.66792 16.5177 6.15375 16.5177C6.63975 16.5177 7.05292 16.6879 7.39325 17.0282C7.73358 17.3685 7.90375 17.7817 7.90375 18.2677C7.90375 18.7535 7.73358 19.1666 7.39325 19.507C7.05292 19.8475 6.63975 20.0177 6.15375 20.0177ZM15.8463 20.0177C15.3603 20.0177 14.9471 19.8475 14.6068 19.507C14.2664 19.1666 14.0963 18.7535 14.0963 18.2677C14.0963 17.7817 14.2664 17.3685 14.6068 17.0282C14.9471 16.6879 15.3603 16.5177 15.8463 16.5177C16.3321 16.5177 16.7452 16.6879 17.0855 17.0282C17.4258 17.3685 17.596 17.7817 17.596 18.2677C17.596 18.7535 17.4258 19.1666 17.0855 19.507C16.7452 19.8475 16.3321 20.0177 15.8463 20.0177ZM5.01525 4.20996L7.55 9.51771H14.3673C14.4249 9.51771 14.4763 9.50329 14.5213 9.47446C14.5661 9.44563 14.6045 9.40555 14.6365 9.35421L17.3193 4.47921C17.3578 4.40871 17.3609 4.34621 17.3288 4.29171C17.2968 4.23721 17.2423 4.20996 17.1653 4.20996H5.01525ZM4.29625 2.70996H18.1808C18.5898 2.70996 18.899 2.88404 19.1085 3.23221C19.3182 3.58021 19.3282 3.93563 19.1385 4.29846L15.9345 10.1022C15.7705 10.3907 15.5536 10.6154 15.2838 10.7762C15.0138 10.9372 14.7179 11.0177 14.3963 11.0177H7.1L5.94225 13.133C5.89092 13.21 5.88933 13.2933 5.9375 13.383C5.9855 13.4728 6.05758 13.5177 6.15375 13.5177H17.596V15.0177H6.15375C5.48708 15.0177 4.98617 14.7302 4.651 14.1552C4.31567 13.5802 4.30383 13.0061 4.6155 12.433L6.04225 9.86771L2.404 2.20996H0.5V0.709961H3.34625L4.29625 2.70996Z" fill="black"/>
</svg>
