<svg width="24" height="25" viewBox="0 0 24 25" fill="none" xmlns="http://www.w3.org/2000/svg">
<path d="M7 22.46C6.45 22.46 5.97917 22.2641 5.5875 21.8725C5.19583 21.4808 5 21.01 5 20.46C5 19.91 5.19583 19.4391 5.5875 19.0475C5.97917 18.6558 6.45 18.46 7 18.46C7.55 18.46 8.02083 18.6558 8.4125 19.0475C8.80417 19.4391 9 19.91 9 20.46C9 21.01 8.80417 21.4808 8.4125 21.8725C8.02083 22.2641 7.55 22.46 7 22.46ZM17 22.46C16.45 22.46 15.9792 22.2641 15.5875 21.8725C15.1958 21.4808 15 21.01 15 20.46C15 19.91 15.1958 19.4391 15.5875 19.0475C15.9792 18.6558 16.45 18.46 17 18.46C17.55 18.46 18.0208 18.6558 18.4125 19.0475C18.8042 19.4391 19 19.91 19 20.46C19 21.01 18.8042 21.4808 18.4125 21.8725C18.0208 22.2641 17.55 22.46 17 22.46ZM5.2 4.45996H19.95C20.3333 4.45996 20.625 4.63079 20.825 4.97246C21.025 5.31413 21.0333 5.65996 20.85 6.00996L17.3 12.41C17.1167 12.7433 16.8708 13.0016 16.5625 13.185C16.2542 13.3683 15.9167 13.46 15.55 13.46H8.1L7 15.46H19V17.46H7C6.25 17.46 5.68333 17.1308 5.3 16.4725C4.91667 15.8141 4.9 15.16 5.25 14.51L6.6 12.06L3 4.45996H1V2.45996H4.25L5.2 4.45996Z" fill="black"/>
</svg>
