<svg width="20" height="21" viewBox="0 0 20 21" fill="none" xmlns="http://www.w3.org/2000/svg">
<path d="M6.15375 20.2877C5.66792 20.2877 5.25483 20.1175 4.9145 19.777C4.57417 19.4366 4.404 19.0236 4.404 18.5377C4.404 18.0517 4.57417 17.6386 4.9145 17.2982C5.25483 16.9579 5.66792 16.7877 6.15375 16.7877C6.63975 16.7877 7.05292 16.9579 7.39325 17.2982C7.73358 17.6386 7.90375 18.0517 7.90375 18.5377C7.90375 19.0236 7.73358 19.4366 7.39325 19.777C7.05292 20.1175 6.63975 20.2877 6.15375 20.2877ZM15.8463 20.2877C15.3603 20.2877 14.9471 20.1175 14.6068 19.777C14.2664 19.4366 14.0963 19.0236 14.0963 18.5377C14.0963 18.0517 14.2664 17.6386 14.6068 17.2982C14.9471 16.9579 15.3603 16.7877 15.8463 16.7877C16.3321 16.7877 16.7452 16.9579 17.0855 17.2982C17.4258 17.6386 17.596 18.0517 17.596 18.5377C17.596 19.0236 17.4258 19.4366 17.0855 19.777C16.7452 20.1175 16.3321 20.2877 15.8463 20.2877ZM5.01525 4.47998L7.55 9.78773H14.3673C14.4249 9.78773 14.4763 9.77331 14.5213 9.74448C14.5661 9.71565 14.6045 9.67556 14.6365 9.62423L17.3193 4.74923C17.3578 4.67873 17.3609 4.61623 17.3288 4.56173C17.2968 4.50723 17.2423 4.47998 17.1653 4.47998H5.01525ZM4.29625 2.97998H18.1808C18.5898 2.97998 18.899 3.15406 19.1085 3.50223C19.3182 3.85023 19.3282 4.20565 19.1385 4.56848L15.9345 10.3722C15.7705 10.6607 15.5536 10.8854 15.2838 11.0462C15.0138 11.2072 14.7179 11.2877 14.3963 11.2877H7.1L5.94225 13.403C5.89092 13.48 5.88933 13.5633 5.9375 13.653C5.9855 13.7428 6.05758 13.7877 6.15375 13.7877H17.596V15.2877H6.15375C5.48708 15.2877 4.98617 15.0002 4.651 14.4252C4.31567 13.8502 4.30383 13.2761 4.6155 12.703L6.04225 10.1377L2.404 2.47998H0.5V0.97998H3.34625L4.29625 2.97998Z" fill="#E8EAED"/>
</svg>
