<svg width="24" height="25" viewBox="0 0 24 25" fill="none" xmlns="http://www.w3.org/2000/svg">
<path d="M11.5 21.3194V12.7464L4 8.4099V16.0694C4 16.3592 4.0715 16.6285 4.2145 16.8772C4.35733 17.126 4.55508 17.3228 4.80775 17.4677L11.5 21.3194ZM12.5 21.3194L19.1923 17.4677C19.4449 17.3228 19.6427 17.126 19.7855 16.8772C19.9285 16.6285 20 16.3592 20 16.0694V8.4099L12.5 12.7464V21.3194ZM16.1673 9.4734L19.4443 7.5944L12.8077 3.7734C12.5551 3.62857 12.2858 3.55615 12 3.55615C11.7142 3.55615 11.4449 3.62857 11.1923 3.7734L8.775 5.16765L16.1673 9.4734ZM12 11.8869L15.1673 10.0522L7.74225 5.7599L4.56925 7.58115L12 11.8869Z" fill="black"/>
</svg>
