<svg width="16" height="17" viewBox="0 0 16 17" fill="none" xmlns="http://www.w3.org/2000/svg">
<path opacity="0.2" d="M13.5 4.95996V11.46H2.5V4.95996C2.5 4.69474 2.60536 4.44039 2.79289 4.25285C2.98043 4.06532 3.23478 3.95996 3.5 3.95996H12.5C12.7652 3.95996 13.0196 4.06532 13.2071 4.25285C13.3946 4.44039 13.5 4.69474 13.5 4.95996Z" fill="black"/>
<path d="M14.5 10.96H14V4.95996C14 4.56214 13.842 4.18061 13.5607 3.8993C13.2794 3.618 12.8978 3.45996 12.5 3.45996H3.5C3.10218 3.45996 2.72064 3.618 2.43934 3.8993C2.15804 4.18061 2 4.56214 2 4.95996V10.96H1.5C1.36739 10.96 1.24021 11.0126 1.14645 11.1064C1.05268 11.2002 1 11.3274 1 11.46V12.46C1 12.8578 1.15804 13.2393 1.43934 13.5206C1.72064 13.8019 2.10218 13.96 2.5 13.96H13.5C13.8978 13.96 14.2794 13.8019 14.5607 13.5206C14.842 13.2393 15 12.8578 15 12.46V11.46C15 11.3274 14.9473 11.2002 14.8536 11.1064C14.7598 11.0126 14.6326 10.96 14.5 10.96ZM3 4.95996C3 4.82735 3.05268 4.70018 3.14645 4.60641C3.24021 4.51264 3.36739 4.45996 3.5 4.45996H12.5C12.6326 4.45996 12.7598 4.51264 12.8536 4.60641C12.9473 4.70018 13 4.82735 13 4.95996V10.96H3V4.95996ZM14 12.46C14 12.5926 13.9473 12.7197 13.8536 12.8135C13.7598 12.9073 13.6326 12.96 13.5 12.96H2.5C2.36739 12.96 2.24021 12.9073 2.14645 12.8135C2.05268 12.7197 2 12.5926 2 12.46V11.96H14V12.46ZM9.5 5.95996C9.5 6.09257 9.44732 6.21975 9.35355 6.31351C9.25979 6.40728 9.13261 6.45996 9 6.45996H7C6.86739 6.45996 6.74021 6.40728 6.64645 6.31351C6.55268 6.21975 6.5 6.09257 6.5 5.95996C6.5 5.82735 6.55268 5.70018 6.64645 5.60641C6.74021 5.51264 6.86739 5.45996 7 5.45996H9C9.13261 5.45996 9.25979 5.51264 9.35355 5.60641C9.44732 5.70018 9.5 5.82735 9.5 5.95996Z" fill="black"/>
</svg>
