<svg width="42" height="29" viewBox="0 0 42 29" fill="none" xmlns="http://www.w3.org/2000/svg">
<path d="M8.37552 28.691C6.92019 28.691 5.68602 28.1823 4.67302 27.165C3.66036 26.148 3.15402 24.913 3.15402 23.46H0.384521V3.69099C0.384521 2.77032 0.692855 2.00166 1.30952 1.38499C1.92619 0.768325 2.69485 0.459991 3.61552 0.459991H30.077V7.69099H34.6925L41.6155 16.9985V23.46H38.3845C38.3845 24.913 37.8752 26.148 36.8565 27.165C35.8375 28.1823 34.6004 28.691 33.145 28.691C31.6894 28.691 30.4552 28.1823 29.4425 27.165C28.4295 26.148 27.923 24.913 27.923 23.46H13.6155C13.6155 24.9217 13.106 26.1588 12.087 27.1715C11.0684 28.1845 9.83119 28.691 8.37552 28.691ZM8.38452 26.691C9.28452 26.691 10.048 26.3775 10.675 25.7505C11.302 25.1235 11.6155 24.36 11.6155 23.46C11.6155 22.56 11.302 21.7965 10.675 21.1695C10.048 20.5425 9.28452 20.229 8.38452 20.229C7.48452 20.229 6.72102 20.5425 6.09402 21.1695C5.46735 21.7965 5.15402 22.56 5.15402 23.46C5.15402 24.36 5.46735 25.1235 6.09402 25.7505C6.72102 26.3775 7.48452 26.691 8.38452 26.691ZM2.38452 21.46H3.67702C3.96169 20.578 4.54119 19.819 5.41552 19.183C6.28985 18.547 7.27952 18.229 8.38452 18.229C9.43852 18.229 10.4155 18.5407 11.3155 19.164C12.2155 19.787 12.8079 20.5523 13.0925 21.46H28.077V2.45999H3.61552C3.30785 2.45999 3.02569 2.58816 2.76902 2.84449C2.51269 3.10082 2.38452 3.38299 2.38452 3.69099V21.46ZM33.154 26.691C34.054 26.691 34.8174 26.3775 35.444 25.7505C36.071 25.1235 36.3845 24.36 36.3845 23.46C36.3845 22.56 36.071 21.7965 35.444 21.1695C34.8174 20.5425 34.054 20.229 33.154 20.229C32.254 20.229 31.4905 20.5425 30.8635 21.1695C30.2365 21.7965 29.923 22.56 29.923 23.46C29.923 24.36 30.2365 25.1235 30.8635 25.7505C31.4905 26.3775 32.254 26.691 33.154 26.691ZM30.077 17.46H39.5L33.6155 9.69099H30.077V17.46Z" fill="black"/>
</svg>
