<svg width="17" height="15" viewBox="0 0 17 15" fill="none" xmlns="http://www.w3.org/2000/svg">
<path d="M4.44874 0.466431H12.8142V9.6331L7.58978 14.7933L7.22124 14.4248C7.14527 14.3489 7.08138 14.2517 7.02957 14.1331C6.97777 14.0145 6.95187 13.9055 6.95187 13.8062V13.6748L7.80457 9.6331H2.01291C1.66457 9.6331 1.35311 9.49581 1.07853 9.22122C0.803948 8.94664 0.666656 8.63518 0.666656 8.28685V7.26122C0.666656 7.18539 0.675198 7.10261 0.692282 7.01289C0.709365 6.92317 0.731795 6.84039 0.759573 6.76456L3.0352 1.37018C3.1495 1.11379 3.3418 0.89907 3.61207 0.726014C3.88249 0.552959 4.16138 0.466431 4.44874 0.466431ZM11.9808 1.29976H4.44874C4.33124 1.29976 4.21103 1.33178 4.08812 1.39581C3.9652 1.45997 3.87173 1.56685 3.8077 1.71643L1.49999 7.1331V8.28685C1.49999 8.43643 1.54805 8.55928 1.64416 8.65539C1.74041 8.75164 1.86332 8.79976 2.01291 8.79976H8.83978L7.87499 13.351L11.9808 9.27727V1.29976ZM12.8142 9.6331V8.79976H15.6667V1.29976H12.8142V0.466431H16.5V9.6331H12.8142Z" fill="black"/>
</svg>
