<svg width="14" height="13" viewBox="0 0 14 13" fill="none" xmlns="http://www.w3.org/2000/svg">
<path d="M6.52813 10.9985H7.43846V10.1909C7.95557 10.1208 8.42374 9.92649 8.84296 9.60804C9.26218 9.28971 9.47179 8.80704 9.47179 8.16004C9.47179 7.69338 9.33418 7.28054 9.05896 6.92154C8.78374 6.56265 8.24613 6.23877 7.44613 5.94988C6.74524 5.71054 6.27985 5.50326 6.04996 5.32804C5.82007 5.15282 5.70513 4.90793 5.70513 4.59338C5.70513 4.27882 5.82285 4.02326 6.05829 3.82671C6.29374 3.63015 6.61874 3.53188 7.03329 3.53188C7.38029 3.53188 7.66018 3.61371 7.87296 3.77738C8.08585 3.94104 8.24957 4.14638 8.36413 4.39338L9.18713 4.06254C9.04779 3.70788 8.82068 3.40426 8.50579 3.15171C8.19079 2.89915 7.84613 2.75832 7.47179 2.72921V1.92154H6.56146V2.72921C5.99313 2.83865 5.55663 3.06921 5.25196 3.42088C4.94718 3.77265 4.79479 4.16349 4.79479 4.59338C4.79479 5.09426 4.94652 5.49726 5.24996 5.80238C5.5534 6.10749 6.04785 6.3831 6.73329 6.62921C7.44185 6.8891 7.92585 7.12226 8.18529 7.32871C8.44463 7.53504 8.57429 7.81215 8.57429 8.16004C8.57429 8.57804 8.42346 8.88165 8.12179 9.07088C7.82002 9.26021 7.4794 9.35488 7.09996 9.35488C6.72474 9.35488 6.38907 9.2421 6.09296 9.01654C5.79674 8.79088 5.56913 8.46093 5.41013 8.02671L4.56663 8.37038C4.73929 8.86515 4.98735 9.25827 5.31079 9.54971C5.63435 9.84115 6.04013 10.0438 6.52813 10.1575V10.9985ZM6.99996 12.7934C6.12474 12.7934 5.3019 12.6269 4.53146 12.294C3.7609 11.9612 3.09057 11.5097 2.52046 10.9395C1.95035 10.3694 1.49885 9.6991 1.16596 8.92854C0.833071 8.1581 0.666626 7.33526 0.666626 6.46004C0.666626 5.58482 0.833071 4.76199 1.16596 3.99154C1.49885 3.22099 1.95035 2.55065 2.52046 1.98054C3.09057 1.41043 3.7609 0.958932 4.53146 0.626043C5.3019 0.293154 6.12474 0.126709 6.99996 0.126709C7.87518 0.126709 8.69802 0.293154 9.46846 0.626043C10.239 0.958932 10.9093 1.41043 11.4795 1.98054C12.0496 2.55065 12.5011 3.22099 12.834 3.99154C13.1668 4.76199 13.3333 5.58482 13.3333 6.46004C13.3333 7.33526 13.1668 8.1581 12.834 8.92854C12.5011 9.6991 12.0496 10.3694 11.4795 10.9395C10.9093 11.5097 10.239 11.9612 9.46846 12.294C8.69802 12.6269 7.87518 12.7934 6.99996 12.7934ZM6.99996 11.7934C8.48885 11.7934 9.74996 11.2767 10.7833 10.2434C11.8166 9.21004 12.3333 7.94893 12.3333 6.46004C12.3333 4.97115 11.8166 3.71004 10.7833 2.67671C9.74996 1.64338 8.48885 1.12671 6.99996 1.12671C5.51107 1.12671 4.24996 1.64338 3.21663 2.67671C2.18329 3.71004 1.66663 4.97115 1.66663 6.46004C1.66663 7.94893 2.18329 9.21004 3.21663 10.2434C4.24996 11.2767 5.51107 11.7934 6.99996 11.7934Z" fill="black"/>
</svg>
