<svg width="4" height="17" viewBox="0 0 4 17" fill="none" xmlns="http://www.w3.org/2000/svg">
<path d="M2 16.46C1.45 16.46 0.979167 16.2641 0.5875 15.8725C0.195833 15.4808 0 15.01 0 14.46C0 13.91 0.195833 13.4391 0.5875 13.0475C0.979167 12.6558 1.45 12.46 2 12.46C2.55 12.46 3.02083 12.6558 3.4125 13.0475C3.80417 13.4391 4 13.91 4 14.46C4 15.01 3.80417 15.4808 3.4125 15.8725C3.02083 16.2641 2.55 16.46 2 16.46ZM2 10.46C1.45 10.46 0.979167 10.2641 0.5875 9.87246C0.195833 9.48079 0 9.00996 0 8.45996C0 7.90996 0.195833 7.43913 0.5875 7.04746C0.979167 6.65579 1.45 6.45996 2 6.45996C2.55 6.45996 3.02083 6.65579 3.4125 7.04746C3.80417 7.43913 4 7.90996 4 8.45996C4 9.00996 3.80417 9.48079 3.4125 9.87246C3.02083 10.2641 2.55 10.46 2 10.46ZM2 4.45996C1.45 4.45996 0.979167 4.26413 0.5875 3.87246C0.195833 3.48079 0 3.00996 0 2.45996C0 1.90996 0.195833 1.43913 0.5875 1.04746C0.979167 0.655794 1.45 0.459961 2 0.459961C2.55 0.459961 3.02083 0.655794 3.4125 1.04746C3.80417 1.43913 4 1.90996 4 2.45996C4 3.00996 3.80417 3.48079 3.4125 3.87246C3.02083 4.26413 2.55 4.45996 2 4.45996Z" fill="#717171"/>
</svg>
