<svg width="280" height="225" viewBox="0 0 280 225" fill="none" xmlns="http://www.w3.org/2000/svg">
<g clip-path="url(#clip0_3517_6402)">
<path d="M46.9907 224.403C46.9907 224.403 42.9567 214.475 55.0582 207.03L46.9907 224.403Z" fill="#F0F0F0"/>
<path d="M42.0298 224.222C42.0298 224.222 40.7993 217.146 31.2751 217.207L42.0298 224.222Z" fill="#F0F0F0"/>
<path d="M182.056 224.403C182.056 224.403 178.022 214.475 190.124 207.03L182.056 224.403Z" fill="#F0F0F0"/>
<path d="M177.095 224.222C177.095 224.222 175.865 217.146 166.341 217.207L177.095 224.222Z" fill="#F0F0F0"/>
<path d="M178.734 160.126C198.099 160.126 213.798 144.43 213.798 125.069C213.798 105.708 198.099 90.0129 178.734 90.0129C159.368 90.0129 143.669 105.708 143.669 125.069C143.669 144.43 159.368 160.126 178.734 160.126Z" fill="#F0F0F0"/>
<path d="M178.83 125.069H178.926L180.66 224.46H177L178.83 125.069Z" fill="#F0F0F0"/>
<path d="M254.016 177.536C268.14 177.536 279.591 166.089 279.591 151.967C279.591 137.846 268.14 126.398 254.016 126.398C239.891 126.398 228.441 137.846 228.441 151.967C228.441 166.089 239.891 177.536 254.016 177.536Z" fill="#F0F0F0"/>
<path d="M254.086 151.967H254.156L255.421 224.46H252.751L254.086 151.967Z" fill="#F0F0F0"/>
<path d="M112.395 152.227C112.885 152.171 113.356 152.008 113.776 151.75C114.196 151.491 114.555 151.144 114.826 150.733C115.098 150.321 115.275 149.855 115.347 149.367C115.419 148.879 115.383 148.382 115.241 147.91L124.963 140.899L119.14 138.688L110.801 145.684C110.023 145.974 109.379 146.54 108.99 147.273C108.601 148.006 108.495 148.857 108.691 149.663C108.888 150.47 109.373 151.176 110.056 151.649C110.738 152.121 111.571 152.327 112.395 152.227Z" fill="#FFB6B6"/>
<path d="M105.267 220.993L102.181 220.992L100.712 209.088H105.268L105.267 220.993Z" fill="#FFB6B6"/>
<path d="M106.055 223.984L96.1011 223.984V223.858C96.1011 222.831 96.5093 221.846 97.2359 221.119C97.9624 220.393 98.9478 219.985 99.9753 219.985L106.055 219.985L106.055 223.984Z" fill="#2F2E41"/>
<path d="M81.6885 220.993L78.6016 220.992L77.1333 209.088H81.6891L81.6885 220.993Z" fill="#FFB6B6"/>
<path d="M82.4761 223.984L72.5225 223.984V223.858C72.5225 222.831 72.9307 221.846 73.6573 221.119C74.3838 220.393 75.3692 219.985 76.3967 219.985L82.4763 219.985L82.4761 223.984Z" fill="#2F2E41"/>
<path d="M84.0731 154.796L77.5311 190.564L75.2429 218.975L82.6718 218.61L86.9006 191.021L97.4117 166.999L100.54 218.543L107.379 218.566L111.058 153.365L84.0731 154.796Z" fill="#2F2E41"/>
<path d="M111.615 114.099L115.426 129.51L111.086 144.462L111.073 144.506V144.574C111.073 144.588 111.073 144.61 111.073 144.637C111.072 144.693 111.071 144.775 111.07 144.881C111.067 145.094 111.063 145.403 111.058 145.786C111.047 146.552 111.029 147.617 111.001 148.81C110.946 151.199 110.852 154.096 110.697 156.148C110.631 157.008 109.916 157.803 108.712 158.521C107.526 159.228 105.956 159.804 104.375 160.257C102.798 160.709 101.228 161.034 100.051 161.247C99.463 161.353 98.9737 161.43 98.6321 161.481C98.4615 161.506 98.3275 161.526 98.2366 161.539C98.1913 161.545 98.1563 161.549 98.1331 161.552C98.1215 161.554 98.1125 161.554 98.1067 161.555C98.1038 161.556 98.1012 161.555 98.0999 161.555C91.6914 162.085 87.7292 161.26 85.3831 160.321C84.2094 159.851 83.4374 159.352 82.9641 158.978C82.7273 158.791 82.5644 158.634 82.4631 158.527C82.4586 158.522 82.4547 158.517 82.4504 158.512C83.4122 156.407 83.9607 152.802 84.2512 148.608C84.5525 144.259 84.5825 139.22 84.4885 134.439C84.3946 129.657 84.1768 125.126 83.9827 121.792C83.8856 120.124 83.7947 118.755 83.7278 117.803C83.6943 117.327 83.6668 116.955 83.6477 116.702C83.6427 116.635 83.6379 116.576 83.634 116.526L92.3088 111.732L102.681 110.545L111.615 114.099Z" fill="#FFE000" stroke="#040C13" stroke-width="0.66"/>
<path d="M86.5437 117.274V133.563L86.5476 133.59L86.5486 133.591V133.592C86.5488 133.593 86.5491 133.595 86.5496 133.597L86.5691 133.724C86.5823 133.814 86.6002 133.945 86.6208 134.113C86.6623 134.449 86.7133 134.93 86.7488 135.505C86.8199 136.657 86.8302 138.177 86.5935 139.669C86.3559 141.166 85.8745 142.597 84.9919 143.607C84.179 144.537 83.0018 145.139 81.2673 145.073L80.9128 145.051C79.9607 144.968 79.2505 144.655 78.7205 144.177C78.1873 143.695 77.8128 143.025 77.572 142.195C77.0871 140.523 77.1639 138.273 77.5007 135.838C77.8364 133.411 78.4223 130.849 78.9265 128.567C79.3949 126.447 79.801 124.538 79.8416 123.243L79.8445 122.992C79.8257 120.595 80.7302 119.009 81.6306 118.021C82.0827 117.525 82.5362 117.178 82.8748 116.956C83.0437 116.845 83.1839 116.765 83.28 116.714C83.3009 116.703 83.3201 116.693 83.3367 116.684L86.5437 117.274Z" fill="#FFE000" stroke="#040C13" stroke-width="0.66"/>
<path d="M112.002 114.224C112.121 114.257 112.295 114.309 112.509 114.382C112.938 114.527 113.527 114.757 114.166 115.095C115.449 115.775 116.9 116.875 117.679 118.57L117.715 118.649L117.784 118.7L117.979 118.432C117.802 118.675 117.787 118.698 117.785 118.7L117.787 118.702C117.789 118.703 117.793 118.706 117.797 118.709C117.805 118.715 117.818 118.725 117.835 118.737C117.869 118.762 117.92 118.799 117.985 118.847C118.117 118.945 118.309 119.088 118.552 119.272C119.038 119.641 119.727 120.175 120.538 120.831C122.162 122.143 124.272 123.941 126.224 125.893C128.18 127.85 129.957 129.941 130.936 131.837C131.86 133.627 132.019 135.121 131.136 136.2L130.945 136.41C128.464 138.89 124.682 141.669 121.506 143.834C119.921 144.914 118.491 145.838 117.458 146.493C116.942 146.82 116.524 147.08 116.236 147.258C116.156 147.307 116.084 147.35 116.024 147.386L112.644 143.56L121.78 135.285L122.05 135.041L121.781 134.796L114.142 127.838L109.389 116.093L111.964 114.214C111.976 114.217 111.989 114.221 112.002 114.224Z" fill="#FFE000" stroke="#040C13" stroke-width="0.66"/>
<path d="M104.337 100.725C104.336 102.72 103.542 104.634 102.131 106.044C100.719 107.454 98.805 108.247 96.8093 108.247C94.8136 108.247 92.8995 107.454 91.4879 106.044C90.0762 104.634 89.2825 102.72 89.2812 100.725V100.436C89.3584 98.4677 90.2045 96.6078 91.638 95.256C93.0714 93.9042 94.9779 93.1682 96.948 93.206C98.9182 93.2438 100.795 94.0524 102.175 95.4583C103.556 96.8641 104.33 98.7551 104.332 100.725H104.337Z" fill="#FFB6B6"/>
<path d="M97.9537 99.512C98.4353 99.4331 98.9573 99.358 99.3888 99.5794C100.327 100.059 100.111 101.419 100.624 102.316C100.826 102.672 101.153 102.963 101.288 103.348C101.423 103.734 101.34 104.215 101.552 104.587C101.858 105.124 102.689 105.203 103.234 104.883C103.749 104.526 104.123 103.999 104.289 103.395C104.47 102.882 104.623 102.316 105.06 101.981C105.219 101.891 105.361 101.774 105.482 101.636C105.572 101.454 105.607 101.249 105.582 101.047C105.582 99.7451 105.38 98.7359 105.674 97.4744C106.146 95.4407 106.578 94.4354 105.083 92.9274C104.318 92.1649 103.333 91.6612 102.267 91.4868C101.304 91.3289 99.8858 92.6732 98.9111 92.6424C96.4319 92.5442 94.3399 90.2485 91.9763 90.99C90.9429 91.3146 90.0469 91.9738 89.4297 92.8639C88.2739 94.5664 88.378 95.225 88.5455 97.2568C88.543 97.4111 88.5881 97.5624 88.6746 97.6902C88.7613 97.7942 88.9019 97.85 88.9867 97.9559C89.0779 98.0959 89.1123 98.2653 89.083 98.4297C89.0572 98.7607 88.9799 99.0856 88.8538 99.3927C88.822 99.444 88.8023 99.5019 88.7963 99.562C88.7903 99.6221 88.7981 99.6827 88.8191 99.7393C88.8665 99.8037 88.9345 99.8499 89.0117 99.8703C89.9749 100.217 91.0151 99.5487 92.0457 99.566C93.0762 99.5833 94.0548 100.273 95.1181 100.123C96.0563 99.9781 97.0079 99.668 97.9537 99.512Z" fill="#2F2E41"/>
<path d="M97.9037 141.354C97.8395 141.379 97.7727 141.396 97.7046 141.405L89.3454 142.572C89.1432 142.601 88.9371 142.56 88.7611 142.456C88.5851 142.353 88.4497 142.192 88.3771 142.001L81.1818 123.283C81.1352 123.161 81.1152 123.032 81.1233 122.902C81.1315 122.772 81.1674 122.646 81.2288 122.532C81.2902 122.417 81.3755 122.317 81.4789 122.239C81.5824 122.16 81.7015 122.105 81.8283 122.077L89.6893 120.323C89.75 120.309 89.8087 120.288 89.8638 120.259L97.5097 116.263C97.5688 116.232 97.6312 116.207 97.6956 116.19L106.11 113.948C106.326 113.89 106.555 113.914 106.754 114.015C106.952 114.117 107.106 114.288 107.186 114.496L113.46 130.818C113.515 130.96 113.533 131.114 113.512 131.265C113.492 131.416 113.433 131.559 113.341 131.681L111.172 134.595C111.069 134.732 110.931 134.837 110.771 134.898L106.029 136.72C105.995 136.733 105.962 136.749 105.931 136.767L98.0291 141.294C97.9889 141.317 97.9469 141.337 97.9037 141.354Z" fill="white"/>
<path d="M101.793 116.443L100.724 116.728L97.8928 117.483L97.8877 117.484L94.0111 119.511L92.5724 120.263L92.5717 120.263L90.411 121.392L90.3518 121.406L88.1071 121.906L87.0223 122.149L82.5977 123.136L89.5438 141.206L94.1033 140.57L95.2213 140.414L97.6041 140.081L97.6318 140.077L105.289 135.69L109.947 133.9L112.075 131.044L106.028 115.314L101.793 116.443Z" fill="#E4E4E4"/>
<path d="M107.024 117.906L83.9893 126.756L84.3837 127.783L107.419 118.932L107.024 117.906Z" fill="white"/>
<path d="M108.339 121.326L85.3042 130.177L85.6987 131.203L108.734 122.353L108.339 121.326Z" fill="white"/>
<path d="M110.995 128.236L87.9604 137.087L88.3549 138.113L111.39 129.263L110.995 128.236Z" fill="white"/>
<path d="M101.793 116.443L108.689 134.383L107.663 134.778L100.724 116.728L101.793 116.443Z" fill="white"/>
<path d="M94.0111 119.51L92.595 123.45L92.104 124.816L90.9587 128.004L90.7132 128.686L90.4674 129.371L90.1442 130.27L87.8228 136.729L87.2192 135.159L89.112 129.892L89.5403 128.699L89.603 128.525L90.1094 127.115L90.7483 125.337L91.2396 123.97L92.5716 120.263L92.5722 120.263L94.0111 119.51Z" fill="white"/>
<path d="M88.1072 121.906L95.221 140.414L94.1032 140.57L87.0222 122.149L88.1072 121.906Z" fill="white"/>
<path d="M86.5845 139.628C88.3931 139.628 89.8593 138.162 89.8593 136.354C89.8593 134.546 88.3931 133.08 86.5845 133.08C84.776 133.08 83.3098 134.546 83.3098 136.354C83.3098 138.162 84.776 139.628 86.5845 139.628Z" fill="#FFB6B6"/>
<path d="M221.806 116.822C253.946 116.822 280 90.7734 280 58.641C280 26.5085 253.946 0.459961 221.806 0.459961C189.667 0.459961 163.612 26.5085 163.612 58.641C163.612 90.7734 189.667 116.822 221.806 116.822Z" fill="#E4E4E4"/>
<path opacity="0.1" d="M264.775 19.7805C270.203 32.4752 270.939 46.686 266.852 59.8735C262.765 73.061 254.121 84.3659 242.465 91.7681C230.808 99.1703 216.899 102.187 203.222 100.28C189.545 98.3731 176.992 91.6661 167.807 81.3576C171.123 89.1135 176.085 96.0559 182.351 101.704C188.618 107.352 196.037 111.57 204.095 114.067C212.154 116.563 220.659 117.278 229.021 116.163C237.384 115.047 245.404 112.126 252.525 107.604C259.647 103.082 265.7 97.0655 270.265 89.9722C274.83 82.8789 277.798 74.8781 278.963 66.5242C280.128 58.1703 279.463 49.663 277.013 41.5917C274.563 33.5204 270.387 26.0782 264.775 19.7805Z" fill="black"/>
<path d="M221.646 58.6406H221.486L218.609 223.594H224.684L221.646 58.6406Z" fill="#E4E4E4"/>
<path d="M264.121 224.297H0.316312C0.232421 224.297 0.151966 224.264 0.0926455 224.204C0.0333254 224.145 0 224.065 0 223.981C0 223.897 0.0333254 223.816 0.0926455 223.757C0.151966 223.698 0.232421 223.665 0.316312 223.665H264.121C264.205 223.665 264.285 223.698 264.345 223.757C264.404 223.816 264.437 223.897 264.437 223.981C264.437 224.065 264.404 224.145 264.345 224.204C264.285 224.264 264.205 224.297 264.121 224.297Z" fill="#CACACA"/>
</g>
<defs>
<clipPath id="clip0_3517_6402">
<rect width="280" height="224" fill="white" transform="translate(0 0.459961)"/>
</clipPath>
</defs>
</svg>
