<svg width="224" height="225" viewBox="0 0 224 225" fill="none" xmlns="http://www.w3.org/2000/svg">
<path d="M112 224.46C173.856 224.46 224 174.316 224 112.46C224 50.6041 173.856 0.459961 112 0.459961C50.1441 0.459961 0 50.6041 0 112.46C0 174.316 50.1441 224.46 112 224.46Z" fill="#E6F1FC"/>
<mask id="mask0_2486_6939" style="mask-type:luminance" maskUnits="userSpaceOnUse" x="0" y="0" width="224" height="225">
<path d="M112 224.46C173.856 224.46 224 174.316 224 112.46C224 50.6041 173.856 0.459961 112 0.459961C50.1441 0.459961 0 50.6041 0 112.46C0 174.316 50.1441 224.46 112 224.46Z" fill="white"/>
</mask>
<g mask="url(#mask0_2486_6939)">
<path fill-rule="evenodd" clip-rule="evenodd" d="M111.767 12.46C128.283 12.46 141.672 25.8489 141.672 42.365V106.339H81.8618V42.365C81.8618 25.8489 95.2508 12.46 111.767 12.46Z" fill="black"/>
<path fill-rule="evenodd" clip-rule="evenodd" d="M111.767 21.5996C122.429 21.5996 131.073 30.2431 131.073 40.9054V61.3469C131.073 72.0092 122.429 80.6527 111.767 80.6527C101.105 80.6527 92.4612 72.0092 92.4612 61.3469V40.9054C92.4612 30.2431 101.105 21.5996 111.767 21.5996Z" fill="#A36B2A"/>
<path d="M131.83 48.8547H129.558C127.05 48.8547 125.016 50.8885 125.016 53.3973V55.6686C125.016 58.1773 127.05 60.2111 129.558 60.2111H131.83C134.338 60.2111 136.372 58.1773 136.372 55.6686V53.3973C136.372 50.8885 134.338 48.8547 131.83 48.8547Z" fill="#DBA358"/>
<path d="M93.9752 48.8547H91.7039C89.1951 48.8547 87.1614 50.8885 87.1614 53.3973V55.6686C87.1614 58.1773 89.1951 60.2111 91.7039 60.2111H93.9752C96.484 60.2111 98.5177 58.1773 98.5177 55.6686V53.3973C98.5177 50.8885 96.484 48.8547 93.9752 48.8547Z" fill="#DBA358"/>
<path fill-rule="evenodd" clip-rule="evenodd" d="M92.461 21.4906L111.388 14.6768L131.073 21.4906L133.344 27.5473L131.073 31.4111C125.574 32.9282 119.77 35.7999 113.66 40.0262C107.549 44.2526 100.483 47.4114 92.461 49.5029L89.4326 35.1182L92.461 21.4906Z" fill="black"/>
<path d="M121.988 56.1087C123.242 56.1087 124.259 55.0918 124.259 53.8374C124.259 52.583 123.242 51.5662 121.988 51.5662C120.733 51.5662 119.716 52.583 119.716 53.8374C119.716 55.0918 120.733 56.1087 121.988 56.1087Z" fill="black"/>
<path d="M124.259 70.1077C123.754 75.8828 123.502 80.5982 123.502 84.254C123.502 90.8671 132.369 96.7834 150.103 102.003C158.812 104.566 165.158 112.069 166.241 121.082L168.149 136.962C162.716 137.961 159.253 140.839 157.758 145.597C156.263 150.355 154.315 160.355 151.914 175.597L157.64 224.225L130.954 244.617H91.7379L69.0517 224.225L72.3458 175.597C70.1153 159.506 68.3389 149.349 67.0165 145.127C65.6941 140.906 61.3398 137.517 53.9536 134.962L56.5865 120.101C58.0995 111.561 64.3436 104.628 72.6791 102.234C90.9144 96.9945 100.032 91.1151 100.032 84.5954C100.032 80.9574 99.7796 75.8576 99.2749 69.2961L124.259 70.1077Z" fill="#A36B2A"/>
<mask id="mask1_2486_6939" style="mask-type:luminance" maskUnits="userSpaceOnUse" x="53" y="69" width="116" height="176">
<path d="M124.259 70.1077C123.754 75.8828 123.502 80.5982 123.502 84.254C123.502 90.8671 132.369 96.7834 150.103 102.003C158.812 104.566 165.158 112.069 166.241 121.082L168.149 136.962C162.716 137.961 159.253 140.839 157.758 145.597C156.263 150.355 154.315 160.355 151.914 175.597L157.64 224.225L130.954 244.617H91.7379L69.0517 224.225L72.3458 175.597C70.1153 159.506 68.3389 149.349 67.0165 145.127C65.6941 140.906 61.3398 137.517 53.9536 134.962L56.5865 120.101C58.0995 111.561 64.3436 104.628 72.6791 102.234C90.9144 96.9945 100.032 91.1151 100.032 84.5954C100.032 80.9574 99.7796 75.8576 99.2749 69.2961L124.259 70.1077Z" fill="white"/>
</mask>
<g mask="url(#mask1_2486_6939)">
<path fill-rule="evenodd" clip-rule="evenodd" d="M78.6774 88.7896C86.8488 100.513 98.0048 106.308 112.145 106.174C126.286 106.041 137.19 100.246 144.856 88.7896L164.385 101.58L174.149 175.098H152.914L148.209 224.225L132.522 243.048H93.3066L76.0517 224.225L71.3458 175.098H49.385L59.1491 102.556L78.6774 88.7896Z" fill="#041E42"/>
</g>
<mask id="mask2_2486_6939" style="mask-type:luminance" maskUnits="userSpaceOnUse" x="53" y="69" width="116" height="176">
<path d="M124.259 70.1077C123.754 75.8828 123.502 80.5982 123.502 84.254C123.502 90.8671 132.369 96.7834 150.103 102.003C158.812 104.566 165.158 112.069 166.241 121.082L168.149 136.962C162.716 137.961 159.253 140.839 157.758 145.597C156.263 150.355 154.315 160.355 151.914 175.597L157.64 224.225L130.954 244.617H91.7379L69.0517 224.225L72.3458 175.597C70.1153 159.506 68.3389 149.349 67.0165 145.127C65.6941 140.906 61.3398 137.517 53.9536 134.962L56.5865 120.101C58.0995 111.561 64.3436 104.628 72.6791 102.234C90.9144 96.9945 100.032 91.1151 100.032 84.5954C100.032 80.9574 99.7796 75.8576 99.2749 69.2961L124.259 70.1077Z" fill="white"/>
</mask>
<g mask="url(#mask2_2486_6939)">
<path fill-rule="evenodd" clip-rule="evenodd" d="M87.4651 88.8867C96.5403 135.22 101.9 165 103.544 178.228C105.188 191.456 105.436 218.292 104.287 258.734L63.5027 254.028L71.3458 180.303C73.1154 171.741 74.1611 163.558 74.4831 155.754C74.8051 147.95 74.7385 126.8 74.2836 92.3042L87.4651 88.8867Z" fill="#0071DC"/>
</g>
<mask id="mask3_2486_6939" style="mask-type:luminance" maskUnits="userSpaceOnUse" x="53" y="69" width="116" height="176">
<path d="M124.259 70.1077C123.754 75.8828 123.502 80.5982 123.502 84.254C123.502 90.8671 132.369 96.7834 150.103 102.003C158.812 104.566 165.158 112.069 166.241 121.082L168.149 136.962C162.716 137.961 159.253 140.839 157.758 145.597C156.263 150.355 154.315 160.355 151.914 175.597L157.64 224.225L130.954 244.617H91.7379L69.0517 224.225L72.3458 175.597C70.1153 159.506 68.3389 149.349 67.0165 145.127C65.6941 140.906 61.3398 137.517 53.9536 134.962L56.5865 120.101C58.0995 111.561 64.3436 104.628 72.6791 102.234C90.9144 96.9945 100.032 91.1151 100.032 84.5954C100.032 80.9574 99.7796 75.8576 99.2749 69.2961L124.259 70.1077Z" fill="white"/>
</mask>
<g mask="url(#mask3_2486_6939)">
<path fill-rule="evenodd" clip-rule="evenodd" d="M85.6708 124.914C85.1095 124.914 84.6638 125.225 84.6638 125.601L85.0105 129.434C85.0435 129.663 85.3324 129.843 85.6708 129.843C86.0174 129.843 86.3063 129.663 86.3476 129.434L86.686 125.601C86.686 125.225 86.2403 124.914 85.6708 124.914ZM80.3802 128.053C80.05 127.865 79.5548 128.094 79.2742 128.576C78.9853 129.058 79.0348 129.597 79.3732 129.785L82.8893 131.412C83.1122 131.485 83.4093 131.33 83.5826 131.036C83.7559 130.742 83.7394 130.407 83.5578 130.26L80.3802 128.053ZM91.9848 129.785C92.315 129.597 92.3645 129.058 92.0839 128.576C91.795 128.094 91.2998 127.865 90.9696 128.053L87.792 130.26C87.6104 130.407 87.5939 130.742 87.7672 131.036C87.9405 131.33 88.2377 131.485 88.4605 131.412L91.9848 129.785ZM79.3732 134.681C79.0348 134.877 78.9853 135.417 79.2742 135.899C79.5548 136.381 80.05 136.61 80.3802 136.422L83.5578 134.215C83.7394 134.06 83.7559 133.725 83.5826 133.431C83.4093 133.136 83.1122 132.981 82.8893 133.063L79.3732 134.681ZM88.4605 133.063C88.2377 132.981 87.9405 133.136 87.7672 133.431C87.5939 133.725 87.6104 134.06 87.792 134.215L90.9696 136.422C91.2998 136.61 91.795 136.381 92.0839 135.899C92.3645 135.417 92.315 134.877 91.9848 134.681L88.4605 133.063ZM85.679 134.632C85.3324 134.632 85.0435 134.804 85.0105 135.033L84.6638 138.866C84.6638 139.25 85.1095 139.56 85.6708 139.56C86.2403 139.56 86.686 139.25 86.686 138.866L86.3476 135.033C86.3063 134.804 86.0174 134.632 85.679 134.632Z" fill="#FEBC11"/>
</g>
<mask id="mask4_2486_6939" style="mask-type:luminance" maskUnits="userSpaceOnUse" x="53" y="69" width="116" height="176">
<path d="M124.259 70.1077C123.754 75.8828 123.502 80.5982 123.502 84.254C123.502 90.8671 132.369 96.7834 150.103 102.003C158.812 104.566 165.158 112.069 166.241 121.082L168.149 136.962C162.716 137.961 159.253 140.839 157.758 145.597C156.263 150.355 154.315 160.355 151.914 175.597L157.64 224.225L130.954 244.617H91.7379L69.0517 224.225L72.3458 175.597C70.1153 159.506 68.3389 149.349 67.0165 145.127C65.6941 140.906 61.3398 137.517 53.9536 134.962L56.5865 120.101C58.0995 111.561 64.3436 104.628 72.6791 102.234C90.9144 96.9945 100.032 91.1151 100.032 84.5954C100.032 80.9574 99.7796 75.8576 99.2749 69.2961L124.259 70.1077Z" fill="white"/>
</mask>
<g mask="url(#mask4_2486_6939)">
<path d="M92.7785 142.821H80.5733C80.0341 142.821 79.5969 143.258 79.5969 143.797V147.215C79.5969 147.754 80.0341 148.191 80.5733 148.191H92.7785C93.3177 148.191 93.7549 147.754 93.7549 147.215V143.797C93.7549 143.258 93.3177 142.821 92.7785 142.821Z" fill="#D5D6D8"/>
</g>
<mask id="mask5_2486_6939" style="mask-type:luminance" maskUnits="userSpaceOnUse" x="53" y="69" width="116" height="176">
<path d="M124.259 70.1077C123.754 75.8828 123.502 80.5982 123.502 84.254C123.502 90.8671 132.369 96.7834 150.103 102.003C158.812 104.566 165.158 112.069 166.241 121.082L168.149 136.962C162.716 137.961 159.253 140.839 157.758 145.597C156.263 150.355 154.315 160.355 151.914 175.597L157.64 224.225L130.954 244.617H91.7379L69.0517 224.225L72.3458 175.597C70.1153 159.506 68.3389 149.349 67.0165 145.127C65.6941 140.906 61.3398 137.517 53.9536 134.962L56.5865 120.101C58.0995 111.561 64.3436 104.628 72.6791 102.234C90.9144 96.9945 100.032 91.1151 100.032 84.5954C100.032 80.9574 99.7796 75.8576 99.2749 69.2961L124.259 70.1077Z" fill="white"/>
</mask>
<g mask="url(#mask5_2486_6939)">
<path fill-rule="evenodd" clip-rule="evenodd" d="M136.286 88.8867C128.979 134.877 124.665 164.658 123.344 178.228C122.023 191.799 121.945 207.131 123.11 224.225L124.679 258.734H169.189L152.914 180.303C150.971 172.408 149.857 164.056 149.571 155.248C149.285 146.44 149.251 125.459 149.467 92.3042L136.286 88.8867Z" fill="#0071DC"/>
</g>
<path d="M106.089 65.874C107.981 66.1995 109.874 66.3622 111.767 66.3622C113.66 66.3622 115.552 66.1995 117.445 65.874V68.3646C115.552 70.3505 113.66 71.3434 111.767 71.3434C109.874 71.3434 107.981 70.3505 106.089 68.3646V65.874Z" fill="#AA3A1D"/>
<path d="M101.546 56.1087C102.801 56.1087 103.817 55.0918 103.817 53.8374C103.817 52.583 102.801 51.5662 101.546 51.5662C100.292 51.5662 99.2749 52.583 99.2749 53.8374C99.2749 55.0918 100.292 56.1087 101.546 56.1087Z" fill="black"/>
<path d="M74.4831 211.676L93.7165 236.91C100.495 239.192 107.156 240.193 113.699 239.911C120.241 239.629 126.777 238.06 133.307 235.205L148.209 211.676C157.62 256.643 162.326 290.63 162.326 313.636C162.326 336.643 157.097 400.957 146.64 506.577H130.954L116.836 304.225H112.13L99.5811 506.577H82.3262C69.2391 398.892 62.4417 334.578 61.934 313.636C61.4264 292.695 65.6094 258.708 74.4831 211.676Z" fill="#515357"/>
<mask id="mask6_2486_6939" style="mask-type:luminance" maskUnits="userSpaceOnUse" x="61" y="211" width="102" height="296">
<path d="M74.4831 211.676L93.7165 236.91C100.495 239.192 107.156 240.193 113.699 239.911C120.241 239.629 126.777 238.06 133.307 235.205L148.209 211.676C157.62 256.643 162.326 290.63 162.326 313.636C162.326 336.643 157.097 400.957 146.64 506.577H130.954L116.836 304.225H112.13L99.5811 506.577H82.3262C69.2391 398.892 62.4417 334.578 61.934 313.636C61.4264 292.695 65.6094 258.708 74.4831 211.676Z" fill="white"/>
</mask>
<g mask="url(#mask6_2486_6939)">
<path fill-rule="evenodd" clip-rule="evenodd" d="M87.4651 95.5972C96.5403 141.93 101.9 171.711 103.544 184.939C105.188 198.167 105.436 225.002 104.287 265.445L63.5027 260.739L71.3458 187.013C73.4373 181.785 74.4831 177.602 74.4831 174.464C74.4831 171.327 74.4166 146.177 74.2836 99.0146L87.4651 95.5972Z" fill="#0071DC"/>
</g>
<mask id="mask7_2486_6939" style="mask-type:luminance" maskUnits="userSpaceOnUse" x="61" y="211" width="102" height="296">
<path d="M74.4831 211.676L93.7165 236.91C100.495 239.192 107.156 240.193 113.699 239.911C120.241 239.629 126.777 238.06 133.307 235.205L148.209 211.676C157.62 256.643 162.326 290.63 162.326 313.636C162.326 336.643 157.097 400.957 146.64 506.577H130.954L116.836 304.225H112.13L99.5811 506.577H82.3262C69.2391 398.892 62.4417 334.578 61.934 313.636C61.4264 292.695 65.6094 258.708 74.4831 211.676Z" fill="white"/>
</mask>
<g mask="url(#mask7_2486_6939)">
<path fill-rule="evenodd" clip-rule="evenodd" d="M136.286 92.46C128.979 138.451 124.665 168.231 123.344 181.802C122.023 195.372 121.945 210.704 123.111 227.798L124.679 265.445L159.189 262.308L152.915 183.876C150.823 179.693 149.709 175.342 149.571 170.821C149.434 166.301 149.399 141.32 149.467 95.8774L136.286 92.46Z" fill="#0071DC"/>
</g>
</g>
<mask id="mask8_2486_6939" style="mask-type:luminance" maskUnits="userSpaceOnUse" x="0" y="0" width="224" height="225">
<path d="M112 224.46C173.856 224.46 224 174.316 224 112.46C224 50.6041 173.856 0.459961 112 0.459961C50.1441 0.459961 0 50.6041 0 112.46C0 174.316 50.1441 224.46 112 224.46Z" fill="white"/>
</mask>
<g mask="url(#mask8_2486_6939)">
<path fill-rule="evenodd" clip-rule="evenodd" d="M43.631 150.46C50.2564 148.328 54.8398 145.709 57.381 142.603C61.1929 137.944 61.8176 135.966 61.3096 128.853C60.9709 124.111 59.0066 119.527 55.4167 115.103L33.8096 132.781L43.631 150.46Z" fill="#855823"/>
<path fill-rule="evenodd" clip-rule="evenodd" d="M61.3096 97.4243C57.3811 100.043 53.4525 103.317 49.5239 107.246C45.5954 111.174 41.6668 116.412 37.7382 122.96C46.719 120.155 52.6118 120.155 55.4168 122.96C58.2217 125.765 58.8765 132.313 57.3811 142.603L63.2739 136.71L61.3096 97.4243Z" fill="#041E42"/>
<path fill-rule="evenodd" clip-rule="evenodd" d="M80.9525 46.2219C84.7501 41.1147 90.732 40.46 96.6668 40.46C100.623 40.46 104.552 41.7695 108.452 44.3885L101.25 55.7814C106.139 59.4481 107.187 62.5473 104.393 65.079C100.202 68.8766 81.0834 62.1981 78.9882 64.0314C76.893 65.8647 64.9872 110.26 57.3811 128.853C52.3103 141.248 47.727 148.45 43.6311 150.46C38.234 149.993 34.3054 148.684 31.8453 146.531C28.1553 143.303 27.0001 140.115 27.9168 133.96C28.8334 127.805 33.8096 119.031 39.7025 109.21C45.5953 99.3885 77.1549 51.329 80.9525 46.2219Z" fill="#A36B2A"/>
<path fill-rule="evenodd" clip-rule="evenodd" d="M177.202 150.46C170.577 148.328 165.994 145.709 163.452 142.603C159.641 137.944 159.016 135.966 159.524 128.853C159.863 124.111 161.827 119.527 165.417 115.103L187.024 132.781L177.202 150.46Z" fill="#855823"/>
<path fill-rule="evenodd" clip-rule="evenodd" d="M159.524 97.4243C163.452 100.043 167.381 103.317 171.31 107.246C175.238 111.174 179.167 116.412 183.095 122.96C174.115 120.155 168.222 120.155 165.417 122.96C162.612 125.765 161.957 132.313 163.452 142.603L157.56 136.71L159.524 97.4243Z" fill="#041E42"/>
<path fill-rule="evenodd" clip-rule="evenodd" d="M139.881 45.3052C135.429 40.329 129.149 40.4593 124.167 40.4593C120.845 40.4593 117.572 41.769 114.345 44.3885L120.238 56.1742C116.397 61.5869 116.397 64.8608 120.238 65.9957C124.079 67.1306 131.282 66.4758 141.845 64.0314C151.179 94.8505 158.382 116.458 163.452 128.853C168.523 141.248 173.107 148.45 177.202 150.46C182.6 149.993 186.528 148.684 188.988 146.531C192.678 143.303 193.833 139.198 192.917 133.043C192 126.889 187.024 119.031 181.131 109.21C175.238 99.3885 144.333 50.2814 139.881 45.3052Z" fill="#A36B2A"/>
<path d="M100.5 62.3171C105.707 62.3171 109.929 58.0958 109.929 52.8885C109.929 47.6813 105.707 43.46 100.5 43.46C95.2928 43.46 91.0715 47.6813 91.0715 52.8885C91.0715 58.0958 95.2928 62.3171 100.5 62.3171Z" fill="black"/>
<path d="M122.429 62.3171C127.636 62.3171 131.857 58.0958 131.857 52.8885C131.857 47.6813 127.636 43.46 122.429 43.46C117.221 43.46 113 47.6813 113 52.8885C113 58.0958 117.221 62.3171 122.429 62.3171Z" fill="black"/>
<path d="M130 43.46H94V49.46H130V43.46Z" fill="black"/>
<path fill-rule="evenodd" clip-rule="evenodd" d="M100.857 43.46H122.071L119.714 52.8885H103.214L100.857 43.46Z" fill="black"/>
<path d="M111.464 52.8886C113.417 52.8886 115 51.3056 115 49.3529C115 47.4001 113.417 45.8171 111.464 45.8171C109.511 45.8171 107.928 47.4001 107.928 49.3529C107.928 51.3056 109.511 52.8886 111.464 52.8886Z" fill="#3A3B3E"/>
<path d="M93.7857 67.0314C100.295 67.0314 105.571 61.7547 105.571 55.2457C105.571 48.7366 100.295 43.46 93.7857 43.46C87.2766 43.46 82 48.7366 82 55.2457C82 61.7547 87.2766 67.0314 93.7857 67.0314Z" fill="black"/>
<path d="M93.7858 62.3172C97.6912 62.3172 100.857 59.1512 100.857 55.2457C100.857 51.3403 97.6912 48.1743 93.7858 48.1743C89.8803 48.1743 86.7144 51.3403 86.7144 55.2457C86.7144 59.1512 89.8803 62.3172 93.7858 62.3172Z" fill="#99C6F1"/>
<mask id="mask9_2486_6939" style="mask-type:luminance" maskUnits="userSpaceOnUse" x="86" y="48" width="15" height="15">
<path d="M93.7858 62.3172C97.6912 62.3172 100.857 59.1512 100.857 55.2457C100.857 51.3403 97.6912 48.1743 93.7858 48.1743C89.8803 48.1743 86.7144 51.3403 86.7144 55.2457C86.7144 59.1512 89.8803 62.3172 93.7858 62.3172Z" fill="white"/>
</mask>
<g mask="url(#mask9_2486_6939)">
<path d="M107.929 43.46H79.6428V55.2457H107.929V43.46Z" fill="#CCE3F8"/>
</g>
<path d="M129.143 67.0314C135.652 67.0314 140.929 61.7547 140.929 55.2457C140.929 48.7366 135.652 43.46 129.143 43.46C122.634 43.46 117.357 48.7366 117.357 55.2457C117.357 61.7547 122.634 67.0314 129.143 67.0314Z" fill="black"/>
<path d="M93.7858 64.0851C98.6676 64.0851 102.625 60.1276 102.625 55.2458C102.625 50.364 98.6676 46.4065 93.7858 46.4065C88.904 46.4065 84.9465 50.364 84.9465 55.2458C84.9465 60.1276 88.904 64.0851 93.7858 64.0851Z" stroke="#3A3B3E" stroke-width="1.17857"/>
<path d="M129.143 62.3172C133.048 62.3172 136.214 59.1512 136.214 55.2457C136.214 51.3403 133.048 48.1743 129.143 48.1743C125.238 48.1743 122.072 51.3403 122.072 55.2457C122.072 59.1512 125.238 62.3172 129.143 62.3172Z" fill="#99C6F1"/>
<mask id="mask10_2486_6939" style="mask-type:luminance" maskUnits="userSpaceOnUse" x="122" y="48" width="15" height="15">
<path d="M129.143 62.3172C133.048 62.3172 136.214 59.1512 136.214 55.2457C136.214 51.3403 133.048 48.1743 129.143 48.1743C125.238 48.1743 122.072 51.3403 122.072 55.2457C122.072 59.1512 125.238 62.3172 129.143 62.3172Z" fill="white"/>
</mask>
<g mask="url(#mask10_2486_6939)">
<path d="M143.286 43.46H115V55.2457H143.286V43.46Z" fill="#CCE3F8"/>
</g>
<path d="M129.143 64.0851C134.025 64.0851 137.982 60.1276 137.982 55.2458C137.982 50.364 134.025 46.4065 129.143 46.4065C124.261 46.4065 120.303 50.364 120.303 55.2458C120.303 60.1276 124.261 64.0851 129.143 64.0851Z" stroke="#3A3B3E" stroke-width="1.17857"/>
</g>
</svg>
