<svg width="24" height="25" viewBox="0 0 24 25" fill="none" xmlns="http://www.w3.org/2000/svg">
<path d="M5.68788 19.5755C4.96022 19.5755 4.34313 19.3211 3.83663 18.8125C3.3303 18.304 3.07713 17.6865 3.07713 16.96H1.69238V7.07546C1.69238 6.61513 1.84655 6.23079 2.15488 5.92246C2.46322 5.61413 2.84755 5.45996 3.30788 5.45996H16.5386V9.07546H18.8464L22.3079 13.7292V16.96H20.6924C20.6924 17.6865 20.4377 18.304 19.9284 18.8125C19.4189 19.3211 18.8003 19.5755 18.0726 19.5755C17.3448 19.5755 16.7277 19.3211 16.2214 18.8125C15.7149 18.304 15.4616 17.6865 15.4616 16.96H8.30788C8.30788 17.6908 8.05313 18.3094 7.54363 18.8157C7.0343 19.3222 6.41572 19.5755 5.68788 19.5755ZM5.69238 18.5755C6.14238 18.5755 6.52413 18.4187 6.83763 18.1052C7.15113 17.7917 7.30788 17.41 7.30788 16.96C7.30788 16.51 7.15113 16.1282 6.83763 15.8147C6.52413 15.5012 6.14238 15.3445 5.69238 15.3445C5.24238 15.3445 4.86063 15.5012 4.54713 15.8147C4.2338 16.1282 4.07713 16.51 4.07713 16.96C4.07713 17.41 4.2338 17.7917 4.54713 18.1052C4.86063 18.4187 5.24238 18.5755 5.69238 18.5755ZM18.0771 18.5755C18.5271 18.5755 18.9088 18.4187 19.2221 18.1052C19.5356 17.7917 19.6924 17.41 19.6924 16.96C19.6924 16.51 19.5356 16.1282 19.2221 15.8147C18.9088 15.5012 18.5271 15.3445 18.0771 15.3445C17.6271 15.3445 17.2454 15.5012 16.9319 15.8147C16.6184 16.1282 16.4616 16.51 16.4616 16.96C16.4616 17.41 16.6184 17.7917 16.9319 18.1052C17.2454 18.4187 17.6271 18.5755 18.0771 18.5755ZM16.5386 13.96H21.2501L18.3079 10.0755H16.5386V13.96Z" fill="black"/>
</svg>
