<svg width="56" height="39" viewBox="0 0 56 39" fill="none" xmlns="http://www.w3.org/2000/svg">
<path d="M10.9673 38.4345C9.02689 38.4345 7.38134 37.7563 6.03067 36.3999C4.68045 35.0439 4.00534 33.3972 4.00534 31.4599H0.312669V5.10121C0.312669 3.87366 0.72378 2.84877 1.546 2.02655C2.36822 1.20432 3.39311 0.793213 4.62067 0.793213H39.9027V10.4345H46.0567L55.2873 22.8445V31.4599H50.9793C50.9793 33.3972 50.3002 35.0439 48.942 36.3999C47.5833 37.7563 45.9338 38.4345 43.9933 38.4345C42.0524 38.4345 40.4069 37.7563 39.0567 36.3999C37.706 35.0439 37.0307 33.3972 37.0307 31.4599H17.954C17.954 33.4088 17.2747 35.0583 15.916 36.4085C14.5578 37.7592 12.9082 38.4345 10.9673 38.4345ZM10.9793 35.7679C12.1793 35.7679 13.1973 35.3499 14.0333 34.5139C14.8693 33.6779 15.2873 32.6599 15.2873 31.4599C15.2873 30.2599 14.8693 29.2419 14.0333 28.4059C13.1973 27.5699 12.1793 27.1519 10.9793 27.1519C9.77934 27.1519 8.76134 27.5699 7.92534 28.4059C7.08978 29.2419 6.672 30.2599 6.672 31.4599C6.672 32.6599 7.08978 33.6779 7.92534 34.5139C8.76134 35.3499 9.77934 35.7679 10.9793 35.7679ZM2.97934 28.7932H4.70267C5.08222 27.6172 5.85489 26.6052 7.02067 25.7572C8.18645 24.9092 9.506 24.4852 10.9793 24.4852C12.3847 24.4852 13.6873 24.9008 14.8873 25.7319C16.0873 26.5625 16.8771 27.583 17.2567 28.7932H37.236V3.45988H4.62067C4.21045 3.45988 3.83422 3.63077 3.492 3.97255C3.15022 4.31432 2.97934 4.69055 2.97934 5.10121V28.7932ZM44.0053 35.7679C45.2053 35.7679 46.2231 35.3499 47.0587 34.5139C47.8947 33.6779 48.3127 32.6599 48.3127 31.4599C48.3127 30.2599 47.8947 29.2419 47.0587 28.4059C46.2231 27.5699 45.2053 27.1519 44.0053 27.1519C42.8053 27.1519 41.7873 27.5699 40.9513 28.4059C40.1153 29.2419 39.6973 30.2599 39.6973 31.4599C39.6973 32.6599 40.1153 33.6779 40.9513 34.5139C41.7873 35.3499 42.8053 35.7679 44.0053 35.7679ZM39.9027 23.4599H52.4667L44.6207 13.1012H39.9027V23.4599Z" fill="black"/>
</svg>
