<svg width="16" height="17" viewBox="0 0 16 17" fill="none" xmlns="http://www.w3.org/2000/svg">
<path opacity="0.2" d="M13.5537 13.4331C13.2767 13.482 12.992 13.4634 12.7237 13.3788C12.4554 13.2943 12.2114 13.1463 12.0125 12.9475L9.38062 9.95996H10.75C11.2245 9.96048 11.6934 9.85694 12.1236 9.65666C12.5538 9.45637 12.9349 9.1642 13.24 8.80072C13.5451 8.43724 13.7667 8.0113 13.8894 7.55288C14.0121 7.09447 14.0328 6.61473 13.95 6.14746L14.9725 11.4081C15.0524 11.8647 14.9479 12.3344 14.6819 12.714C14.416 13.0937 14.0102 13.3523 13.5537 13.4331Z" fill="black"/>
<path d="M11 7.45996H9.50002C9.36741 7.45996 9.24024 7.40728 9.14647 7.31351C9.0527 7.21975 9.00002 7.09257 9.00002 6.95996C9.00002 6.82735 9.0527 6.70018 9.14647 6.60641C9.24024 6.51264 9.36741 6.45996 9.50002 6.45996H11C11.1326 6.45996 11.2598 6.51264 11.3536 6.60641C11.4473 6.70018 11.5 6.82735 11.5 6.95996C11.5 7.09257 11.4473 7.21975 11.3536 7.31351C11.2598 7.40728 11.1326 7.45996 11 7.45996ZM6.50002 6.45996H6.00002V5.95996C6.00002 5.82735 5.94734 5.70018 5.85358 5.60641C5.75981 5.51264 5.63263 5.45996 5.50002 5.45996C5.36741 5.45996 5.24024 5.51264 5.14647 5.60641C5.0527 5.70018 5.00002 5.82735 5.00002 5.95996V6.45996H4.50002C4.36741 6.45996 4.24024 6.51264 4.14647 6.60641C4.0527 6.70018 4.00002 6.82735 4.00002 6.95996C4.00002 7.09257 4.0527 7.21975 4.14647 7.31351C4.24024 7.40728 4.36741 7.45996 4.50002 7.45996H5.00002V7.95996C5.00002 8.09257 5.0527 8.21975 5.14647 8.31351C5.24024 8.40728 5.36741 8.45996 5.50002 8.45996C5.63263 8.45996 5.75981 8.40728 5.85358 8.31351C5.94734 8.21975 6.00002 8.09257 6.00002 7.95996V7.45996H6.50002C6.63263 7.45996 6.75981 7.40728 6.85358 7.31351C6.94734 7.21975 7.00002 7.09257 7.00002 6.95996C7.00002 6.82735 6.94734 6.70018 6.85358 6.60641C6.75981 6.51264 6.63263 6.45996 6.50002 6.45996ZM15.0925 13.0006C14.9041 13.2697 14.659 13.4942 14.3745 13.6585C14.09 13.8228 13.773 13.9227 13.4457 13.9514C13.1185 13.98 12.7889 13.9367 12.4802 13.8243C12.1715 13.712 11.8911 13.5335 11.6588 13.3012C11.6513 13.2937 11.6438 13.2862 11.6369 13.2781L9.15502 10.46H6.84252L4.36315 13.2781L4.34127 13.3012C3.9189 13.7227 3.3467 13.9596 2.75002 13.96C2.42155 13.9598 2.09708 13.8878 1.79942 13.7489C1.50175 13.61 1.23811 13.4076 1.02701 13.1559C0.815916 12.9043 0.66248 12.6095 0.577484 12.2922C0.492489 11.9749 0.477995 11.6428 0.535022 11.3193C0.534721 11.3164 0.534721 11.3135 0.535022 11.3106L1.55815 6.05496C1.71042 5.18813 2.16331 4.40269 2.83724 3.83666C3.51118 3.27062 4.36304 2.96021 5.24315 2.95996H10.75C11.6275 2.96136 12.4767 3.27 13.1503 3.83229C13.8239 4.39458 14.2794 5.17501 14.4375 6.03809C14.4375 6.04184 14.4375 6.04559 14.4375 6.04934L15.4606 11.31C15.4609 11.3129 15.4609 11.3158 15.4606 11.3187C15.5136 11.6095 15.5083 11.9078 15.4451 12.1965C15.3819 12.4852 15.2621 12.7585 15.0925 13.0006ZM10.75 9.45996C11.4794 9.45996 12.1788 9.17023 12.6946 8.6545C13.2103 8.13878 13.5 7.43931 13.5 6.70996C13.5 5.98062 13.2103 5.28114 12.6946 4.76542C12.1788 4.24969 11.4794 3.95996 10.75 3.95996H5.24315C4.59749 3.96054 3.97272 4.1888 3.47876 4.60457C2.98479 5.02034 2.65327 5.597 2.54252 6.23309V6.24121L1.51877 11.4968C1.47352 11.7574 1.51207 12.0256 1.62888 12.2628C1.74569 12.5001 1.93474 12.6942 2.16884 12.8172C2.40294 12.9403 2.67003 12.9859 2.93169 12.9475C3.19335 12.9091 3.4361 12.7888 3.62502 12.6037L6.24502 9.62934C6.29193 9.57612 6.34964 9.53349 6.41429 9.50428C6.47895 9.47508 6.54908 9.45997 6.62002 9.45996H10.75ZM14.4813 11.4968L13.935 8.68434C13.5991 9.22684 13.1302 9.67463 12.5729 9.98535C12.0155 10.2961 11.3881 10.4594 10.75 10.46H10.4875L12.375 12.6043C12.5173 12.7428 12.6904 12.8455 12.8801 12.904C13.0698 12.9626 13.2707 12.9753 13.4663 12.9412C13.7921 12.8837 14.0818 12.6994 14.2719 12.4286C14.4621 12.1579 14.5371 11.8228 14.4806 11.4968H14.4813Z" fill="black"/>
</svg>
