<svg width="24" height="25" viewBox="0 0 24 25" fill="none" xmlns="http://www.w3.org/2000/svg">
<path d="M4.1155 21.96V11.0752H2.5V5.864H7.67125C7.53025 5.70116 7.43442 5.51775 7.38375 5.31375C7.33308 5.10991 7.30775 4.89583 7.30775 4.6715C7.30775 3.92366 7.5695 3.288 8.093 2.7645C8.6165 2.241 9.25217 1.97925 10 1.97925C10.3833 1.97925 10.7385 2.05966 11.0655 2.2205C11.3923 2.3815 11.6846 2.59658 11.9423 2.86575C12.1999 2.58625 12.4923 2.36866 12.8193 2.213C13.1461 2.05716 13.5012 1.97925 13.8845 1.97925C14.6325 1.97925 15.2682 2.241 15.7917 2.7645C16.3152 3.288 16.577 3.92366 16.577 4.6715C16.577 4.89333 16.5491 5.10425 16.4932 5.30425C16.4374 5.50425 16.3442 5.69083 16.2135 5.864H21.5V11.0752H19.8845V21.96H4.1155ZM13.8845 3.47925C13.5467 3.47925 13.2635 3.5935 13.035 3.822C12.8065 4.0505 12.6923 4.33366 12.6923 4.6715C12.6923 5.00933 12.8065 5.2925 13.035 5.521C13.2635 5.74966 13.5467 5.864 13.8845 5.864C14.2223 5.864 14.5056 5.74966 14.7343 5.521C14.9628 5.2925 15.077 5.00933 15.077 4.6715C15.077 4.33366 14.9628 4.0505 14.7343 3.822C14.5056 3.5935 14.2223 3.47925 13.8845 3.47925ZM8.80775 4.6715C8.80775 5.00933 8.922 5.2925 9.1505 5.521C9.379 5.74966 9.66217 5.864 10 5.864C10.3378 5.864 10.621 5.74966 10.8495 5.521C11.078 5.2925 11.1923 5.00933 11.1923 4.6715C11.1923 4.33366 11.078 4.0505 10.8495 3.822C10.621 3.5935 10.3378 3.47925 10 3.47925C9.66217 3.47925 9.379 3.5935 9.1505 3.822C8.922 4.0505 8.80775 4.33366 8.80775 4.6715ZM4 7.36375V9.5755H11.25V7.36375H4ZM11.25 20.46V11.0752H5.61525V20.46H11.25ZM12.75 20.46H18.3848V11.0752H12.75V20.46ZM20 9.5755V7.36375H12.75V9.5755H20Z" fill="black"/>
</svg>
