<svg width="48" height="43" viewBox="0 0 48 43" fill="none" xmlns="http://www.w3.org/2000/svg">
<path d="M23.3847 42.7934V40.1267H41.0253C41.4698 40.1267 41.8544 39.99 42.1793 39.7167C42.5042 39.4429 42.6667 39.0838 42.6667 38.6394V20.27C42.6667 15.2754 40.83 11.1036 37.1567 7.75471C33.4829 4.40626 29.0973 2.73204 24 2.73204C18.9027 2.73204 14.5171 4.40626 10.8433 7.75471C7.17 11.1036 5.33333 15.2754 5.33333 20.27V35.4087H4C2.90933 35.4087 1.97 35.0403 1.182 34.3034C0.394 33.5669 0 32.6534 0 31.5627V26.5367C0 25.7403 0.258888 25.0336 0.776666 24.4167C1.29489 23.7994 1.92489 23.2976 2.66667 22.9114L2.71267 19.6347C2.79489 16.8516 3.42489 14.2738 4.60267 11.9014C5.78044 9.52849 7.33089 7.46338 9.254 5.70604C11.1771 3.94871 13.4113 2.5796 15.9567 1.59871C18.502 0.617377 21.1831 0.126709 24 0.126709C26.8169 0.126709 29.4956 0.617377 32.036 1.59871C34.576 2.5796 36.8102 3.94627 38.7387 5.69871C40.6667 7.45071 42.2171 9.51293 43.39 11.8854C44.5624 14.2583 45.1949 16.836 45.2873 19.6187L45.3333 22.8294C46.0409 23.1609 46.6622 23.6072 47.1973 24.168C47.7324 24.7285 48 25.4018 48 26.188V31.9627C48 32.7489 47.7324 33.4225 47.1973 33.9834C46.6622 34.5438 46.0409 34.9898 45.3333 35.3214V38.6394C45.3333 39.7985 44.9138 40.7805 44.0747 41.5854C43.2351 42.3907 42.2187 42.7934 41.0253 42.7934H23.3847ZM17.0253 25.5627C16.4751 25.5627 15.9958 25.3756 15.5873 25.0014C15.1789 24.6267 14.9747 24.1643 14.9747 23.614C14.9747 23.0634 15.1789 22.5925 15.5873 22.2014C15.9958 21.8098 16.4751 21.614 17.0253 21.614C17.576 21.614 18.0556 21.8098 18.464 22.2014C18.8724 22.5925 19.0767 23.0634 19.0767 23.614C19.0767 24.1643 18.8724 24.6267 18.464 25.0014C18.0556 25.3756 17.576 25.5627 17.0253 25.5627ZM30.9747 25.5627C30.424 25.5627 29.9444 25.3756 29.536 25.0014C29.1276 24.6267 28.9233 24.1643 28.9233 23.614C28.9233 23.0634 29.1276 22.5925 29.536 22.2014C29.9444 21.8098 30.424 21.614 30.9747 21.614C31.5249 21.614 32.0042 21.8098 32.4127 22.2014C32.8211 22.5925 33.0253 23.0634 33.0253 23.614C33.0253 24.1643 32.8211 24.6267 32.4127 25.0014C32.0042 25.3756 31.5249 25.5627 30.9747 25.5627ZM9.91267 21.3267C9.67 17.3334 10.9556 13.93 13.7693 11.1167C16.5831 8.30293 20.0378 6.89604 24.1333 6.89604C27.576 6.89604 30.6264 7.92937 33.2847 9.99604C35.9429 12.0627 37.566 14.778 38.154 18.142C34.6224 18.0976 31.3447 17.1967 28.3207 15.4394C25.2967 13.682 22.976 11.2376 21.3587 8.10604C20.716 11.1829 19.3784 13.8796 17.346 16.196C15.3136 18.512 12.8358 20.2223 9.91267 21.3267Z" fill="black"/>
</svg>
