<svg width="16" height="17" viewBox="0 0 16 17" fill="none" xmlns="http://www.w3.org/2000/svg">
<path d="M7.49935 11.6267H8.49935V7.79338H7.49935V11.6267ZM7.99935 6.65238C8.15191 6.65238 8.27979 6.60076 8.38302 6.49754C8.48624 6.39432 8.53785 6.26643 8.53785 6.11388C8.53785 5.96132 8.48624 5.83343 8.38302 5.73021C8.27979 5.6271 8.15191 5.57554 7.99935 5.57554C7.84679 5.57554 7.7189 5.6271 7.61568 5.73021C7.51246 5.83343 7.46085 5.96132 7.46085 6.11388C7.46085 6.26643 7.51246 6.39432 7.61568 6.49754C7.7189 6.60076 7.84679 6.65238 7.99935 6.65238ZM8.00052 14.7934C7.12452 14.7934 6.30113 14.6272 5.53035 14.2947C4.75957 13.9623 4.08913 13.5111 3.51902 12.9412C2.9489 12.3713 2.49752 11.7012 2.16485 10.9307C1.83229 10.1603 1.66602 9.3371 1.66602 8.46121C1.66602 7.58521 1.83224 6.76182 2.16468 5.99104C2.49713 5.22026 2.94829 4.54982 3.51818 3.97971C4.08807 3.4096 4.75824 2.95821 5.52868 2.62554C6.29913 2.29299 7.12229 2.12671 7.99818 2.12671C8.87418 2.12671 9.69757 2.29293 10.4683 2.62538C11.2391 2.95782 11.9096 3.40899 12.4797 3.97888C13.0498 4.54876 13.5012 5.21893 13.8338 5.98938C14.1664 6.75982 14.3327 7.58299 14.3327 8.45888C14.3327 9.33488 14.1665 10.1583 13.834 10.929C13.5016 11.6998 13.0504 12.3703 12.4805 12.9404C11.9106 13.5105 11.2405 13.9619 10.47 14.2945C9.69957 14.6271 8.87641 14.7934 8.00052 14.7934ZM7.99935 13.7934C9.48824 13.7934 10.7493 13.2767 11.7827 12.2434C12.816 11.21 13.3327 9.94893 13.3327 8.46004C13.3327 6.97115 12.816 5.71004 11.7827 4.67671C10.7493 3.64338 9.48824 3.12671 7.99935 3.12671C6.51046 3.12671 5.24935 3.64338 4.21602 4.67671C3.18268 5.71004 2.66602 6.97115 2.66602 8.46004C2.66602 9.94893 3.18268 11.21 4.21602 12.2434C5.24935 13.2767 6.51046 13.7934 7.99935 13.7934Z" fill="black"/>
</svg>
