<svg width="16" height="17" viewBox="0 0 16 17" fill="none" xmlns="http://www.w3.org/2000/svg">
<path opacity="0.2" d="M14.5 4.45996V12.46C14.5 12.5926 14.4473 12.7197 14.3536 12.8135C14.2598 12.9073 14.1326 12.96 14 12.96H2C1.86739 12.96 1.74021 12.9073 1.64645 12.8135C1.55268 12.7197 1.5 12.5926 1.5 12.46V4.45996C1.5 4.32735 1.55268 4.20018 1.64645 4.10641C1.74021 4.01264 1.86739 3.95996 2 3.95996H14C14.1326 3.95996 14.2598 4.01264 14.3536 4.10641C14.4473 4.20018 14.5 4.32735 14.5 4.45996Z" fill="black"/>
<path d="M14 3.45996H2C1.73478 3.45996 1.48043 3.56532 1.29289 3.75285C1.10536 3.94039 1 4.19474 1 4.45996V12.46C1 12.7252 1.10536 12.9795 1.29289 13.1671C1.48043 13.3546 1.73478 13.46 2 13.46H14C14.2652 13.46 14.5196 13.3546 14.7071 13.1671C14.8946 12.9795 15 12.7252 15 12.46V4.45996C15 4.19474 14.8946 3.94039 14.7071 3.75285C14.5196 3.56532 14.2652 3.45996 14 3.45996ZM14 12.46H2V4.45996H14V12.46ZM13 8.45996C13 8.59257 12.9473 8.71975 12.8536 8.81351C12.7598 8.90728 12.6326 8.95996 12.5 8.95996H3.5C3.36739 8.95996 3.24021 8.90728 3.14645 8.81351C3.05268 8.71975 3 8.59257 3 8.45996C3 8.32735 3.05268 8.20018 3.14645 8.10641C3.24021 8.01264 3.36739 7.95996 3.5 7.95996H12.5C12.6326 7.95996 12.7598 8.01264 12.8536 8.10641C12.9473 8.20018 13 8.32735 13 8.45996ZM13 6.45996C13 6.59257 12.9473 6.71975 12.8536 6.81351C12.7598 6.90728 12.6326 6.95996 12.5 6.95996H3.5C3.36739 6.95996 3.24021 6.90728 3.14645 6.81351C3.05268 6.71975 3 6.59257 3 6.45996C3 6.32735 3.05268 6.20018 3.14645 6.10641C3.24021 6.01264 3.36739 5.95996 3.5 5.95996H12.5C12.6326 5.95996 12.7598 6.01264 12.8536 6.10641C12.9473 6.20018 13 6.32735 13 6.45996ZM4.5 10.46C4.5 10.5926 4.44732 10.7197 4.35355 10.8135C4.25979 10.9073 4.13261 10.96 4 10.96H3.5C3.36739 10.96 3.24021 10.9073 3.14645 10.8135C3.05268 10.7197 3 10.5926 3 10.46C3 10.3274 3.05268 10.2002 3.14645 10.1064C3.24021 10.0126 3.36739 9.95996 3.5 9.95996H4C4.13261 9.95996 4.25979 10.0126 4.35355 10.1064C4.44732 10.2002 4.5 10.3274 4.5 10.46ZM10.5 10.46C10.5 10.5926 10.4473 10.7197 10.3536 10.8135C10.2598 10.9073 10.1326 10.96 10 10.96H6C5.86739 10.96 5.74021 10.9073 5.64645 10.8135C5.55268 10.7197 5.5 10.5926 5.5 10.46C5.5 10.3274 5.55268 10.2002 5.64645 10.1064C5.74021 10.0126 5.86739 9.95996 6 9.95996H10C10.1326 9.95996 10.2598 10.0126 10.3536 10.1064C10.4473 10.2002 10.5 10.3274 10.5 10.46ZM13 10.46C13 10.5926 12.9473 10.7197 12.8536 10.8135C12.7598 10.9073 12.6326 10.96 12.5 10.96H12C11.8674 10.96 11.7402 10.9073 11.6464 10.8135C11.5527 10.7197 11.5 10.5926 11.5 10.46C11.5 10.3274 11.5527 10.2002 11.6464 10.1064C11.7402 10.0126 11.8674 9.95996 12 9.95996H12.5C12.6326 9.95996 12.7598 10.0126 12.8536 10.1064C12.9473 10.2002 13 10.3274 13 10.46Z" fill="black"/>
</svg>
