<svg width="17" height="16" viewBox="0 0 17 16" fill="none" xmlns="http://www.w3.org/2000/svg">
<path d="M12.5513 15.1266H4.18583V5.95995L9.41021 0.799744L9.77875 1.16829C9.85472 1.24412 9.91861 1.34134 9.97042 1.45995C10.0222 1.57856 10.0481 1.68752 10.0481 1.78683V1.91829L9.19542 5.95995H14.9871C15.3354 5.95995 15.6469 6.09724 15.9215 6.37183C16.196 6.64641 16.3333 6.95787 16.3333 7.3062V8.33183C16.3333 8.40766 16.3248 8.49044 16.3077 8.58016C16.2906 8.66988 16.2682 8.75266 16.2404 8.8285L13.9648 14.2229C13.8505 14.4793 13.6582 14.694 13.3879 14.867C13.1175 15.0401 12.8386 15.1266 12.5513 15.1266ZM5.01917 14.2933H12.5513C12.6688 14.2933 12.789 14.2612 12.9119 14.197C13.0348 14.133 13.1283 14.0262 13.1923 13.8766L15.5 8.45995V7.3062C15.5 7.15662 15.4519 7.0337 15.3558 6.93745C15.2596 6.84134 15.1367 6.79329 14.9871 6.79329H8.16021L9.125 2.24204L5.01917 6.31579V14.2933ZM4.18583 5.95995V6.79329H1.33333V14.2933H4.18583V15.1266H0.5V5.95995H4.18583Z" fill="black"/>
</svg>
