<svg width="20" height="21" viewBox="0 0 20 21" fill="none" xmlns="http://www.w3.org/2000/svg">
<path d="M16.2371 17.2548L11.0191 12.0368C10.6025 12.3916 10.1233 12.6662 9.58164 12.8606C9.03997 13.055 8.49567 13.1523 7.94872 13.1523C6.614 13.1523 5.48435 12.6902 4.55976 11.7662C3.63532 10.8422 3.1731 9.71323 3.1731 8.37935C3.1731 7.04532 3.63511 5.91539 4.55914 4.98955C5.48317 4.06386 6.61212 3.60101 7.94601 3.60101C9.28004 3.60101 10.41 4.06324 11.3358 4.98768C12.2615 5.91226 12.7243 7.04192 12.7243 8.37664C12.7243 8.95567 12.6218 9.51601 12.4166 10.0577C12.2115 10.5993 11.9423 11.0625 11.6089 11.4471L16.8268 16.6652L16.2371 17.2548ZM7.94872 12.3189C9.05442 12.3189 9.98789 11.9383 10.7491 11.1771C11.5104 10.4159 11.891 9.48247 11.891 8.37664C11.891 7.2708 11.5104 6.33733 10.7491 5.57622C9.98789 4.81497 9.05442 4.43435 7.94872 4.43435C6.84289 4.43435 5.90942 4.81497 5.1483 5.57622C4.38705 6.33733 4.00643 7.2708 4.00643 8.37664C4.00643 9.48247 4.38705 10.4159 5.1483 11.1771C5.90942 11.9383 6.84289 12.3189 7.94872 12.3189Z" fill="#040C13"/>
</svg>
