<svg width="16" height="14" viewBox="0 0 16 14" fill="none" xmlns="http://www.w3.org/2000/svg">
<path d="M2.4167 13.0433V3.87665L0.913574 0.682693L1.89899 0.213318L3.61857 3.87665H12.3815L14.1011 0.213318L15.0865 0.66186L13.5834 3.87665V13.0433H2.4167ZM6.75003 7.75165H9.25003C9.4035 7.75165 9.53212 7.70012 9.63587 7.59707C9.73975 7.49401 9.7917 7.36637 9.7917 7.21415C9.7917 7.06179 9.73975 6.93276 9.63587 6.82707C9.53212 6.72123 9.4035 6.66832 9.25003 6.66832H6.75003C6.59656 6.66832 6.46795 6.71985 6.3642 6.8229C6.26031 6.92596 6.20837 7.0536 6.20837 7.20582C6.20837 7.35818 6.26031 7.48721 6.3642 7.5929C6.46795 7.69873 6.59656 7.75165 6.75003 7.75165ZM3.50003 11.96H12.5V4.95998H3.50003V11.96Z" fill="#1D252C"/>
</svg>
