<svg width="16" height="17" viewBox="0 0 16 17" fill="none" xmlns="http://www.w3.org/2000/svg">
<path opacity="0.2" d="M9.5 2.95996V4.95996C9.5 5.09257 9.44732 5.21975 9.35355 5.31351C9.25979 5.40728 9.13261 5.45996 9 5.45996H7C6.86739 5.45996 6.74021 5.40728 6.64645 5.31351C6.55268 5.21975 6.5 5.09257 6.5 4.95996V2.95996C6.5 2.82735 6.55268 2.70018 6.64645 2.60641C6.74021 2.51264 6.86739 2.45996 7 2.45996H9C9.13261 2.45996 9.25979 2.51264 9.35355 2.60641C9.44732 2.70018 9.5 2.82735 9.5 2.95996ZM5 10.96H3C2.86739 10.96 2.74021 11.0126 2.64645 11.1064C2.55268 11.2002 2.5 11.3274 2.5 11.46V13.46C2.5 13.5926 2.55268 13.7197 2.64645 13.8135C2.74021 13.9073 2.86739 13.96 3 13.96H5C5.13261 13.96 5.25979 13.9073 5.35355 13.8135C5.44732 13.7197 5.5 13.5926 5.5 13.46V11.46C5.5 11.3274 5.44732 11.2002 5.35355 11.1064C5.25979 11.0126 5.13261 10.96 5 10.96ZM13 10.96H11C10.8674 10.96 10.7402 11.0126 10.6464 11.1064C10.5527 11.2002 10.5 11.3274 10.5 11.46V13.46C10.5 13.5926 10.5527 13.7197 10.6464 13.8135C10.7402 13.9073 10.8674 13.96 11 13.96H13C13.1326 13.96 13.2598 13.9073 13.3536 13.8135C13.4473 13.7197 13.5 13.5926 13.5 13.46V11.46C13.5 11.3274 13.4473 11.2002 13.3536 11.1064C13.2598 11.0126 13.1326 10.96 13 10.96Z" fill="black"/>
<path d="M14.5 7.45996H8.5V5.95996H9C9.26522 5.95996 9.51957 5.8546 9.70711 5.66707C9.89464 5.47953 10 5.22518 10 4.95996V2.95996C10 2.69474 9.89464 2.44039 9.70711 2.25285C9.51957 2.06532 9.26522 1.95996 9 1.95996H7C6.73478 1.95996 6.48043 2.06532 6.29289 2.25285C6.10536 2.44039 6 2.69474 6 2.95996V4.95996C6 5.22518 6.10536 5.47953 6.29289 5.66707C6.48043 5.8546 6.73478 5.95996 7 5.95996H7.5V7.45996H1.5C1.36739 7.45996 1.24021 7.51264 1.14645 7.60641C1.05268 7.70018 1 7.82735 1 7.95996C1 8.09257 1.05268 8.21975 1.14645 8.31351C1.24021 8.40728 1.36739 8.45996 1.5 8.45996H3.5V10.46H3C2.73478 10.46 2.48043 10.5653 2.29289 10.7529C2.10536 10.9404 2 11.1947 2 11.46V13.46C2 13.7252 2.10536 13.9795 2.29289 14.1671C2.48043 14.3546 2.73478 14.46 3 14.46H5C5.26522 14.46 5.51957 14.3546 5.70711 14.1671C5.89464 13.9795 6 13.7252 6 13.46V11.46C6 11.1947 5.89464 10.9404 5.70711 10.7529C5.51957 10.5653 5.26522 10.46 5 10.46H4.5V8.45996H11.5V10.46H11C10.7348 10.46 10.4804 10.5653 10.2929 10.7529C10.1054 10.9404 10 11.1947 10 11.46V13.46C10 13.7252 10.1054 13.9795 10.2929 14.1671C10.4804 14.3546 10.7348 14.46 11 14.46H13C13.2652 14.46 13.5196 14.3546 13.7071 14.1671C13.8946 13.9795 14 13.7252 14 13.46V11.46C14 11.1947 13.8946 10.9404 13.7071 10.7529C13.5196 10.5653 13.2652 10.46 13 10.46H12.5V8.45996H14.5C14.6326 8.45996 14.7598 8.40728 14.8536 8.31351C14.9473 8.21975 15 8.09257 15 7.95996C15 7.82735 14.9473 7.70018 14.8536 7.60641C14.7598 7.51264 14.6326 7.45996 14.5 7.45996ZM7 2.95996H9V4.95996H7V2.95996ZM5 13.46H3V11.46H5V13.46ZM13 13.46H11V11.46H13V13.46Z" fill="black"/>
</svg>
