<svg width="14" height="17" viewBox="0 0 14 17" fill="none" xmlns="http://www.w3.org/2000/svg">
<path d="M0.75 14.197V12.9472H2.25646V6.72911C2.25646 5.60841 2.60236 4.61751 3.29417 3.7564C3.98583 2.89529 4.87389 2.34452 5.95833 2.10411V1.58494C5.95833 1.29564 6.05951 1.04966 6.26188 0.847024C6.46424 0.644524 6.70993 0.543274 6.99896 0.543274C7.28813 0.543274 7.53417 0.644524 7.73708 0.847024C7.94014 1.04966 8.04167 1.29564 8.04167 1.58494V2.10411C9.12611 2.34452 10.0142 2.89529 10.7058 3.7564C11.3976 4.61751 11.7435 5.60841 11.7435 6.72911V12.9472H13.25V14.197H0.75ZM6.99854 16.5368C6.58396 16.5368 6.22951 16.3893 5.93521 16.0943C5.64076 15.7993 5.49354 15.4447 5.49354 15.0304H8.50646C8.50646 15.4461 8.35882 15.8011 8.06354 16.0954C7.76826 16.3897 7.41326 16.5368 6.99854 16.5368ZM3.50646 12.9472H10.4935V6.72911C10.4935 5.76439 10.1525 4.94098 9.47042 4.2589C8.78819 3.57668 7.96472 3.23557 7 3.23557C6.03528 3.23557 5.21181 3.57668 4.52958 4.2589C3.8475 4.94098 3.50646 5.76439 3.50646 6.72911V12.9472Z" fill="#1D252C"/>
</svg>
