<svg width="21" height="23" viewBox="0 0 21 23" fill="none" xmlns="http://www.w3.org/2000/svg">
<path d="M0.775564 0.533587C0.514453 0.800089 0.363342 1.215 0.363342 1.75234V20.9187C0.363342 21.456 0.514453 21.8709 0.775564 22.1374L0.840009 22.1959L11.8556 11.4601V11.2066L0.840009 0.470757L0.775564 0.533587Z" fill="url(#paint0_linear_2380_1309)"/>
<path d="M15.5233 15.0405L11.8555 11.4601V11.2066L15.5278 7.62617L15.61 7.67275L19.9589 10.0853C21.2 10.77 21.2 11.8967 19.9589 12.5857L15.61 14.9939L15.5233 15.0405Z" fill="url(#paint1_linear_2380_1309)"/>
<path d="M15.61 14.9939L11.8555 11.3333L0.775543 22.1374C1.18777 22.5599 1.85999 22.6108 2.62443 22.1883L15.61 14.9939Z" fill="url(#paint2_linear_2380_1309)"/>
<path d="M15.61 7.67276L2.62443 0.478347C1.85999 0.0601799 1.18777 0.111095 0.775543 0.533595L11.8555 11.3333L15.61 7.67276Z" fill="url(#paint3_linear_2380_1309)"/>
<defs>
<linearGradient id="paint0_linear_2380_1309" x1="10.8775" y1="21.1183" x2="-3.66257" y2="6.20536" gradientUnits="userSpaceOnUse">
<stop stop-color="#00A0FF"/>
<stop offset="0.0066" stop-color="#00A1FF"/>
<stop offset="0.2601" stop-color="#00BEFF"/>
<stop offset="0.5122" stop-color="#00D2FF"/>
<stop offset="0.7604" stop-color="#00DFFF"/>
<stop offset="1" stop-color="#00E3FF"/>
</linearGradient>
<linearGradient id="paint1_linear_2380_1309" x1="21.575" y1="11.3321" x2="0.0666426" y2="11.3321" gradientUnits="userSpaceOnUse">
<stop stop-color="#FFE000"/>
<stop offset="0.4087" stop-color="#FFBD00"/>
<stop offset="0.7754" stop-color="#FFA500"/>
<stop offset="1" stop-color="#FF9C00"/>
</linearGradient>
<linearGradient id="paint2_linear_2380_1309" x1="13.5684" y1="9.34338" x2="-6.1491" y2="-10.8797" gradientUnits="userSpaceOnUse">
<stop stop-color="#FF3A44"/>
<stop offset="1" stop-color="#C31162"/>
</linearGradient>
<linearGradient id="paint3_linear_2380_1309" x1="-2.01352" y1="28.514" x2="6.79124" y2="19.4835" gradientUnits="userSpaceOnUse">
<stop stop-color="#32A071"/>
<stop offset="0.0685" stop-color="#2DA771"/>
<stop offset="0.4762" stop-color="#15CF74"/>
<stop offset="0.8009" stop-color="#06E775"/>
<stop offset="1" stop-color="#00F076"/>
</linearGradient>
</defs>
</svg>
