<svg width="20" height="20" viewBox="0 0 20 20" fill="none" xmlns="http://www.w3.org/2000/svg">
<path d="M4.023 15.0222C4.873 14.3916 5.799 13.8935 6.801 13.528C7.80283 13.1626 8.86917 12.98 10 12.98C11.1308 12.98 12.1972 13.1626 13.199 13.528C14.201 13.8935 15.127 14.3916 15.977 15.0222C16.5987 14.3389 17.0912 13.5479 17.4548 12.6492C17.8183 11.7506 18 10.7775 18 9.72998C18 7.51331 17.2208 5.62581 15.6625 4.06748C14.1042 2.50915 12.2167 1.72998 10 1.72998C7.78333 1.72998 5.89583 2.50915 4.3375 4.06748C2.77917 5.62581 2 7.51331 2 9.72998C2 10.7775 2.18175 11.7506 2.54525 12.6492C2.90875 13.5479 3.40133 14.3389 4.023 15.0222ZM10.0003 10.48C9.08725 10.48 8.31733 10.1666 7.6905 9.53998C7.0635 8.91315 6.75 8.14323 6.75 7.23023C6.75 6.31723 7.06333 5.54731 7.69 4.92048C8.31683 4.29348 9.08675 3.97998 9.99975 3.97998C10.9128 3.97998 11.6827 4.29331 12.3095 4.91998C12.9365 5.54681 13.25 6.31673 13.25 7.22973C13.25 8.14273 12.9367 8.91265 12.31 9.53948C11.6832 10.1665 10.9132 10.48 10.0003 10.48ZM10 19.23C8.68083 19.23 7.44333 18.9819 6.2875 18.4857C5.13167 17.9896 4.12625 17.3139 3.27125 16.4587C2.41608 15.6037 1.74042 14.5983 1.24425 13.4425C0.748083 12.2866 0.5 11.0491 0.5 9.72998C0.5 8.41081 0.748083 7.17331 1.24425 6.01748C1.74042 4.86165 2.41608 3.85623 3.27125 3.00123C4.12625 2.14606 5.13167 1.4704 6.2875 0.974231C7.44333 0.478064 8.68083 0.22998 10 0.22998C11.3192 0.22998 12.5567 0.478064 13.7125 0.974231C14.8683 1.4704 15.8738 2.14606 16.7288 3.00123C17.5839 3.85623 18.2596 4.86165 18.7558 6.01748C19.2519 7.17331 19.5 8.41081 19.5 9.72998C19.5 11.0491 19.2519 12.2866 18.7558 13.4425C18.2596 14.5983 17.5839 15.6037 16.7288 16.4587C15.8738 17.3139 14.8683 17.9896 13.7125 18.4857C12.5567 18.9819 11.3192 19.23 10 19.23ZM10 17.73C10.9025 17.73 11.7727 17.5848 12.6105 17.2945C13.4483 17.004 14.1923 16.5979 14.8422 16.0762C14.1923 15.5736 13.458 15.1819 12.6395 14.9012C11.8208 14.6204 10.941 14.48 10 14.48C9.059 14.48 8.17758 14.6187 7.35575 14.8962C6.53392 15.1739 5.80125 15.5672 5.15775 16.0762C5.80775 16.5979 6.55167 17.004 7.3895 17.2945C8.22733 17.5848 9.0975 17.73 10 17.73ZM10 8.97998C10.4975 8.97998 10.9135 8.81265 11.248 8.47798C11.5827 8.14348 11.75 7.72748 11.75 7.22998C11.75 6.73248 11.5827 6.31648 11.248 5.98198C10.9135 5.64731 10.4975 5.47998 10 5.47998C9.5025 5.47998 9.0865 5.64731 8.752 5.98198C8.41733 6.31648 8.25 6.73248 8.25 7.22998C8.25 7.72748 8.41733 8.14348 8.752 8.47798C9.0865 8.81265 9.5025 8.97998 10 8.97998Z" fill="#E8EAED"/>
</svg>
