<svg width="16" height="15" viewBox="0 0 16 15" fill="none" xmlns="http://www.w3.org/2000/svg">
<path d="M3.17704 11.6723C3.93774 11.1676 4.7094 10.7963 5.49204 10.5585C6.27454 10.3209 7.11052 10.2021 7.99996 10.2021C8.8894 10.2021 9.72538 10.3209 10.5079 10.5585C11.2905 10.7963 12.0638 11.1676 12.8277 11.6723C13.3613 11.0874 13.7594 10.438 14.022 9.72394C14.2845 9.00991 14.4158 8.25519 14.4158 7.45977C14.4158 5.677 13.7918 4.16207 12.5437 2.91498C11.2955 1.66776 9.77934 1.04415 7.99517 1.04415C6.211 1.04415 4.69642 1.66776 3.45142 2.91498C2.20656 4.16207 1.58413 5.677 1.58413 7.45977C1.58413 8.25519 1.71538 9.00991 1.97788 9.72394C2.24052 10.438 2.64024 11.0874 3.17704 11.6723ZM8.00246 8.7179C7.23482 8.7179 6.58281 8.45061 6.04642 7.91602C5.51017 7.38144 5.24204 6.73026 5.24204 5.96248C5.24204 5.19484 5.50934 4.54283 6.04392 4.00644C6.5785 3.47019 7.22968 3.20207 7.99746 3.20207C8.7651 3.20207 9.41711 3.46936 9.9535 4.00394C10.4898 4.53852 10.7579 5.1897 10.7579 5.95748C10.7579 6.72512 10.4906 7.37713 9.956 7.91352C9.42142 8.44977 8.77024 8.7179 8.00246 8.7179ZM8.00579 14.875C6.98454 14.875 6.0226 14.6825 5.11996 14.2975C4.21746 13.9123 3.42843 13.3814 2.75288 12.7046C2.07732 12.0276 1.54711 11.2387 1.16225 10.3377C0.777391 9.43658 0.584961 8.47352 0.584961 7.44852C0.584961 6.42227 0.777461 5.462 1.16246 4.56769C1.5476 3.67338 2.07857 2.88845 2.75538 2.2129C3.43232 1.53734 4.22128 1.00713 5.12225 0.622274C6.02336 0.237413 6.98642 0.0449829 8.01142 0.0449829C9.03767 0.0449829 9.99795 0.237482 10.8923 0.622482C11.7866 1.00762 12.5715 1.53859 13.247 2.2154C13.9226 2.89234 14.4528 3.67894 14.8377 4.57519C15.2225 5.4713 15.415 6.43095 15.415 7.45415C15.415 8.4754 15.2225 9.43734 14.8375 10.34C14.4523 11.2425 13.9213 12.0315 13.2445 12.7071C12.5676 13.3826 11.781 13.9128 10.8848 14.2977C9.98864 14.6826 9.02899 14.875 8.00579 14.875ZM7.99975 13.8758C8.72697 13.8758 9.43927 13.7507 10.1366 13.5004C10.834 13.2501 11.4834 12.8867 12.085 12.4102C11.4695 12.0262 10.8212 11.7287 10.14 11.5177C9.45885 11.3067 8.746 11.2012 8.00142 11.2012C7.25697 11.2012 6.53642 11.2995 5.83975 11.496C5.14309 11.6926 4.50149 11.9973 3.91496 12.4102C4.51649 12.8867 5.16586 13.2501 5.86309 13.5004C6.56031 13.7507 7.27253 13.8758 7.99975 13.8758ZM7.99996 7.71873C8.47704 7.71873 8.88947 7.54491 9.23725 7.19727C9.58489 6.8495 9.75871 6.43707 9.75871 5.95998C9.75871 5.4829 9.58489 5.07047 9.23725 4.72269C8.88947 4.37505 8.47704 4.20123 7.99996 4.20123C7.52288 4.20123 7.11045 4.37505 6.76267 4.72269C6.41503 5.07047 6.24121 5.4829 6.24121 5.95998C6.24121 6.43707 6.41503 6.8495 6.76267 7.19727C7.11045 7.54491 7.52288 7.71873 7.99996 7.71873Z" fill="#1D252C"/>
</svg>
