<svg width="20" height="21" viewBox="0 0 20 21" fill="none" xmlns="http://www.w3.org/2000/svg">
<path d="M5.01915 14.8702C5.72748 14.3446 6.49915 13.9295 7.33415 13.6249C8.16901 13.3205 9.05762 13.1683 9.99998 13.1683C10.9423 13.1683 11.831 13.3205 12.6658 13.6249C13.5008 13.9295 14.2725 14.3446 14.9808 14.8702C15.4989 14.3007 15.9094 13.6415 16.2123 12.8926C16.5152 12.1438 16.6666 11.3329 16.6666 10.4599C16.6666 8.61272 16.0173 7.0398 14.7187 5.74119C13.4201 4.44258 11.8472 3.79327 9.99998 3.79327C8.15276 3.79327 6.57984 4.44258 5.28123 5.74119C3.98262 7.0398 3.33331 8.61272 3.33331 10.4599C3.33331 11.3329 3.48477 12.1438 3.78769 12.8926C4.0906 13.6415 4.50109 14.3007 5.01915 14.8702ZM10.0002 11.0849C9.23936 11.0849 8.59776 10.8238 8.0754 10.3016C7.5529 9.77925 7.29165 9.13765 7.29165 8.37682C7.29165 7.61598 7.55276 6.97439 8.07498 6.45202C8.59734 5.92952 9.23894 5.66827 9.99977 5.66827C10.7606 5.66827 11.4022 5.92938 11.9246 6.45161C12.4471 6.97397 12.7083 7.61557 12.7083 8.3764C12.7083 9.13723 12.4472 9.77883 11.925 10.3012C11.4026 10.8237 10.761 11.0849 10.0002 11.0849ZM9.99998 18.3766C8.90067 18.3766 7.86942 18.1699 6.90623 17.7564C5.94304 17.3429 5.10519 16.7799 4.39269 16.0672C3.68005 15.3547 3.11699 14.5169 2.70352 13.5537C2.29005 12.5905 2.08331 11.5592 2.08331 10.4599C2.08331 9.36064 2.29005 8.32939 2.70352 7.36619C3.11699 6.403 3.68005 5.56515 4.39269 4.85265C5.10519 4.14001 5.94304 3.57695 6.90623 3.16348C7.86942 2.75001 8.90067 2.54327 9.99998 2.54327C11.0993 2.54327 12.1305 2.75001 13.0937 3.16348C14.0569 3.57695 14.8948 4.14001 15.6073 4.85265C16.3199 5.56515 16.883 6.403 17.2964 7.36619C17.7099 8.32939 17.9166 9.36064 17.9166 10.4599C17.9166 11.5592 17.7099 12.5905 17.2964 13.5537C16.883 14.5169 16.3199 15.3547 15.6073 16.0672C14.8948 16.7799 14.0569 17.3429 13.0937 17.7564C12.1305 18.1699 11.0993 18.3766 9.99998 18.3766ZM9.99998 17.1266C10.7521 17.1266 11.4772 17.0056 12.1754 16.7637C12.8736 16.5216 13.4935 16.1832 14.0352 15.7485C13.4935 15.3296 12.8816 15.0032 12.1996 14.7693C11.5173 14.5353 10.7841 14.4183 9.99998 14.4183C9.21581 14.4183 8.4813 14.5339 7.79644 14.7652C7.11158 14.9965 6.50102 15.3243 5.96477 15.7485C6.50644 16.1832 7.12637 16.5216 7.82456 16.7637C8.52276 17.0056 9.2479 17.1266 9.99998 17.1266ZM9.99998 9.83494C10.4146 9.83494 10.7612 9.6955 11.04 9.41661C11.3189 9.13786 11.4583 8.79119 11.4583 8.37661C11.4583 7.96202 11.3189 7.61536 11.04 7.33661C10.7612 7.05772 10.4146 6.91827 9.99998 6.91827C9.5854 6.91827 9.23873 7.05772 8.95998 7.33661C8.68109 7.61536 8.54165 7.96202 8.54165 8.37661C8.54165 8.79119 8.68109 9.13786 8.95998 9.41661C9.23873 9.6955 9.5854 9.83494 9.99998 9.83494Z" fill="#110000"/>
</svg>
