<svg width="16" height="16" viewBox="0 0 16 16" fill="none" xmlns="http://www.w3.org/2000/svg">
<path d="M5.74679 10.0945L7.99992 8.72765L10.253 10.0945L9.65534 7.53202L11.6537 5.80932L9.02388 5.58807L7.99992 3.17161L6.97596 5.58807L4.34617 5.80932L6.3445 7.53202L5.74679 10.0945ZM0.083252 15.992V2.04973C0.083252 1.62876 0.229085 1.27244 0.520752 0.980774C0.812419 0.689107 1.16874 0.543274 1.58971 0.543274H14.4101C14.8311 0.543274 15.1874 0.689107 15.4791 0.980774C15.7708 1.27244 15.9166 1.62876 15.9166 2.04973V11.5368C15.9166 11.9578 15.7708 12.3141 15.4791 12.6058C15.1874 12.8974 14.8311 13.0433 14.4101 13.0433H3.032L0.083252 15.992ZM2.49992 11.7933H14.4101C14.4743 11.7933 14.533 11.7665 14.5864 11.7131C14.6399 11.6597 14.6666 11.601 14.6666 11.5368V2.04973C14.6666 1.98557 14.6399 1.92682 14.5864 1.87348C14.533 1.82001 14.4743 1.79327 14.4101 1.79327H1.58971C1.52554 1.79327 1.46679 1.82001 1.41346 1.87348C1.35999 1.92682 1.33325 1.98557 1.33325 2.04973V12.9472L2.49992 11.7933Z" fill="#1D252C"/>
</svg>
