<svg width="24" height="25" viewBox="0 0 24 25" fill="none" xmlns="http://www.w3.org/2000/svg">
<path d="M12.0033 21.46C10.7588 21.46 9.58867 21.2238 8.493 20.7515C7.3975 20.2791 6.4445 19.6381 5.634 18.8285C4.8235 18.0188 4.18192 17.0666 3.70925 15.972C3.23642 14.8775 3 13.7079 3 12.4632C3 11.2187 3.23617 10.0486 3.7085 8.95296C4.18083 7.85746 4.82183 6.90446 5.6315 6.09396C6.44117 5.28346 7.39333 4.64188 8.488 4.16921C9.5825 3.69638 10.7521 3.45996 11.9967 3.45996C13.2413 3.45996 14.4113 3.69613 15.507 4.16846C16.6025 4.64079 17.5555 5.28179 18.366 6.09146C19.1765 6.90113 19.8181 7.85329 20.2908 8.94796C20.7636 10.0425 21 11.212 21 12.4567C21 13.7012 20.7638 14.8713 20.2915 15.967C19.8192 17.0625 19.1782 18.0155 18.3685 18.826C17.5588 19.6365 16.6067 20.278 15.512 20.7507C14.4175 21.2235 13.2479 21.46 12.0033 21.46ZM12 20.46C14.2333 20.46 16.125 19.685 17.675 18.135C19.225 16.585 20 14.6933 20 12.46C20 10.2266 19.225 8.33496 17.675 6.78496C16.125 5.23496 14.2333 4.45996 12 4.45996C9.76667 4.45996 7.875 5.23496 6.325 6.78496C4.775 8.33496 4 10.2266 4 12.46C4 14.6933 4.775 16.585 6.325 18.135C7.875 19.685 9.76667 20.46 12 20.46ZM12 20.46C9.76667 20.46 7.875 19.685 6.325 18.135C4.775 16.585 4 14.6933 4 12.46C4 10.2266 4.775 8.33496 6.325 6.78496C7.875 5.23496 9.76667 4.45996 12 4.45996C14.2333 4.45996 16.125 5.23496 17.675 6.78496C19.225 8.33496 20 10.2266 20 12.46C20 14.6933 19.225 16.585 17.675 18.135C16.125 19.685 14.2333 20.46 12 20.46Z" fill="#0457C8"/>
<path d="M12.0513 17.1265C10.7486 17.1265 9.64506 16.6747 8.74084 15.7709C7.83673 14.8671 7.38467 13.7641 7.38467 12.4619C7.38467 11.1597 7.83673 10.056 8.74084 9.15088C9.64506 8.24577 10.7486 7.79321 12.0513 7.79321C12.8436 7.79321 13.5855 7.98144 14.277 8.35788C14.9685 8.73444 15.5257 9.25988 15.9487 9.93421V7.79321H16.6153V11.2804H13.1282V10.6137H15.5948C15.2478 9.94871 14.7596 9.42349 14.1302 9.03805C13.5006 8.6526 12.8077 8.45988 12.0513 8.45988C10.9402 8.45988 9.99578 8.84877 9.21801 9.62655C8.44023 10.4043 8.05134 11.3488 8.05134 12.4599C8.05134 13.571 8.44023 14.5154 9.21801 15.2932C9.99578 16.071 10.9402 16.4599 12.0513 16.4599C12.9069 16.4599 13.6791 16.2154 14.368 15.7265C15.0569 15.2377 15.5402 14.5932 15.818 13.7932H16.5257C16.2317 14.7915 15.6731 15.5967 14.85 16.2085C14.0269 16.8205 13.094 17.1265 12.0513 17.1265Z" fill="white"/>
</svg>
