<svg width="55" height="55" viewBox="0 0 55 55" fill="none" xmlns="http://www.w3.org/2000/svg">
<path d="M27.6 54.1265C22.1778 54.1265 17.318 52.6854 13.0207 49.8032C8.72336 46.9214 5.49759 43.0445 3.34336 38.1726V46.9472H0.676697V33.6139H14.01V36.2805H5.46136C7.18448 40.8481 10.0725 44.5199 14.1254 47.2959C18.1787 50.0719 22.6703 51.4599 27.6 51.4599C30.7965 51.4599 33.7991 50.8863 36.608 49.7392C39.4165 48.5921 41.8898 47.0092 44.028 44.9906C46.1667 42.9719 47.9036 40.5754 49.2387 37.8012C50.5738 35.0265 51.3438 32.0239 51.5487 28.7932H54.2154C54.0443 32.3248 53.2263 35.629 51.7614 38.7059C50.2965 41.7828 48.376 44.4665 46 46.7572C43.624 49.0479 40.8547 50.8488 37.692 52.1599C34.5298 53.471 31.1658 54.1265 27.6 54.1265ZM26.2254 45.1012V41.8392C24.4103 41.4188 22.8643 40.6983 21.5874 39.6779C20.3105 38.6574 19.2925 37.2343 18.5334 35.4085L20.882 34.3932C21.6207 36.0443 22.6078 37.317 23.8434 38.2112C25.0794 39.105 26.4649 39.5519 28 39.5519C29.5694 39.5519 31.0387 39.1392 32.408 38.3139C33.7769 37.4881 34.4614 36.1368 34.4614 34.2599C34.4614 32.7657 33.9683 31.593 32.982 30.7419C31.9958 29.8908 30.0685 28.937 27.2 27.8805C24.3387 26.8445 22.3054 25.7505 21.1 24.5985C19.8947 23.4461 19.292 21.911 19.292 19.9932C19.292 18.3763 19.8998 16.8832 21.1154 15.5139C22.3309 14.1445 24.0787 13.289 26.3587 12.9472V9.81855H28.9747V12.9472C30.3694 13.0463 31.6709 13.5283 32.8794 14.3932C34.0878 15.2581 35.0049 16.3317 35.6307 17.6139L33.3127 18.5265C32.7523 17.5728 32.0207 16.7857 31.118 16.1652C30.2154 15.5448 29.0871 15.2345 27.7334 15.2345C25.9725 15.2345 24.5614 15.6874 23.5 16.5932C22.4387 17.499 21.908 18.6323 21.908 19.9932C21.908 21.3541 22.3165 22.4019 23.1334 23.1365C23.9503 23.8717 25.8289 24.7521 28.7694 25.7779C31.9694 26.9334 34.1369 28.1692 35.272 29.4852C36.4071 30.8017 36.9747 32.3932 36.9747 34.2599C36.9747 35.5145 36.7267 36.6137 36.2307 37.5572C35.7351 38.5008 35.0949 39.2828 34.31 39.9032C33.5256 40.5241 32.6529 41.0028 31.692 41.3392C30.7316 41.6761 29.7814 41.8872 28.8414 41.9725V45.1012H26.2254ZM0.984697 26.1265C1.22381 22.4239 2.09292 19.0257 3.59203 15.9319C5.09159 12.8377 7.04648 10.1623 9.4567 7.90588C11.8669 5.64944 14.6276 3.89988 17.7387 2.65721C20.8498 1.41455 24.1369 0.793213 27.6 0.793213C32.9196 0.793213 37.7794 2.24277 42.1794 5.14188C46.5794 8.04099 49.8051 11.9777 51.8567 16.9519V7.97255H54.5234V21.3059H41.19V18.6392H49.7387C48.1183 14.2085 45.2729 10.571 41.2027 7.72655C37.1325 4.8821 32.5983 3.45988 27.6 3.45988C24.54 3.45988 21.6145 4.01632 18.8234 5.12921C16.0318 6.2421 13.5496 7.79077 11.3767 9.77521C9.20425 11.7597 7.42492 14.1392 6.0387 16.9139C4.65203 19.6881 3.85625 22.759 3.65136 26.1265H0.984697Z" fill="black"/>
</svg>
