<svg width="32" height="32" viewBox="0 0 32 32" fill="none" xmlns="http://www.w3.org/2000/svg">
<path d="M19.0956 16L13.3793 21.7163L14.1301 22.5136L20.6437 16L17.3869 12.7432L14.1301 9.48644L13.3793 10.2837L16.2375 13.1418L19.0956 16ZM16.0078 32C13.7957 32 11.7156 31.5802 9.76736 30.7407C7.81916 29.9011 6.1246 28.7566 4.68368 27.3071C3.24245 25.8576 2.10161 24.1651 1.26115 22.2294C0.420383 20.2941 0 18.2202 0 16.0078C0 13.7957 0.41977 11.7156 1.25931 9.76736C2.09885 7.81916 3.23831 6.1246 4.6777 4.68368C6.11709 3.24245 7.8095 2.10161 9.75494 1.26115C11.7007 0.420383 13.7798 0 15.9922 0C18.2043 0 20.2792 0.419771 22.217 1.25931C24.1551 2.09885 25.8498 3.23831 27.3011 4.6777C28.7525 6.11709 29.8984 7.8095 30.7389 9.75494C31.5796 11.7007 32 13.7798 32 15.9922C32 18.2043 31.5802 20.2794 30.7407 22.2175C29.9011 24.1553 28.7566 25.8498 27.3071 27.3011C25.8576 28.7525 24.1651 29.8984 22.2294 30.7389C20.2941 31.5796 18.2202 32 16.0078 32ZM16 30.8966C20.148 30.8966 23.6679 29.4509 26.5595 26.5595C29.4509 23.6679 30.8966 20.148 30.8966 16C30.8966 11.852 29.4509 8.33211 26.5595 5.44046C23.6679 2.54912 20.148 1.10345 16 1.10345C11.852 1.10345 8.33211 2.54912 5.44046 5.44046C2.54912 8.33211 1.10345 11.852 1.10345 16C1.10345 20.148 2.54912 23.6679 5.44046 26.5595C8.33211 29.4509 11.852 30.8966 16 30.8966Z" fill="#C1C2C4"/>
</svg>
