<svg width="49" height="39" viewBox="0 0 49 39" fill="none" xmlns="http://www.w3.org/2000/svg">
<path d="M48.4 5.10121V33.8185C48.4 35.0461 47.9889 36.071 47.1667 36.8932C46.3445 37.7154 45.3196 38.1265 44.092 38.1265H4.70802C3.48047 38.1265 2.45558 37.7154 1.63336 36.8932C0.811136 36.071 0.400024 35.0461 0.400024 33.8185V5.10121C0.400024 3.87366 0.811136 2.84877 1.63336 2.02655C2.45558 1.20432 3.48047 0.793213 4.70802 0.793213H44.092C45.3196 0.793213 46.3445 1.20432 47.1667 2.02655C47.9889 2.84877 48.4 3.87366 48.4 5.10121ZM3.06669 10.9472H45.7334V5.10121C45.7334 4.69055 45.5625 4.31432 45.2207 3.97255C44.8789 3.63077 44.5027 3.45988 44.092 3.45988H4.70802C4.29736 3.45988 3.92114 3.63077 3.57936 3.97255C3.23758 4.31432 3.06669 4.69055 3.06669 5.10121V10.9472ZM3.06669 17.3059V33.8185C3.06669 34.2292 3.23758 34.6054 3.57936 34.9472C3.92114 35.289 4.29736 35.4599 4.70802 35.4599H44.092C44.5027 35.4599 44.8789 35.289 45.2207 34.9472C45.5625 34.6054 45.7334 34.2292 45.7334 33.8185V17.3059H3.06669Z" fill="black"/>
</svg>
