<svg width="14" height="14" viewBox="0 0 14 14" fill="none" xmlns="http://www.w3.org/2000/svg">
<path d="M13.2371 13.7947L8.01914 8.57682C7.60247 8.93155 7.1233 9.20613 6.58164 9.40057C6.03997 9.59502 5.49567 9.69224 4.94872 9.69224C3.614 9.69224 2.48435 9.23023 1.55976 8.3062C0.635318 7.38217 0.173096 6.25321 0.173096 4.91932C0.173096 3.5853 0.63511 2.45537 1.55914 1.52953C2.48317 0.603838 3.61212 0.140991 4.94601 0.140991C6.28004 0.140991 7.40997 0.603213 8.3358 1.52766C9.2615 2.45224 9.72435 3.58189 9.72435 4.91662C9.72435 5.49564 9.62178 6.05599 9.41664 6.59766C9.2115 7.13932 8.94226 7.60245 8.60893 7.98703L13.8268 13.2052L13.2371 13.7947ZM4.94872 8.85891C6.05442 8.85891 6.98789 8.47828 7.74914 7.71703C8.51039 6.95592 8.89101 6.02245 8.89101 4.91662C8.89101 3.81078 8.51039 2.87731 7.74914 2.1162C6.98789 1.35495 6.05442 0.974324 4.94872 0.974324C3.84289 0.974324 2.90942 1.35495 2.1483 2.1162C1.38705 2.87731 1.00643 3.81078 1.00643 4.91662C1.00643 6.02245 1.38705 6.95592 2.1483 7.71703C2.90942 8.47828 3.84289 8.85891 4.94872 8.85891Z" fill="#E8EAED"/>
</svg>
