<svg width="16" height="17" viewBox="0 0 16 17" fill="none" xmlns="http://www.w3.org/2000/svg">
<path opacity="0.2" d="M8 3.45996V8.45996H2.55438C2.518 8.12787 2.49984 7.79404 2.5 7.45996V3.95996C2.5 3.82735 2.55268 3.70018 2.64645 3.60641C2.74022 3.51264 2.86739 3.45996 3 3.45996H8ZM8 8.45996V14.96C8 14.96 12.8788 13.6287 13.4456 8.45996H8Z" fill="black"/>
<path d="M13 2.95996H3C2.73478 2.95996 2.48043 3.06532 2.29289 3.25285C2.10536 3.44039 2 3.69474 2 3.95996V7.45996C2 10.755 3.595 12.7518 4.93313 13.8468C6.37437 15.0256 7.80813 15.4262 7.87063 15.4425C7.95656 15.4658 8.04719 15.4658 8.13313 15.4425C8.19563 15.4262 9.6275 15.0256 11.0706 13.8468C12.405 12.7518 14 10.755 14 7.45996V3.95996C14 3.69474 13.8946 3.44039 13.7071 3.25285C13.5196 3.06532 13.2652 2.95996 13 2.95996ZM7.5 14.2443C6.80452 13.9453 6.15393 13.5511 5.56687 13.0731C4.245 11.9918 3.42937 10.6125 3.12937 8.95996H7.5V14.2443ZM7.5 7.95996H3.01437C3.005 7.79559 3 7.62934 3 7.45996V3.95996H7.5V7.95996ZM10.4625 13.0487C9.86757 13.5369 9.20693 13.9389 8.5 14.2431V8.95996H12.8694C12.5725 10.6 11.7669 11.9712 10.4625 13.0487ZM13 7.45996C13 7.62934 12.995 7.79559 12.9856 7.95996H8.5V3.95996H13V7.45996Z" fill="black"/>
</svg>
