<svg width="49" height="49" viewBox="0 0 49 49" fill="none" xmlns="http://www.w3.org/2000/svg">
<path d="M33.0327 20.768C33.8621 20.768 34.5632 20.4775 35.1361 19.8966C35.7085 19.3157 35.9947 18.6106 35.9947 17.7813C35.9947 16.9515 35.7045 16.2504 35.1241 15.678C34.5432 15.1051 33.8381 14.8186 33.0087 14.8186C32.179 14.8186 31.4779 15.1091 30.9054 15.69C30.3325 16.2709 30.0461 16.976 30.0461 17.8053C30.0461 18.6351 30.3365 19.3362 30.9174 19.9086C31.4979 20.4815 32.203 20.768 33.0327 20.768ZM15.3914 20.768C16.2212 20.768 16.9223 20.4775 17.4947 19.8966C18.0676 19.3157 18.3541 18.6106 18.3541 17.7813C18.3541 16.9515 18.0636 16.2504 17.4827 15.678C16.9023 15.1051 16.1972 14.8186 15.3674 14.8186C14.5381 14.8186 13.837 15.1091 13.2641 15.69C12.6916 16.2709 12.4054 16.976 12.4054 17.8053C12.4054 18.6351 12.6956 19.3362 13.2761 19.9086C13.857 20.4815 14.5621 20.768 15.3914 20.768ZM24.2001 37.4853C26.7436 37.4853 29.0863 36.7837 31.2281 35.3806C33.3703 33.9771 34.9799 32.1146 36.0567 29.7933H33.4001C32.4223 31.4377 31.1223 32.7377 29.5001 33.6933C27.8779 34.6489 26.1112 35.1266 24.2001 35.1266C22.289 35.1266 20.5223 34.6489 18.9001 33.6933C17.2779 32.7377 15.9779 31.4377 15.0001 29.7933H12.3434C13.4203 32.1146 15.0299 33.9771 17.1721 35.3806C19.3139 36.7837 21.6565 37.4853 24.2001 37.4853ZM24.2087 48.46C20.8901 48.46 17.7699 47.8302 14.8481 46.5706C11.9267 45.3111 9.38541 43.6017 7.22407 41.4426C5.06274 39.2835 3.35185 36.7444 2.09141 33.8253C0.830517 30.9066 0.200073 27.7877 0.200073 24.4686C0.200073 21.15 0.829851 18.0297 2.08941 15.108C3.34896 12.1866 5.0583 9.64529 7.21741 7.48396C9.37652 5.32263 11.9156 3.61174 14.8347 2.35129C17.7534 1.09041 20.8723 0.459961 24.1914 0.459961C27.5101 0.459961 30.6303 1.08974 33.5521 2.3493C36.4734 3.60885 39.0147 5.31818 41.1761 7.4773C43.3374 9.63641 45.0483 12.1755 46.3087 15.0946C47.5696 18.0133 48.2001 21.1322 48.2001 24.4513C48.2001 27.77 47.5703 30.8902 46.3107 33.812C45.0512 36.7333 43.3419 39.2746 41.1827 41.436C39.0236 43.5973 36.4845 45.3082 33.5654 46.5686C30.6467 47.8295 27.5279 48.46 24.2087 48.46ZM24.2001 45.7933C30.1556 45.7933 35.2001 43.7266 39.3334 39.5933C43.4667 35.46 45.5334 30.4155 45.5334 24.46C45.5334 18.5044 43.4667 13.46 39.3334 9.32663C35.2001 5.19329 30.1556 3.12663 24.2001 3.12663C18.2445 3.12663 13.2001 5.19329 9.06674 9.32663C4.93341 13.46 2.86674 18.5044 2.86674 24.46C2.86674 30.4155 4.93341 35.46 9.06674 39.5933C13.2001 43.7266 18.2445 45.7933 24.2001 45.7933Z" fill="black"/>
</svg>
