<svg width="24" height="25" viewBox="0 0 24 25" fill="none" xmlns="http://www.w3.org/2000/svg">
<path d="M1.5 18.4222L1.875 16.9222H6.86525L6.4905 18.4222H1.5ZM3.5 14.5377L3.875 13.0377H9.86525L9.4905 14.5377H3.5ZM18.5558 20.7395L19.0558 16.7205L19.7713 10.8165L20.0308 8.74548L18.5558 20.7395ZM6.27875 22.23C5.84425 22.23 5.47125 22.0854 5.15975 21.7962C4.84808 21.5072 4.69225 21.1518 4.69225 20.73H18.248C18.3378 20.73 18.4148 20.7011 18.4788 20.6435C18.5429 20.5858 18.5814 20.5121 18.5943 20.4222L19.9828 9.09148C19.9956 9.00181 19.9699 8.92173 19.9058 8.85123C19.8416 8.78073 19.7647 8.74548 19.675 8.74548H17.0308L16.7365 11.0722C16.7097 11.2851 16.6151 11.4531 16.4528 11.5762C16.2906 11.6992 16.1032 11.7505 15.8905 11.73C15.684 11.7095 15.5193 11.6207 15.3963 11.4637C15.2731 11.3066 15.225 11.1248 15.252 10.9185L15.5155 8.74548H11.0308L10.7365 11.057C10.7097 11.2698 10.6151 11.4403 10.4528 11.5685C10.2906 11.6966 10.1032 11.7505 9.8905 11.73C9.684 11.7095 9.51667 11.6181 9.3885 11.456C9.26033 11.2938 9.20967 11.1095 9.2365 10.903L9.5 8.74548H6.0865C6.14683 8.28765 6.34267 7.92065 6.674 7.64448C7.0055 7.36815 7.393 7.22998 7.8365 7.22998H9.68275L9.7115 6.97998C9.84483 5.80048 10.2532 4.88065 10.9365 4.22048C11.6198 3.56015 12.5513 3.22998 13.7308 3.22998C14.7526 3.22998 15.5953 3.61298 16.2588 4.37898C16.9221 5.14498 17.2263 6.04406 17.1713 7.07623L17.152 7.22998H19.7213C20.2443 7.24031 20.6801 7.44165 21.0288 7.83398C21.3776 8.22615 21.5167 8.68381 21.446 9.20698L20.0328 20.5915C19.9724 21.0658 19.7643 21.4575 19.4085 21.7665C19.0528 22.0755 18.6378 22.23 18.1635 22.23H6.27875ZM11.1828 7.22998H15.6673L15.6865 7.07623C15.7288 6.4429 15.5382 5.89348 15.1145 5.42798C14.6907 4.96265 14.1653 4.72998 13.5385 4.72998C12.8525 4.72998 12.3131 4.9284 11.9203 5.32523C11.5273 5.72206 11.291 6.27365 11.2115 6.97998L11.1828 7.22998Z" fill="white"/>
</svg>
