<svg width="16" height="17" viewBox="0 0 16 17" fill="none" xmlns="http://www.w3.org/2000/svg">
<path opacity="0.2" d="M14 3.95996V12.96C14 13.0926 13.9473 13.2197 13.8536 13.3135C13.7598 13.4073 13.6326 13.46 13.5 13.46H2.5C2.36739 13.46 2.24021 13.4073 2.14645 13.3135C2.05268 13.2197 2 13.0926 2 12.96V3.95996C2 3.82735 2.05268 3.70018 2.14645 3.60641C2.24021 3.51264 2.36739 3.45996 2.5 3.45996H13.5C13.6326 3.45996 13.7598 3.51264 13.8536 3.60641C13.9473 3.70018 14 3.82735 14 3.95996Z" fill="black"/>
<path d="M13.5 2.95996H2.5C2.23478 2.95996 1.98043 3.06532 1.79289 3.25285C1.60536 3.44039 1.5 3.69474 1.5 3.95996V12.96C1.5 13.2252 1.60536 13.4795 1.79289 13.6671C1.98043 13.8546 2.23478 13.96 2.5 13.96H13.5C13.7652 13.96 14.0196 13.8546 14.2071 13.6671C14.3946 13.4795 14.5 13.2252 14.5 12.96V3.95996C14.5 3.69474 14.3946 3.44039 14.2071 3.25285C14.0196 3.06532 13.7652 2.95996 13.5 2.95996ZM13.5 12.96H2.5V3.95996H13.5V12.96ZM5 5.70996C5 5.8583 4.95601 6.0033 4.8736 6.12664C4.79119 6.24998 4.67406 6.3461 4.53701 6.40287C4.39997 6.45964 4.24917 6.47449 4.10368 6.44555C3.9582 6.41661 3.82456 6.34518 3.71967 6.24029C3.61478 6.1354 3.54335 6.00176 3.51441 5.85628C3.48547 5.71079 3.50032 5.55999 3.55709 5.42295C3.61386 5.2859 3.70999 5.16877 3.83332 5.08636C3.95666 5.00395 4.10166 4.95996 4.25 4.95996C4.44891 4.95996 4.63968 5.03898 4.78033 5.17963C4.92098 5.32028 5 5.51105 5 5.70996ZM7.5 5.70996C7.5 5.8583 7.45601 6.0033 7.3736 6.12664C7.29119 6.24998 7.17406 6.3461 7.03701 6.40287C6.89997 6.45964 6.74917 6.47449 6.60368 6.44555C6.4582 6.41661 6.32456 6.34518 6.21967 6.24029C6.11478 6.1354 6.04335 6.00176 6.01441 5.85628C5.98547 5.71079 6.00032 5.55999 6.05709 5.42295C6.11386 5.2859 6.20999 5.16877 6.33332 5.08636C6.45666 5.00395 6.60166 4.95996 6.75 4.95996C6.94891 4.95996 7.13968 5.03898 7.28033 5.17963C7.42098 5.32028 7.5 5.51105 7.5 5.70996Z" fill="black"/>
</svg>
