<svg width="16" height="17" viewBox="0 0 16 17" fill="none" xmlns="http://www.w3.org/2000/svg">
<path opacity="0.2" d="M15 8.45996C15 9.25561 14.6839 10.0187 14.1213 10.5813C13.5587 11.1439 12.7956 11.46 12 11.46H3C2.46957 11.46 1.96086 11.2492 1.58579 10.8742C1.21071 10.4991 1 9.99039 1 9.45996C1 8.92953 1.21071 8.42082 1.58579 8.04575C1.96086 7.67067 2.46957 7.45996 3 7.45996H5V5.45996H12C12.7956 5.45996 13.5587 5.77603 14.1213 6.33864C14.6839 6.90125 15 7.66431 15 8.45996Z" fill="black"/>
<path d="M15.5 8.45996C15.499 9.38791 15.1299 10.2776 14.4738 10.9337C13.8176 11.5899 12.928 11.959 12 11.96H3C2.33696 11.96 1.70107 11.6966 1.23223 11.2277C0.763392 10.7589 0.5 10.123 0.5 9.45996C0.5 8.79692 0.763392 8.16104 1.23223 7.69219C1.70107 7.22335 2.33696 6.95996 3 6.95996H12C12.3978 6.95996 12.7794 7.118 13.0607 7.3993C13.342 7.68061 13.5 8.06214 13.5 8.45996C13.5 8.85779 13.342 9.23932 13.0607 9.52062C12.7794 9.80193 12.3978 9.95996 12 9.95996H5C4.86739 9.95996 4.74021 9.90728 4.64645 9.81351C4.55268 9.71975 4.5 9.59257 4.5 9.45996C4.5 9.32735 4.55268 9.20018 4.64645 9.10641C4.74021 9.01264 4.86739 8.95996 5 8.95996H12C12.1326 8.95996 12.2598 8.90728 12.3536 8.81351C12.4473 8.71975 12.5 8.59257 12.5 8.45996C12.5 8.32735 12.4473 8.20018 12.3536 8.10641C12.2598 8.01264 12.1326 7.95996 12 7.95996H3C2.60218 7.95996 2.22064 8.118 1.93934 8.3993C1.65804 8.68061 1.5 9.06214 1.5 9.45996C1.5 9.85779 1.65804 10.2393 1.93934 10.5206C2.22064 10.8019 2.60218 10.96 3 10.96H12C12.663 10.96 13.2989 10.6966 13.7678 10.2277C14.2366 9.75889 14.5 9.123 14.5 8.45996C14.5 7.79692 14.2366 7.16104 13.7678 6.69219C13.2989 6.22335 12.663 5.95996 12 5.95996H5C4.86739 5.95996 4.74021 5.90728 4.64645 5.81351C4.55268 5.71975 4.5 5.59257 4.5 5.45996C4.5 5.32735 4.55268 5.20018 4.64645 5.10641C4.74021 5.01264 4.86739 4.95996 5 4.95996H12C12.928 4.96095 13.8176 5.33002 14.4738 5.98618C15.1299 6.64235 15.499 7.53201 15.5 8.45996Z" fill="black"/>
</svg>
