<svg width="16" height="17" viewBox="0 0 16 17" fill="none" xmlns="http://www.w3.org/2000/svg">
<path opacity="0.2" d="M13.5 9.95996V12.96C13.5 13.0926 13.4473 13.2197 13.3536 13.3135C13.2598 13.4073 13.1326 13.46 13 13.46H3C2.86739 13.46 2.74021 13.4073 2.64645 13.3135C2.55268 13.2197 2.5 13.0926 2.5 12.96V9.95996C2.5 9.82735 2.55268 9.70018 2.64645 9.60641C2.74021 9.51264 2.86739 9.45996 3 9.45996H13C13.1326 9.45996 13.2598 9.51264 13.3536 9.60641C13.4473 9.70018 13.5 9.82735 13.5 9.95996ZM13 3.45996H3C2.86739 3.45996 2.74021 3.51264 2.64645 3.60641C2.55268 3.70018 2.5 3.82735 2.5 3.95996V6.95996C2.5 7.09257 2.55268 7.21975 2.64645 7.31351C2.74021 7.40728 2.86739 7.45996 3 7.45996H13C13.1326 7.45996 13.2598 7.40728 13.3536 7.31351C13.4473 7.21975 13.5 7.09257 13.5 6.95996V3.95996C13.5 3.82735 13.4473 3.70018 13.3536 3.60641C13.2598 3.51264 13.1326 3.45996 13 3.45996Z" fill="black"/>
<path d="M13 8.95996H3C2.73478 8.95996 2.48043 9.06532 2.29289 9.25285C2.10536 9.44039 2 9.69474 2 9.95996V12.96C2 13.2252 2.10536 13.4795 2.29289 13.6671C2.48043 13.8546 2.73478 13.96 3 13.96H13C13.2652 13.96 13.5196 13.8546 13.7071 13.6671C13.8946 13.4795 14 13.2252 14 12.96V9.95996C14 9.69474 13.8946 9.44039 13.7071 9.25285C13.5196 9.06532 13.2652 8.95996 13 8.95996ZM13 12.96H3V9.95996H13V12.96ZM13 2.95996H3C2.73478 2.95996 2.48043 3.06532 2.29289 3.25285C2.10536 3.44039 2 3.69474 2 3.95996V6.95996C2 7.22518 2.10536 7.47953 2.29289 7.66707C2.48043 7.8546 2.73478 7.95996 3 7.95996H13C13.2652 7.95996 13.5196 7.8546 13.7071 7.66707C13.8946 7.47953 14 7.22518 14 6.95996V3.95996C14 3.69474 13.8946 3.44039 13.7071 3.25285C13.5196 3.06532 13.2652 2.95996 13 2.95996ZM13 6.95996H3V3.95996H13V6.95996ZM12 5.45996C12 5.6083 11.956 5.7533 11.8736 5.87664C11.7912 5.99998 11.6741 6.0961 11.537 6.15287C11.4 6.20964 11.2492 6.22449 11.1037 6.19555C10.9582 6.16661 10.8246 6.09518 10.7197 5.99029C10.6148 5.8854 10.5434 5.75176 10.5144 5.60628C10.4855 5.46079 10.5003 5.30999 10.5571 5.17295C10.6139 5.0359 10.71 4.91877 10.8333 4.83636C10.9567 4.75395 11.1017 4.70996 11.25 4.70996C11.4489 4.70996 11.6397 4.78898 11.7803 4.92963C11.921 5.07028 12 5.26105 12 5.45996ZM12 11.46C12 11.6083 11.956 11.7533 11.8736 11.8766C11.7912 12 11.6741 12.0961 11.537 12.1529C11.4 12.2096 11.2492 12.2245 11.1037 12.1955C10.9582 12.1666 10.8246 12.0952 10.7197 11.9903C10.6148 11.8854 10.5434 11.7518 10.5144 11.6063C10.4855 11.4608 10.5003 11.31 10.5571 11.1729C10.6139 11.0359 10.71 10.9188 10.8333 10.8364C10.9567 10.7539 11.1017 10.71 11.25 10.71C11.4489 10.71 11.6397 10.789 11.7803 10.9296C11.921 11.0703 12 11.261 12 11.46Z" fill="black"/>
</svg>
