<svg width="20" height="21" viewBox="0 0 20 21" fill="none" xmlns="http://www.w3.org/2000/svg">
<path d="M6 20.3267C4.37044 20.3267 2.98522 19.7563 1.84433 18.6157C0.703665 17.4748 0.133331 16.0895 0.133331 14.46V6.45999C0.133331 4.83043 0.703665 3.44521 1.84433 2.30432C2.98522 1.16366 4.37044 0.593323 6 0.593323H14C15.6296 0.593323 17.0148 1.16366 18.1557 2.30432C19.2963 3.44521 19.8667 4.83043 19.8667 6.45999V14.46C19.8667 16.0895 19.2963 17.4748 18.1557 18.6157C17.0148 19.7563 15.6296 20.3267 14 20.3267H6ZM8.3 13.7703L14.177 7.92666L13.4 7.14966L8.3 12.2163L6.03333 9.98299L5.28966 10.76L8.3 13.7703Z" fill="#0457C8"/>
</svg>
