<svg width="24" height="25" viewBox="0 0 24 25" fill="none" xmlns="http://www.w3.org/2000/svg">
<path d="M6.49959 17.4602V9.46018H7.49959V17.4602H6.49959ZM11.4996 17.4602V9.46018H12.4996V17.4602H11.4996ZM3.53809 7.46018V6.61393L11.9996 2.57568L20.4611 6.61393V7.46018H3.53809ZM3.53809 20.4602V19.4602H14.6458C14.6535 19.6435 14.6695 19.8144 14.6938 19.9727C14.7182 20.131 14.7483 20.2935 14.7841 20.4602H3.53809ZM16.4996 14.7294V9.46018H17.4996V14.2294L16.4996 14.7294ZM19.9996 23.6909C19.0163 23.4461 18.2063 22.8862 17.5698 22.0112C16.9333 21.1362 16.6151 20.1615 16.6151 19.0872V16.9217L19.9996 15.2294L23.3841 16.9217V19.0872C23.3841 20.1615 23.0658 21.1362 22.4293 22.0112C21.7928 22.8862 20.9829 23.4461 19.9996 23.6909ZM19.2746 21.0372L22.3073 18.0102L21.6803 17.3832L19.2746 19.7774L18.2996 18.8024L17.6726 19.4352L19.2746 21.0372Z" fill="black"/>
</svg>
