<svg width="24" height="25" viewBox="0 0 24 25" fill="none" xmlns="http://www.w3.org/2000/svg">
<path d="M12 20.7866L10.8963 19.7944C9.23858 18.2905 7.86775 16.9983 6.78375 15.9176C5.69975 14.8368 4.84075 13.8749 4.20675 13.0319C3.57275 12.189 3.12983 11.4201 2.878 10.7251C2.626 10.0303 2.5 9.3252 2.5 8.60986C2.5 7.1907 2.9785 6.00253 3.9355 5.04536C4.89267 4.08836 6.08083 3.60986 7.5 3.60986C8.373 3.60986 9.198 3.81403 9.975 4.22236C10.752 4.6307 11.427 5.21628 12 5.97911C12.573 5.21628 13.248 4.6307 14.025 4.22236C14.802 3.81403 15.627 3.60986 16.5 3.60986C17.9192 3.60986 19.1073 4.08836 20.0645 5.04536C21.0215 6.00253 21.5 7.1907 21.5 8.60986C21.5 9.3252 21.374 10.0303 21.122 10.7251C20.8702 11.4201 20.4272 12.189 19.7932 13.0319C19.1593 13.8749 18.3018 14.8368 17.221 15.9176C16.1403 16.9983 14.7679 18.2905 13.1038 19.7944L12 20.7866ZM12 18.7599C13.6 17.3202 14.9167 16.0862 15.95 15.0579C16.9833 14.0297 17.8 13.1364 18.4 12.3781C19 11.6198 19.4167 10.9464 19.65 10.3579C19.8833 9.76953 20 9.18686 20 8.60986C20 7.60986 19.6667 6.77653 19 6.10986C18.3333 5.4432 17.5 5.10986 16.5 5.10986C15.7103 5.10986 14.9805 5.33386 14.3105 5.78186C13.6407 6.23003 13.1102 6.85345 12.7192 7.65211H11.2808C10.8833 6.84695 10.3512 6.22195 9.6845 5.77711C9.01783 5.33228 8.28967 5.10986 7.5 5.10986C6.50633 5.10986 5.67458 5.4432 5.00475 6.10986C4.33492 6.77653 4 7.60986 4 8.60986C4 9.18686 4.11667 9.76953 4.35 10.3579C4.58333 10.9464 5 11.6198 5.6 12.3781C6.2 13.1364 7.01667 14.0281 8.05 15.0531C9.08333 16.0781 10.4 17.3137 12 18.7599Z" fill="black"/>
</svg>
