<svg width="12" height="11" viewBox="0 0 12 11" fill="none" xmlns="http://www.w3.org/2000/svg">
<path d="M6 10.7992L5.49483 10.3428C4.40683 9.34884 3.50683 8.49801 2.79483 7.79034C2.08294 7.08256 1.521 6.4584 1.109 5.91784C0.697 5.37728 0.409167 4.88817 0.2455 4.45051C0.0818333 4.01295 0 3.57278 0 3.13001C0 2.28212 0.288056 1.57017 0.864167 0.994171C1.44017 0.41806 2.15211 0.130005 3 0.130005C3.58633 0.130005 4.13633 0.280005 4.65 0.580005C5.16367 0.880005 5.61367 1.31634 6 1.889C6.38633 1.31634 6.83633 0.880005 7.35 0.580005C7.86367 0.280005 8.41367 0.130005 9 0.130005C9.84789 0.130005 10.5598 0.41806 11.1358 0.994171C11.7119 1.57017 12 2.28212 12 3.13001C12 3.57278 11.9182 4.01295 11.7545 4.45051C11.5908 4.88817 11.303 5.37728 10.891 5.91784C10.479 6.4584 9.91917 7.08256 9.2115 7.79034C8.50383 8.49801 7.60172 9.34884 6.50517 10.3428L6 10.7992ZM6 9.89667C7.06667 8.93256 7.94444 8.10673 8.63333 7.41917C9.32222 6.73151 9.86667 6.1349 10.2667 5.62934C10.6667 5.12378 10.9444 4.67595 11.1 4.28584C11.2556 3.89562 11.3333 3.51034 11.3333 3.13001C11.3333 2.46334 11.1111 1.90778 10.6667 1.46334C10.2222 1.01889 9.66667 0.796672 9 0.796672C8.46922 0.796672 7.9795 0.948172 7.53083 1.25117C7.08206 1.55417 6.68033 2.01034 6.32567 2.61967H5.67433C5.31111 2.00178 4.90728 1.54345 4.46283 1.24467C4.01839 0.946005 3.53078 0.796672 3 0.796672C2.34189 0.796672 1.78844 1.01889 1.33967 1.46334C0.891 1.90778 0.666667 2.46334 0.666667 3.13001C0.666667 3.51034 0.744444 3.89562 0.9 4.28584C1.05556 4.67595 1.33333 5.12378 1.73333 5.62934C2.13333 6.1349 2.67778 6.72934 3.36667 7.41267C4.05556 8.09601 4.93333 8.92401 6 9.89667Z" fill="black"/>
</svg>
