<svg width="17" height="17" viewBox="0 0 17 17" fill="none" xmlns="http://www.w3.org/2000/svg">
<path d="M0.25 13.2035L0.5625 11.9535H4.72104L4.40875 13.2035H0.25ZM1.91667 9.9664L2.22917 8.7164H7.22104L6.90875 9.9664H1.91667ZM14.4631 15.1345L14.8798 11.7854L15.476 6.86536L15.6923 5.13952L14.4631 15.1345ZM4.23229 16.3766C3.87021 16.3766 3.55938 16.2561 3.29979 16.0152C3.04007 15.7743 2.91021 15.4781 2.91021 15.1266H14.2067C14.2815 15.1266 14.3456 15.1026 14.399 15.0545C14.4524 15.0065 14.4845 14.945 14.4952 14.8702L15.6523 5.42786C15.663 5.35314 15.6416 5.2864 15.5881 5.22765C15.5347 5.1689 15.4706 5.13952 15.3958 5.13952H13.1923L12.9471 7.07848C12.9247 7.25584 12.8459 7.39584 12.7106 7.49848C12.5755 7.60098 12.4193 7.64369 12.2421 7.62661C12.07 7.60952 11.9327 7.53557 11.8302 7.40473C11.7276 7.27376 11.6875 7.1223 11.71 6.95036L11.9296 5.13952H8.19229L7.94708 7.06577C7.92472 7.24314 7.8459 7.38522 7.71063 7.49202C7.57549 7.59883 7.41931 7.64369 7.24208 7.62661C7.07 7.60952 6.93056 7.53341 6.82375 7.39827C6.71695 7.26314 6.67472 7.10952 6.69708 6.93744L6.91667 5.13952H4.07208C4.12236 4.758 4.28556 4.45216 4.56167 4.22202C4.83792 3.99175 5.16083 3.87661 5.53042 3.87661H7.06896L7.09292 3.66827C7.20403 2.68536 7.54431 1.91883 8.11375 1.36869C8.6832 0.818413 9.45938 0.543274 10.4423 0.543274C11.2938 0.543274 11.996 0.862441 12.549 1.50077C13.1017 2.13911 13.3552 2.88834 13.3094 3.74848L13.2933 3.87661H15.4344C15.8702 3.88522 16.2334 4.053 16.524 4.37994C16.8147 4.70675 16.9306 5.08814 16.8717 5.52411L15.694 15.0112C15.6437 15.4065 15.4703 15.7329 15.1738 15.9904C14.8774 16.2479 14.5315 16.3766 14.1363 16.3766H4.23229ZM8.31896 3.87661H12.056L12.0721 3.74848C12.1074 3.2207 11.9485 2.76286 11.5954 2.37494C11.2422 1.98716 10.8044 1.79327 10.2821 1.79327C9.71042 1.79327 9.2609 1.95862 8.93354 2.28932C8.60604 2.62001 8.40917 3.07966 8.34292 3.66827L8.31896 3.87661Z" fill="#1D252C"/>
</svg>
